# MagicaVoxel @ Ephtracy

# group
o 

# material
mtllib persona1_t.vox.mtl
usemtl palette

# normals
vn -1 0 0
vn 1 0 0
vn 0 0 1
vn 0 0 -1
vn 0 -1 0
vn 0 1 0

# texcoords
vt 0.130859 0.5
vt 0.142578 0.5
vt 0.365234 0.5
vt 0.369141 0.5
vt 0.779297 0.5
vt 0.845703 0.5
vt 0.853516 0.5
vt 0.986328 0.5

# verts
v -0.7 0.9 0
v -0.7 0.9 -0.2
v -0.7 1 0
v -0.7 1 -0.2
v -0.4 1.2 0.1
v -0.4 1.2 0
v -0.4 1.3 0.1
v -0.4 1.3 0
v -0.3 1.1 0
v -0.3 1.1 -0.3
v -0.3 1.2 0.2
v -0.3 1.2 0.1
v -0.3 1.2 0
v -0.3 1.3 0.3
v -0.3 1.3 0.2
v -0.3 1.3 0.1
v -0.3 1.3 0
v -0.3 1.4 0.3
v -0.3 1.4 -0.3
v -0.2 0 0.1
v -0.2 0 -0.2
v -0.2 0.1 0.1
v -0.2 0.1 0
v -0.2 0.1 -0.2
v -0.2 0.4 0.1
v -0.2 0.4 0
v -0.2 0.4 -0.2
v -0.2 0.4 -0.3
v -0.2 0.9 0
v -0.2 0.9 -0.2
v -0.2 1 0.1
v -0.2 1 0
v -0.2 1 -0.2
v -0.2 1 -0.3
v -0.2 1.1 0.2
v -0.2 1.1 0
v -0.2 1.1 -0.3
v -0.2 1.1 -0.4
v -0.2 1.2 0.2
v -0.2 1.2 0.1
v -0.2 1.2 0
v -0.2 1.4 0.3
v -0.2 1.4 -0.3
v -0.2 1.4 -0.4
v -0.2 1.5 0.3
v -0.2 1.5 -0.3
v -0.1 1 0.2
v -0.1 1 0.1
v -0.1 1 0
v -0.1 1.1 0.2
v -0.1 1.1 0
v -0.1 1.4 -0.3
v -0.1 1.4 -0.4
v -0.1 1.5 0.3
v -0.1 1.5 -0.3
v -0.1 1.5 -0.4
v -0.1 1.6 0.3
v -0.1 1.6 -0.3
v 0 1.4 0.3
v 0 1.4 0.2
v 0 1.5 0.3
v 0 1.5 0.2
v 0.1 0 0.1
v 0.1 0 -0.2
v 0.1 0.1 0.1
v 0.1 0.1 0
v 0.1 0.1 -0.2
v 0.1 0.4 0.1
v 0.1 0.4 0
v 0.1 0.4 -0.1
v 0.1 0.4 -0.2
v 0.1 0.9 0
v 0.1 1 0.1
v 0.1 1 0
v 0.3 1.3 0.3
v 0.3 1.3 0.2
v 0.3 1.4 0.3
v 0.3 1.4 0.2
v -0.2 1.3 0.3
v -0.2 1.3 0.2
v -0.2 1.4 0.3
v -0.2 1.4 0.2
v -0.1 1.4 0.3
v -0.1 1.4 0.2
v -0.1 1.5 0.3
v -0.1 1.5 0.2
v 0 0 0.1
v 0 0 -0.2
v 0 0.1 0.1
v 0 0.1 0
v 0 0.1 -0.2
v 0 0.4 0.1
v 0 0.4 0
v 0 0.4 -0.1
v 0 0.4 -0.2
v 0 0.9 0
v 0 1 0.1
v 0 1 0
v 0 1.5 0.3
v 0 1.5 0.2
v 0 1.6 0.3
v 0 1.6 0.2
v 0.2 1 0.2
v 0.2 1 0.1
v 0.2 1 0
v 0.2 1.1 0.2
v 0.2 1.1 0
v 0.2 1.4 -0.3
v 0.2 1.4 -0.4
v 0.2 1.5 0.2
v 0.2 1.5 -0.3
v 0.2 1.5 -0.4
v 0.2 1.6 0.2
v 0.2 1.6 -0.3
v 0.3 0 0.1
v 0.3 0 -0.2
v 0.3 0.1 0.1
v 0.3 0.1 0
v 0.3 0.1 -0.2
v 0.3 0.4 0.1
v 0.3 0.4 0
v 0.3 0.4 -0.2
v 0.3 0.4 -0.3
v 0.3 0.9 0
v 0.3 0.9 -0.2
v 0.3 1 0.1
v 0.3 1 0
v 0.3 1 -0.2
v 0.3 1 -0.3
v 0.3 1.1 0.2
v 0.3 1.1 0
v 0.3 1.1 -0.3
v 0.3 1.1 -0.4
v 0.3 1.2 0.2
v 0.3 1.2 0.1
v 0.3 1.2 0
v 0.3 1.4 0.3
v 0.3 1.4 -0.3
v 0.3 1.4 -0.4
v 0.3 1.5 0.3
v 0.3 1.5 -0.3
v 0.4 1.1 0
v 0.4 1.1 -0.3
v 0.4 1.2 0.2
v 0.4 1.2 0.1
v 0.4 1.2 0
v 0.4 1.3 0.3
v 0.4 1.3 0.2
v 0.4 1.3 0.1
v 0.4 1.3 0
v 0.4 1.4 0.3
v 0.4 1.4 -0.3
v 0.5 1.2 0.1
v 0.5 1.2 0
v 0.5 1.3 0.1
v 0.5 1.3 0
v 0.8 0.9 0
v 0.8 0.9 -0.2
v 0.8 1 0
v 0.8 1 -0.2
v -0.3 1.3 0.3
v -0.3 1.4 0.3
v -0.2 1.3 0.3
v -0.2 1.4 0.3
v -0.2 1.5 0.3
v -0.1 1.4 0.3
v -0.1 1.5 0.3
v -0.1 1.6 0.3
v 0 1.4 0.3
v 0 1.5 0.3
v 0 1.6 0.3
v 0.3 1.3 0.3
v 0.3 1.4 0.3
v 0.3 1.5 0.3
v 0.4 1.3 0.3
v 0.4 1.4 0.3
v -0.3 1.2 0.2
v -0.3 1.3 0.2
v -0.2 1.1 0.2
v -0.2 1.2 0.2
v -0.2 1.3 0.2
v -0.2 1.4 0.2
v -0.1 1 0.2
v -0.1 1.1 0.2
v -0.1 1.2 0.2
v -0.1 1.4 0.2
v -0.1 1.5 0.2
v 0 1.1 0.2
v 0 1.2 0.2
v 0 1.3 0.2
v 0 1.4 0.2
v 0 1.5 0.2
v 0 1.6 0.2
v 0.1 1.1 0.2
v 0.1 1.2 0.2
v 0.1 1.3 0.2
v 0.2 1 0.2
v 0.2 1.1 0.2
v 0.2 1.2 0.2
v 0.2 1.5 0.2
v 0.2 1.6 0.2
v 0.3 1.1 0.2
v 0.3 1.2 0.2
v 0.3 1.3 0.2
v 0.3 1.4 0.2
v 0.4 1.2 0.2
v 0.4 1.3 0.2
v -0.4 1.2 0.1
v -0.4 1.3 0.1
v -0.3 1.2 0.1
v -0.3 1.3 0.1
v -0.2 0 0.1
v -0.2 0.1 0.1
v -0.2 0.4 0.1
v -0.2 1 0.1
v -0.1 1 0.1
v 0 0 0.1
v 0 0.1 0.1
v 0 0.4 0.1
v 0 1 0.1
v 0.1 0 0.1
v 0.1 0.1 0.1
v 0.1 0.4 0.1
v 0.1 1 0.1
v 0.2 1 0.1
v 0.3 0 0.1
v 0.3 0.1 0.1
v 0.3 0.4 0.1
v 0.3 1 0.1
v 0.4 1.2 0.1
v 0.4 1.3 0.1
v 0.5 1.2 0.1
v 0.5 1.3 0.1
v -0.7 0.9 0
v -0.7 1 0
v -0.6 0.9 0
v -0.6 1 0
v -0.3 1.1 0
v -0.3 1.2 0
v -0.2 0.1 0
v -0.2 0.4 0
v -0.2 0.9 0
v -0.2 1 0
v -0.2 1.1 0
v -0.2 1.2 0
v -0.1 1 0
v -0.1 1.1 0
v 0 0.1 0
v 0 0.4 0
v 0 0.9 0
v 0 1 0
v 0.1 0.1 0
v 0.1 0.4 0
v 0.1 0.9 0
v 0.1 1 0
v 0.2 1 0
v 0.2 1.1 0
v 0.3 0.1 0
v 0.3 0.4 0
v 0.3 0.9 0
v 0.3 1 0
v 0.3 1.1 0
v 0.3 1.2 0
v 0.4 1.1 0
v 0.4 1.2 0
v 0.7 0.9 0
v 0.7 1 0
v 0.8 0.9 0
v 0.8 1 0
v -0.4 1.2 0
v -0.4 1.3 0
v -0.3 1.2 0
v -0.3 1.3 0
v 0.4 1.2 0
v 0.4 1.3 0
v 0.5 1.2 0
v 0.5 1.3 0
v -0.7 0.9 -0.2
v -0.7 1 -0.2
v -0.6 0.9 -0.2
v -0.6 1 -0.2
v -0.2 0 -0.2
v -0.2 0.1 -0.2
v -0.2 0.4 -0.2
v -0.2 0.9 -0.2
v -0.2 1 -0.2
v 0 0 -0.2
v 0 0.1 -0.2
v 0 0.4 -0.2
v 0.1 0 -0.2
v 0.1 0.1 -0.2
v 0.1 0.4 -0.2
v 0.3 0 -0.2
v 0.3 0.1 -0.2
v 0.3 0.4 -0.2
v 0.3 0.9 -0.2
v 0.3 1 -0.2
v 0.7 0.9 -0.2
v 0.7 1 -0.2
v 0.8 0.9 -0.2
v 0.8 1 -0.2
v -0.3 1.1 -0.3
v -0.3 1.4 -0.3
v -0.2 0.4 -0.3
v -0.2 1 -0.3
v -0.2 1.1 -0.3
v -0.2 1.4 -0.3
v -0.2 1.5 -0.3
v -0.1 1.4 -0.3
v -0.1 1.5 -0.3
v -0.1 1.6 -0.3
v 0.2 1.4 -0.3
v 0.2 1.5 -0.3
v 0.2 1.6 -0.3
v 0.3 0.4 -0.3
v 0.3 1 -0.3
v 0.3 1.1 -0.3
v 0.3 1.4 -0.3
v 0.3 1.5 -0.3
v 0.4 1.1 -0.3
v 0.4 1.4 -0.3
v -0.2 1.1 -0.4
v -0.2 1.4 -0.4
v -0.1 1.4 -0.4
v -0.1 1.5 -0.4
v 0.2 1.4 -0.4
v 0.2 1.5 -0.4
v 0.3 1.1 -0.4
v 0.3 1.4 -0.4
v -0.2 0 0.1
v 0 0 0.1
v 0.1 0 0.1
v 0.3 0 0.1
v -0.2 0 -0.2
v 0 0 -0.2
v 0.1 0 -0.2
v 0.3 0 -0.2
v -0.2 0.4 0.1
v 0 0.4 0.1
v 0.1 0.4 0.1
v 0.3 0.4 0.1
v -0.2 0.4 0
v 0 0.4 0
v 0.1 0.4 0
v 0.3 0.4 0
v 0 0.4 -0.1
v 0.1 0.4 -0.1
v -0.2 0.4 -0.2
v 0 0.4 -0.2
v 0.1 0.4 -0.2
v 0.3 0.4 -0.2
v -0.2 0.4 -0.3
v 0.3 0.4 -0.3
v -0.7 0.9 0
v -0.6 0.9 0
v -0.2 0.9 0
v 0.3 0.9 0
v 0.7 0.9 0
v 0.8 0.9 0
v -0.7 0.9 -0.2
v -0.6 0.9 -0.2
v -0.2 0.9 -0.2
v 0.3 0.9 -0.2
v 0.7 0.9 -0.2
v 0.8 0.9 -0.2
v -0.1 1 0.2
v 0.2 1 0.2
v -0.1 1 0.1
v 0 1 0.1
v 0.1 1 0.1
v 0.2 1 0.1
v 0 1 0
v 0.1 1 0
v -0.2 1.1 0.2
v -0.1 1.1 0.2
v 0.2 1.1 0.2
v 0.3 1.1 0.2
v -0.3 1.1 0
v -0.2 1.1 0
v -0.1 1.1 0
v 0.2 1.1 0
v 0.3 1.1 0
v 0.4 1.1 0
v -0.3 1.1 -0.3
v -0.2 1.1 -0.3
v 0.3 1.1 -0.3
v 0.4 1.1 -0.3
v -0.2 1.1 -0.4
v 0.3 1.1 -0.4
v -0.3 1.2 0.2
v -0.2 1.2 0.2
v 0.3 1.2 0.2
v 0.4 1.2 0.2
v -0.4 1.2 0.1
v -0.3 1.2 0.1
v -0.2 1.2 0.1
v 0.3 1.2 0.1
v 0.4 1.2 0.1
v 0.5 1.2 0.1
v -0.4 1.2 0
v -0.3 1.2 0
v -0.2 1.2 0
v 0.3 1.2 0
v 0.4 1.2 0
v 0.5 1.2 0
v -0.3 1.3 0.3
v -0.2 1.3 0.3
v 0.3 1.3 0.3
v 0.4 1.3 0.3
v -0.3 1.3 0.2
v -0.2 1.3 0.2
v 0.3 1.3 0.2
v 0.4 1.3 0.2
v -0.2 1.4 0.3
v -0.1 1.4 0.3
v 0 1.4 0.3
v 0.3 1.4 0.3
v -0.2 1.4 0.2
v -0.1 1.4 0.2
v 0 1.4 0.2
v 0.3 1.4 0.2
v -0.1 1.5 0.3
v 0 1.5 0.3
v -0.1 1.5 0.2
v 0 1.5 0.2
v -0.2 0.1 0.1
v 0 0.1 0.1
v 0.1 0.1 0.1
v 0.3 0.1 0.1
v -0.2 0.1 0
v 0 0.1 0
v 0.1 0.1 0
v 0.3 0.1 0
v -0.2 1 0.1
v -0.1 1 0.1
v 0.2 1 0.1
v 0.3 1 0.1
v -0.7 1 0
v -0.6 1 0
v -0.2 1 0
v -0.1 1 0
v 0.2 1 0
v 0.3 1 0
v 0.7 1 0
v 0.8 1 0
v -0.7 1 -0.2
v -0.6 1 -0.2
v -0.2 1 -0.2
v 0.3 1 -0.2
v 0.7 1 -0.2
v 0.8 1 -0.2
v -0.4 1.3 0.1
v -0.3 1.3 0.1
v 0.4 1.3 0.1
v 0.5 1.3 0.1
v -0.4 1.3 0
v -0.3 1.3 0
v 0.4 1.3 0
v 0.5 1.3 0
v -0.3 1.4 0.3
v -0.2 1.4 0.3
v 0.3 1.4 0.3
v 0.4 1.4 0.3
v -0.3 1.4 -0.3
v -0.2 1.4 -0.3
v -0.1 1.4 -0.3
v 0.2 1.4 -0.3
v 0.3 1.4 -0.3
v 0.4 1.4 -0.3
v -0.2 1.4 -0.4
v -0.1 1.4 -0.4
v 0.2 1.4 -0.4
v 0.3 1.4 -0.4
v -0.2 1.5 0.3
v -0.1 1.5 0.3
v 0 1.5 0.3
v 0.3 1.5 0.3
v 0 1.5 0.2
v 0.2 1.5 0.2
v -0.2 1.5 -0.3
v -0.1 1.5 -0.3
v 0.2 1.5 -0.3
v 0.3 1.5 -0.3
v -0.1 1.5 -0.4
v 0.2 1.5 -0.4
v -0.1 1.6 0.3
v 0 1.6 0.3
v 0 1.6 0.2
v 0.2 1.6 0.2
v -0.1 1.6 -0.3
v 0.2 1.6 -0.3

# faces
f 3/1/1 2/1/1 1/1/1
f 4/1/1 2/1/1 3/1/1
f 7/1/1 6/1/1 5/1/1
f 8/1/1 6/1/1 7/1/1
f 13/4/1 10/4/1 9/4/1
f 15/4/1 12/4/1 11/4/1
f 16/4/1 12/4/1 15/4/1
f 17/4/1 10/4/1 13/4/1
f 18/4/1 16/4/1 15/4/1
f 18/4/1 17/4/1 16/4/1
f 18/4/1 15/4/1 14/4/1
f 19/4/1 10/4/1 17/4/1
f 19/4/1 17/4/1 18/4/1
f 22/3/1 21/3/1 20/3/1
f 23/3/1 21/3/1 22/3/1
f 24/3/1 21/3/1 23/3/1
f 26/5/1 24/5/1 23/5/1
f 27/5/1 24/5/1 26/5/1
f 29/6/1 27/6/1 26/6/1
f 29/6/1 28/6/1 27/6/1
f 29/6/1 26/6/1 25/6/1
f 30/6/1 28/6/1 29/6/1
f 31/6/1 29/6/1 25/6/1
f 32/6/1 29/6/1 31/6/1
f 33/6/1 28/6/1 30/6/1
f 34/6/1 28/6/1 33/6/1
f 36/4/1 33/4/1 32/4/1
f 36/4/1 34/4/1 33/4/1
f 37/4/1 34/4/1 36/4/1
f 39/1/1 36/1/1 35/1/1
f 40/1/1 36/1/1 39/1/1
f 41/1/1 36/1/1 40/1/1
f 43/4/1 38/4/1 37/4/1
f 44/4/1 38/4/1 43/4/1
f 45/4/1 43/4/1 42/4/1
f 46/4/1 43/4/1 45/4/1
f 50/1/1 48/1/1 47/1/1
f 50/1/1 49/1/1 48/1/1
f 51/1/1 49/1/1 50/1/1
f 55/4/1 53/4/1 52/4/1
f 56/4/1 53/4/1 55/4/1
f 57/4/1 55/4/1 54/4/1
f 58/4/1 55/4/1 57/4/1
f 61/4/1 60/4/1 59/4/1
f 62/4/1 60/4/1 61/4/1
f 65/3/1 64/3/1 63/3/1
f 66/3/1 64/3/1 65/3/1
f 67/3/1 64/3/1 66/3/1
f 69/5/1 67/5/1 66/5/1
f 70/5/1 67/5/1 69/5/1
f 71/5/1 67/5/1 70/5/1
f 72/6/1 69/6/1 68/6/1
f 73/6/1 72/6/1 68/6/1
f 74/6/1 72/6/1 73/6/1
f 77/4/1 76/4/1 75/4/1
f 78/4/1 76/4/1 77/4/1
f 79/4/2 80/4/2 81/4/2
f 81/4/2 80/4/2 82/4/2
f 83/4/2 84/4/2 85/4/2
f 85/4/2 84/4/2 86/4/2
f 87/3/2 88/3/2 89/3/2
f 89/3/2 88/3/2 90/3/2
f 90/3/2 88/3/2 91/3/2
f 90/5/2 91/5/2 93/5/2
f 93/5/2 91/5/2 94/5/2
f 94/5/2 91/5/2 95/5/2
f 92/6/2 93/6/2 96/6/2
f 92/6/2 96/6/2 97/6/2
f 97/6/2 96/6/2 98/6/2
f 99/4/2 100/4/2 101/4/2
f 101/4/2 100/4/2 102/4/2
f 103/1/2 104/1/2 106/1/2
f 104/1/2 105/1/2 106/1/2
f 106/1/2 105/1/2 107/1/2
f 108/4/2 109/4/2 111/4/2
f 111/4/2 109/4/2 112/4/2
f 110/4/2 111/4/2 113/4/2
f 113/4/2 111/4/2 114/4/2
f 115/3/2 116/3/2 117/3/2
f 117/3/2 116/3/2 118/3/2
f 118/3/2 116/3/2 119/3/2
f 118/5/2 119/5/2 121/5/2
f 121/5/2 119/5/2 122/5/2
f 121/6/2 122/6/2 124/6/2
f 122/6/2 123/6/2 124/6/2
f 120/6/2 121/6/2 124/6/2
f 124/6/2 123/6/2 125/6/2
f 120/6/2 124/6/2 126/6/2
f 126/6/2 124/6/2 127/6/2
f 125/6/2 123/6/2 128/6/2
f 128/6/2 123/6/2 129/6/2
f 127/4/2 128/4/2 131/4/2
f 128/4/2 129/4/2 131/4/2
f 131/4/2 129/4/2 132/4/2
f 130/1/2 131/1/2 134/1/2
f 134/1/2 131/1/2 135/1/2
f 135/1/2 131/1/2 136/1/2
f 132/4/2 133/4/2 138/4/2
f 138/4/2 133/4/2 139/4/2
f 137/4/2 138/4/2 140/4/2
f 140/4/2 138/4/2 141/4/2
f 142/4/2 143/4/2 146/4/2
f 144/4/2 145/4/2 148/4/2
f 148/4/2 145/4/2 149/4/2
f 146/4/2 143/4/2 150/4/2
f 148/4/2 149/4/2 151/4/2
f 149/4/2 150/4/2 151/4/2
f 147/4/2 148/4/2 151/4/2
f 150/4/2 143/4/2 152/4/2
f 151/4/2 150/4/2 152/4/2
f 153/1/2 154/1/2 155/1/2
f 155/1/2 154/1/2 156/1/2
f 157/1/2 158/1/2 159/1/2
f 159/1/2 158/1/2 160/1/2
f 163/4/3 162/4/3 161/4/3
f 164/4/3 162/4/3 163/4/3
f 166/4/3 165/4/3 164/4/3
f 167/4/3 165/4/3 166/4/3
f 170/4/3 168/4/3 167/4/3
f 171/4/3 168/4/3 170/4/3
f 173/4/3 170/4/3 169/4/3
f 174/4/3 170/4/3 173/4/3
f 175/4/3 173/4/3 172/4/3
f 176/4/3 173/4/3 175/4/3
f 180/4/3 178/4/3 177/4/3
f 181/4/3 178/4/3 180/4/3
f 184/1/3 180/1/3 179/1/3
f 185/4/3 181/4/3 180/4/3
f 185/1/3 180/1/3 184/1/3
f 186/1/3 182/1/3 181/1/3
f 188/1/3 184/1/3 183/1/3
f 188/8/3 185/8/3 184/8/3
f 189/4/3 181/4/3 185/4/3
f 189/8/3 185/8/3 188/8/3
f 190/1/3 187/1/3 186/1/3
f 190/4/3 181/4/3 189/4/3
f 190/1/3 186/1/3 181/1/3
f 191/1/3 187/1/3 190/1/3
f 192/1/3 187/1/3 191/1/3
f 194/1/3 188/1/3 183/1/3
f 194/1/3 189/1/3 188/1/3
f 194/1/3 191/1/3 190/1/3
f 194/1/3 190/1/3 189/1/3
f 195/1/3 191/1/3 194/1/3
f 196/1/3 191/1/3 195/1/3
f 197/1/3 194/1/3 183/1/3
f 198/8/3 195/8/3 194/8/3
f 198/1/3 194/1/3 197/1/3
f 199/4/3 196/4/3 195/4/3
f 199/8/3 195/8/3 198/8/3
f 200/4/3 193/4/3 192/4/3
f 201/4/3 193/4/3 200/4/3
f 202/1/3 199/1/3 198/1/3
f 203/4/3 196/4/3 199/4/3
f 203/1/3 199/1/3 202/1/3
f 204/1/3 191/1/3 196/1/3
f 204/4/3 196/4/3 203/4/3
f 205/1/3 191/1/3 204/1/3
f 206/4/3 204/4/3 203/4/3
f 207/4/3 204/4/3 206/4/3
f 210/1/3 209/1/3 208/1/3
f 211/1/3 209/1/3 210/1/3
f 216/6/3 215/6/3 214/6/3
f 217/3/3 213/3/3 212/3/3
f 218/3/3 213/3/3 217/3/3
f 219/6/3 216/6/3 214/6/3
f 220/6/3 216/6/3 219/6/3
f 225/6/3 224/6/3 223/6/3
f 226/3/3 222/3/3 221/3/3
f 227/3/3 222/3/3 226/3/3
f 228/6/3 225/6/3 223/6/3
f 229/6/3 225/6/3 228/6/3
f 232/1/3 231/1/3 230/1/3
f 233/1/3 231/1/3 232/1/3
f 236/1/3 235/1/3 234/1/3
f 237/1/3 235/1/3 236/1/3
f 242/7/3 237/7/3 236/7/3
f 243/7/3 237/7/3 242/7/3
f 244/4/3 239/4/3 238/4/3
f 245/4/3 239/4/3 244/4/3
f 246/4/3 244/4/3 243/4/3
f 247/4/3 244/4/3 246/4/3
f 248/5/3 241/5/3 240/5/3
f 249/5/3 241/5/3 248/5/3
f 253/7/3 250/7/3 249/7/3
f 254/1/3 251/1/3 250/1/3
f 254/7/3 250/7/3 253/7/3
f 255/1/3 251/1/3 254/1/3
f 258/5/3 253/5/3 252/5/3
f 259/5/3 253/5/3 258/5/3
f 261/4/3 257/4/3 256/4/3
f 262/4/3 257/4/3 261/4/3
f 264/4/3 263/4/3 262/4/3
f 265/4/3 263/4/3 264/4/3
f 266/7/3 261/7/3 260/7/3
f 267/7/3 261/7/3 266/7/3
f 268/1/3 267/1/3 266/1/3
f 269/1/3 267/1/3 268/1/3
f 270/1/4 271/1/4 272/1/4
f 272/1/4 271/1/4 273/1/4
f 274/1/4 275/1/4 276/1/4
f 276/1/4 275/1/4 277/1/4
f 278/1/4 279/1/4 280/1/4
f 280/1/4 279/1/4 281/1/4
f 280/7/4 281/7/4 285/7/4
f 285/7/4 281/7/4 286/7/4
f 282/3/4 283/3/4 287/3/4
f 283/5/4 284/5/4 288/5/4
f 287/3/4 283/3/4 288/3/4
f 288/5/4 284/5/4 289/5/4
f 290/3/4 291/3/4 293/3/4
f 291/5/4 292/5/4 294/5/4
f 293/3/4 291/3/4 294/3/4
f 294/5/4 292/5/4 295/5/4
f 296/7/4 297/7/4 298/7/4
f 298/7/4 297/7/4 299/7/4
f 298/1/4 299/1/4 300/1/4
f 300/1/4 299/1/4 301/1/4
f 302/4/4 303/4/4 306/4/4
f 306/4/4 303/4/4 307/4/4
f 307/4/4 308/4/4 309/4/4
f 309/4/4 308/4/4 310/4/4
f 310/4/4 311/4/4 313/4/4
f 313/4/4 311/4/4 314/4/4
f 304/6/4 305/6/4 315/6/4
f 305/4/4 306/4/4 316/4/4
f 315/6/4 305/6/4 316/6/4
f 316/4/4 306/4/4 317/4/4
f 312/4/4 313/4/4 318/4/4
f 318/4/4 313/4/4 319/4/4
f 317/4/4 318/4/4 320/4/4
f 320/4/4 318/4/4 321/4/4
f 322/4/4 323/4/4 324/4/4
f 322/4/4 324/4/4 326/4/4
f 324/4/4 325/4/4 326/4/4
f 326/4/4 325/4/4 327/4/4
f 322/4/4 326/4/4 328/4/4
f 328/4/4 326/4/4 329/4/4
f 334/3/5 331/3/5 330/3/5
f 335/3/5 331/3/5 334/3/5
f 336/3/5 333/3/5 332/3/5
f 337/3/5 333/3/5 336/3/5
f 342/6/5 339/6/5 338/6/5
f 343/6/5 339/6/5 342/6/5
f 344/6/5 341/6/5 340/6/5
f 345/6/5 341/6/5 344/6/5
f 346/7/5 344/7/5 343/7/5
f 347/7/5 344/7/5 346/7/5
f 349/6/5 347/6/5 346/6/5
f 350/6/5 347/6/5 349/6/5
f 352/6/5 350/6/5 349/6/5
f 352/6/5 351/6/5 350/6/5
f 352/6/5 349/6/5 348/6/5
f 353/6/5 351/6/5 352/6/5
f 360/1/5 355/1/5 354/1/5
f 361/7/5 356/7/5 355/7/5
f 361/1/5 355/1/5 360/1/5
f 362/7/5 356/7/5 361/7/5
f 363/7/5 358/7/5 357/7/5
f 364/1/5 359/1/5 358/1/5
f 364/7/5 358/7/5 363/7/5
f 365/1/5 359/1/5 364/1/5
f 368/1/5 367/1/5 366/1/5
f 369/1/5 367/1/5 368/1/5
f 370/1/5 367/1/5 369/1/5
f 371/1/5 367/1/5 370/1/5
f 372/1/5 370/1/5 369/1/5
f 373/1/5 370/1/5 372/1/5
f 379/1/5 375/1/5 374/1/5
f 380/1/5 375/1/5 379/1/5
f 381/1/5 377/1/5 376/1/5
f 382/1/5 377/1/5 381/1/5
f 384/4/5 379/4/5 378/4/5
f 385/4/5 379/4/5 384/4/5
f 386/4/5 383/4/5 382/4/5
f 387/4/5 383/4/5 386/4/5
f 388/4/5 386/4/5 385/4/5
f 389/4/5 386/4/5 388/4/5
f 395/4/5 391/4/5 390/4/5
f 396/4/5 391/4/5 395/4/5
f 397/4/5 393/4/5 392/4/5
f 398/4/5 393/4/5 397/4/5
f 400/1/5 396/1/5 395/1/5
f 400/1/5 395/1/5 394/1/5
f 401/1/5 396/1/5 400/1/5
f 402/1/5 396/1/5 401/1/5
f 403/1/5 399/1/5 398/1/5
f 403/1/5 398/1/5 397/1/5
f 404/1/5 399/1/5 403/1/5
f 405/1/5 399/1/5 404/1/5
f 410/4/5 407/4/5 406/4/5
f 411/4/5 407/4/5 410/4/5
f 412/4/5 409/4/5 408/4/5
f 413/4/5 409/4/5 412/4/5
f 418/4/5 415/4/5 414/4/5
f 419/4/5 415/4/5 418/4/5
f 420/4/5 417/4/5 416/4/5
f 421/4/5 417/4/5 420/4/5
f 424/4/5 423/4/5 422/4/5
f 425/4/5 423/4/5 424/4/5
f 426/3/6 427/3/6 430/3/6
f 430/3/6 427/3/6 431/3/6
f 428/3/6 429/3/6 432/3/6
f 432/3/6 429/3/6 433/3/6
f 434/6/6 435/6/6 440/6/6
f 440/6/6 435/6/6 441/6/6
f 436/6/6 437/6/6 442/6/6
f 442/6/6 437/6/6 443/6/6
f 438/1/6 439/1/6 446/1/6
f 439/7/6 440/7/6 447/7/6
f 446/1/6 439/1/6 447/1/6
f 447/7/6 440/7/6 448/7/6
f 443/7/6 444/7/6 449/7/6
f 444/1/6 445/1/6 450/1/6
f 449/7/6 444/7/6 450/7/6
f 450/1/6 445/1/6 451/1/6
f 452/1/6 453/1/6 456/1/6
f 456/1/6 453/1/6 457/1/6
f 454/1/6 455/1/6 458/1/6
f 458/1/6 455/1/6 459/1/6
f 460/4/6 461/4/6 464/4/6
f 464/4/6 461/4/6 465/4/6
f 462/4/6 463/4/6 468/4/6
f 468/4/6 463/4/6 469/4/6
f 465/4/6 466/4/6 470/4/6
f 470/4/6 466/4/6 471/4/6
f 467/4/6 468/4/6 472/4/6
f 472/4/6 468/4/6 473/4/6
f 476/4/6 477/4/6 478/4/6
f 478/4/6 477/4/6 479/4/6
f 474/4/6 475/4/6 480/4/6
f 480/4/6 475/4/6 481/4/6
f 479/4/6 477/4/6 482/4/6
f 482/4/6 477/4/6 483/4/6
f 481/4/6 482/4/6 484/4/6
f 484/4/6 482/4/6 485/4/6
f 486/4/6 487/4/6 488/4/6
f 486/4/6 488/4/6 490/4/6
f 488/4/6 489/4/6 490/4/6
f 490/4/6 489/4/6 491/4/6
