# MagicaVoxel @ Ephtracy

# group
o 

# material
mtllib persona3.vox.mtl
usemtl palette

# normals
vn -1 0 0
vn 1 0 0
vn 0 0 1
vn 0 0 -1
vn 0 -1 0
vn 0 1 0

# texcoords
vt 0.130859 0.5
vt 0.142578 0.5
vt 0.267578 0.5
vt 0.541016 0.5
vt 0.544922 0.5
vt 0.970703 0.5
vt 0.986328 0.5
vt 0.990234 0.5

# verts
v -0.7 0.9 0
v -0.7 0.9 -0.2
v -0.7 1 0
v -0.7 1 -0.2
v -0.4 1.2 0.1
v -0.4 1.2 0
v -0.4 1.3 0.1
v -0.4 1.3 0
v -0.3 0.9 0.2
v -0.3 0.9 0.1
v -0.3 0.9 -0.2
v -0.3 0.9 -0.3
v -0.3 1 0
v -0.3 1 -0.2
v -0.3 1.1 0.1
v -0.3 1.1 0
v -0.3 1.2 0.3
v -0.3 1.2 0.2
v -0.3 1.2 0.1
v -0.3 1.2 0
v -0.3 1.3 0.1
v -0.3 1.3 0
v -0.3 1.4 0.2
v -0.3 1.4 -0.3
v -0.3 1.5 0.3
v -0.3 1.5 0.2
v -0.2 0 0.1
v -0.2 0 -0.2
v -0.2 0.1 0.1
v -0.2 0.1 0
v -0.2 0.1 -0.2
v -0.2 0.5 0.1
v -0.2 0.5 0
v -0.2 0.5 -0.2
v -0.2 0.5 -0.3
v -0.2 0.8 -0.3
v -0.2 0.8 -0.4
v -0.2 0.9 0.1
v -0.2 0.9 0
v -0.2 0.9 -0.2
v -0.2 0.9 -0.3
v -0.2 1 0.1
v -0.2 1 0
v -0.2 1.4 0.2
v -0.2 1.4 -0.3
v -0.2 1.4 -0.4
v -0.2 1.5 0.3
v -0.2 1.5 0.2
v -0.2 1.5 -0.3
v -0.2 1.6 0.3
v -0.2 1.6 0.2
v -0.1 1 0.2
v -0.1 1 0.1
v -0.1 1 0
v -0.1 1.1 0.2
v -0.1 1.1 0
v -0.1 1.4 -0.3
v -0.1 1.4 -0.4
v -0.1 1.5 0.2
v -0.1 1.5 -0.3
v -0.1 1.5 -0.4
v -0.1 1.6 0.2
v -0.1 1.6 -0.3
v 0 1.4 0.3
v 0 1.4 0.2
v 0 1.5 0.3
v 0 1.5 0.2
v 0.1 0 0.1
v 0.1 0 -0.2
v 0.1 0.1 0.1
v 0.1 0.1 0
v 0.1 0.1 -0.2
v 0.1 0.4 0
v 0.1 0.4 -0.2
v 0.1 0.5 0.1
v 0.1 0.5 0
v 0.1 0.9 0
v 0.1 1 0.1
v 0.1 1 0
v 0.1 1.5 0.3
v 0.1 1.5 0.2
v 0.1 1.6 0.3
v 0.1 1.6 0.2
v 0.2 1.4 0.3
v 0.2 1.4 0.2
v 0.2 1.5 0.3
v 0.2 1.5 0.2
v 0.3 0.9 0.2
v 0.3 0.9 0.1
v 0.3 1 0.1
v 0.3 1.1 0.2
v 0.3 1.1 0.1
v 0.3 1.2 0.3
v 0.3 1.2 0.2
v 0.3 1.3 0.2
v 0.3 1.4 0.3
v 0.3 1.4 0.2
v -0.2 0.9 0.2
v -0.2 0.9 0.1
v -0.2 1 0.1
v -0.2 1.1 0.2
v -0.2 1.1 0.1
v -0.2 1.2 0.3
v -0.2 1.2 0.2
v -0.2 1.3 0.2
v -0.2 1.4 0.3
v -0.2 1.4 0.2
v -0.1 1.4 0.3
v -0.1 1.4 0.2
v -0.1 1.5 0.3
v -0.1 1.5 0.2
v 0 0 0.1
v 0 0 -0.2
v 0 0.1 0.1
v 0 0.1 0
v 0 0.1 -0.2
v 0 0.4 0
v 0 0.4 -0.2
v 0 0.5 0.1
v 0 0.5 0
v 0 0.9 0
v 0 1 0.1
v 0 1 0
v 0 1.5 0.3
v 0 1.5 0.2
v 0 1.6 0.3
v 0 1.6 0.2
v 0.1 1.4 0.3
v 0.1 1.4 0.2
v 0.1 1.5 0.3
v 0.1 1.5 0.2
v 0.2 1 0.2
v 0.2 1 0.1
v 0.2 1 0
v 0.2 1.1 0.2
v 0.2 1.1 0
v 0.2 1.4 -0.3
v 0.2 1.4 -0.4
v 0.2 1.5 0.2
v 0.2 1.5 -0.3
v 0.2 1.5 -0.4
v 0.2 1.6 0.2
v 0.2 1.6 -0.3
v 0.3 0 0.1
v 0.3 0 -0.2
v 0.3 0.1 0.1
v 0.3 0.1 0
v 0.3 0.1 -0.2
v 0.3 0.5 0.1
v 0.3 0.5 0
v 0.3 0.5 -0.2
v 0.3 0.5 -0.3
v 0.3 0.8 -0.3
v 0.3 0.8 -0.4
v 0.3 0.9 0.1
v 0.3 0.9 0
v 0.3 0.9 -0.2
v 0.3 0.9 -0.3
v 0.3 1 0.1
v 0.3 1 0
v 0.3 1.4 0.2
v 0.3 1.4 -0.3
v 0.3 1.4 -0.4
v 0.3 1.5 0.3
v 0.3 1.5 0.2
v 0.3 1.5 -0.3
v 0.3 1.6 0.3
v 0.3 1.6 0.2
v 0.4 0.9 0.2
v 0.4 0.9 0.1
v 0.4 0.9 -0.2
v 0.4 0.9 -0.3
v 0.4 1 0
v 0.4 1 -0.2
v 0.4 1.1 0.1
v 0.4 1.1 0
v 0.4 1.2 0.3
v 0.4 1.2 0.2
v 0.4 1.2 0.1
v 0.4 1.2 0
v 0.4 1.3 0.1
v 0.4 1.3 0
v 0.4 1.4 0.2
v 0.4 1.4 -0.3
v 0.4 1.5 0.3
v 0.4 1.5 0.2
v 0.5 1.2 0.1
v 0.5 1.2 0
v 0.5 1.3 0.1
v 0.5 1.3 0
v 0.8 0.9 0
v 0.8 0.9 -0.2
v 0.8 1 0
v 0.8 1 -0.2
v -0.3 1.2 0.3
v -0.3 1.5 0.3
v -0.2 1.2 0.3
v -0.2 1.4 0.3
v -0.2 1.5 0.3
v -0.2 1.6 0.3
v -0.1 1.4 0.3
v -0.1 1.5 0.3
v 0 1.4 0.3
v 0 1.5 0.3
v 0 1.6 0.3
v 0.1 1.4 0.3
v 0.1 1.5 0.3
v 0.1 1.6 0.3
v 0.2 1.4 0.3
v 0.2 1.5 0.3
v 0.3 1.2 0.3
v 0.3 1.4 0.3
v 0.3 1.5 0.3
v 0.3 1.6 0.3
v 0.4 1.2 0.3
v 0.4 1.5 0.3
v -0.3 0.9 0.2
v -0.3 1.2 0.2
v -0.2 0.9 0.2
v -0.2 1.1 0.2
v -0.2 1.2 0.2
v -0.2 1.3 0.2
v -0.2 1.4 0.2
v -0.1 1 0.2
v -0.1 1.1 0.2
v -0.1 1.2 0.2
v -0.1 1.4 0.2
v -0.1 1.5 0.2
v 0 1.1 0.2
v 0 1.2 0.2
v 0 1.3 0.2
v 0 1.4 0.2
v 0 1.5 0.2
v 0 1.6 0.2
v 0.1 1.1 0.2
v 0.1 1.2 0.2
v 0.1 1.3 0.2
v 0.1 1.4 0.2
v 0.1 1.5 0.2
v 0.1 1.6 0.2
v 0.2 1 0.2
v 0.2 1.1 0.2
v 0.2 1.2 0.2
v 0.2 1.4 0.2
v 0.2 1.5 0.2
v 0.3 0.9 0.2
v 0.3 1.1 0.2
v 0.3 1.2 0.2
v 0.3 1.3 0.2
v 0.3 1.4 0.2
v 0.4 0.9 0.2
v 0.4 1.2 0.2
v -0.4 1.2 0.1
v -0.4 1.3 0.1
v -0.3 1.2 0.1
v -0.3 1.3 0.1
v -0.2 0 0.1
v -0.2 0.1 0.1
v -0.2 0.5 0.1
v -0.2 0.9 0.1
v -0.2 1 0.1
v -0.1 1 0.1
v 0 0 0.1
v 0 0.1 0.1
v 0 0.5 0.1
v 0 1 0.1
v 0.1 0 0.1
v 0.1 0.1 0.1
v 0.1 0.5 0.1
v 0.1 1 0.1
v 0.2 1 0.1
v 0.3 0 0.1
v 0.3 0.1 0.1
v 0.3 0.5 0.1
v 0.3 0.9 0.1
v 0.3 1 0.1
v 0.4 1.2 0.1
v 0.4 1.3 0.1
v 0.5 1.2 0.1
v 0.5 1.3 0.1
v -0.7 0.9 0
v -0.7 1 0
v -0.6 0.9 0
v -0.6 1 0
v -0.3 1 0
v -0.3 1.1 0
v -0.2 0.1 0
v -0.2 0.5 0
v -0.2 0.9 0
v -0.2 1 0
v -0.1 1 0
v -0.1 1.1 0
v 0 0.1 0
v 0 0.4 0
v 0 0.5 0
v 0 0.9 0
v 0 1 0
v 0.1 0.1 0
v 0.1 0.4 0
v 0.1 0.5 0
v 0.1 0.9 0
v 0.1 1 0
v 0.2 1 0
v 0.2 1.1 0
v 0.3 0.1 0
v 0.3 0.5 0
v 0.3 0.9 0
v 0.3 1 0
v 0.4 1 0
v 0.4 1.1 0
v 0.7 0.9 0
v 0.7 1 0
v 0.8 0.9 0
v 0.8 1 0
v -0.3 1.4 0.2
v -0.3 1.5 0.2
v -0.2 1.4 0.2
v -0.2 1.5 0.2
v -0.2 1.6 0.2
v -0.1 1.5 0.2
v -0.1 1.6 0.2
v 0.2 1.5 0.2
v 0.2 1.6 0.2
v 0.3 1.4 0.2
v 0.3 1.5 0.2
v 0.3 1.6 0.2
v 0.4 1.4 0.2
v 0.4 1.5 0.2
v -0.3 0.9 0.1
v -0.3 1.1 0.1
v -0.2 0.9 0.1
v -0.2 1 0.1
v -0.2 1.1 0.1
v 0.3 0.9 0.1
v 0.3 1 0.1
v 0.3 1.1 0.1
v 0.4 0.9 0.1
v 0.4 1.1 0.1
v -0.4 1.2 0
v -0.4 1.3 0
v -0.3 1.2 0
v -0.3 1.3 0
v 0.4 1.2 0
v 0.4 1.3 0
v 0.5 1.2 0
v 0.5 1.3 0
v -0.7 0.9 -0.2
v -0.7 1 -0.2
v -0.6 0.9 -0.2
v -0.6 1 -0.2
v -0.3 0.9 -0.2
v -0.3 1 -0.2
v -0.2 0 -0.2
v -0.2 0.1 -0.2
v -0.2 0.5 -0.2
v 0 0 -0.2
v 0 0.1 -0.2
v 0 0.4 -0.2
v 0.1 0 -0.2
v 0.1 0.1 -0.2
v 0.1 0.4 -0.2
v 0.3 0 -0.2
v 0.3 0.1 -0.2
v 0.3 0.5 -0.2
v 0.4 0.9 -0.2
v 0.4 1 -0.2
v 0.7 0.9 -0.2
v 0.7 1 -0.2
v 0.8 0.9 -0.2
v 0.8 1 -0.2
v -0.3 0.9 -0.3
v -0.3 1.4 -0.3
v -0.2 0.5 -0.3
v -0.2 0.8 -0.3
v -0.2 0.9 -0.3
v -0.2 1.4 -0.3
v -0.2 1.5 -0.3
v -0.1 1.4 -0.3
v -0.1 1.5 -0.3
v -0.1 1.6 -0.3
v 0.2 1.4 -0.3
v 0.2 1.5 -0.3
v 0.2 1.6 -0.3
v 0.3 0.5 -0.3
v 0.3 0.8 -0.3
v 0.3 0.9 -0.3
v 0.3 1.4 -0.3
v 0.3 1.5 -0.3
v 0.4 0.9 -0.3
v 0.4 1.4 -0.3
v -0.2 0.8 -0.4
v -0.2 1.4 -0.4
v -0.1 1.4 -0.4
v -0.1 1.5 -0.4
v 0.2 1.4 -0.4
v 0.2 1.5 -0.4
v 0.3 0.8 -0.4
v 0.3 1.4 -0.4
v -0.2 0 0.1
v 0 0 0.1
v 0.1 0 0.1
v 0.3 0 0.1
v -0.2 0 -0.2
v 0 0 -0.2
v 0.1 0 -0.2
v 0.3 0 -0.2
v 0 0.4 0
v 0.1 0.4 0
v 0 0.4 -0.2
v 0.1 0.4 -0.2
v -0.2 0.5 0.1
v 0 0.5 0.1
v 0.1 0.5 0.1
v 0.3 0.5 0.1
v -0.2 0.5 0
v 0 0.5 0
v 0.1 0.5 0
v 0.3 0.5 0
v -0.2 0.5 -0.2
v 0.3 0.5 -0.2
v -0.2 0.5 -0.3
v 0.3 0.5 -0.3
v -0.2 0.8 -0.3
v 0.3 0.8 -0.3
v -0.2 0.8 -0.4
v 0.3 0.8 -0.4
v -0.3 0.9 0.2
v -0.2 0.9 0.2
v 0.3 0.9 0.2
v 0.4 0.9 0.2
v -0.3 0.9 0.1
v -0.2 0.9 0.1
v 0.3 0.9 0.1
v 0.4 0.9 0.1
v -0.7 0.9 0
v -0.6 0.9 0
v -0.2 0.9 0
v 0.3 0.9 0
v 0.7 0.9 0
v 0.8 0.9 0
v -0.7 0.9 -0.2
v -0.6 0.9 -0.2
v -0.3 0.9 -0.2
v -0.2 0.9 -0.2
v 0.3 0.9 -0.2
v 0.4 0.9 -0.2
v 0.7 0.9 -0.2
v 0.8 0.9 -0.2
v -0.3 0.9 -0.3
v -0.2 0.9 -0.3
v 0.3 0.9 -0.3
v 0.4 0.9 -0.3
v -0.1 1 0.2
v 0.2 1 0.2
v -0.1 1 0.1
v 0 1 0.1
v 0.1 1 0.1
v 0.2 1 0.1
v 0 1 0
v 0.1 1 0
v -0.2 1.1 0.2
v -0.1 1.1 0.2
v 0.2 1.1 0.2
v 0.3 1.1 0.2
v -0.3 1.1 0.1
v -0.2 1.1 0.1
v 0.3 1.1 0.1
v 0.4 1.1 0.1
v -0.3 1.1 0
v -0.1 1.1 0
v 0.2 1.1 0
v 0.4 1.1 0
v -0.3 1.2 0.3
v -0.2 1.2 0.3
v 0.3 1.2 0.3
v 0.4 1.2 0.3
v -0.3 1.2 0.2
v -0.2 1.2 0.2
v 0.3 1.2 0.2
v 0.4 1.2 0.2
v -0.4 1.2 0.1
v -0.3 1.2 0.1
v 0.4 1.2 0.1
v 0.5 1.2 0.1
v -0.4 1.2 0
v -0.3 1.2 0
v 0.4 1.2 0
v 0.5 1.2 0
v -0.2 1.4 0.3
v -0.1 1.4 0.3
v 0 1.4 0.3
v 0.1 1.4 0.3
v 0.2 1.4 0.3
v 0.3 1.4 0.3
v -0.2 1.4 0.2
v -0.1 1.4 0.2
v 0 1.4 0.2
v 0.1 1.4 0.2
v 0.2 1.4 0.2
v 0.3 1.4 0.2
v -0.1 1.5 0.3
v 0 1.5 0.3
v 0.1 1.5 0.3
v 0.2 1.5 0.3
v -0.1 1.5 0.2
v 0 1.5 0.2
v 0.1 1.5 0.2
v 0.2 1.5 0.2
v -0.2 0.1 0.1
v 0 0.1 0.1
v 0.1 0.1 0.1
v 0.3 0.1 0.1
v -0.2 0.1 0
v 0 0.1 0
v 0.1 0.1 0
v 0.3 0.1 0
v -0.2 1 0.1
v -0.1 1 0.1
v 0.2 1 0.1
v 0.3 1 0.1
v -0.7 1 0
v -0.6 1 0
v -0.3 1 0
v -0.2 1 0
v -0.1 1 0
v 0.2 1 0
v 0.3 1 0
v 0.4 1 0
v 0.7 1 0
v 0.8 1 0
v -0.7 1 -0.2
v -0.6 1 -0.2
v -0.3 1 -0.2
v 0.4 1 -0.2
v 0.7 1 -0.2
v 0.8 1 -0.2
v -0.4 1.3 0.1
v -0.3 1.3 0.1
v 0.4 1.3 0.1
v 0.5 1.3 0.1
v -0.4 1.3 0
v -0.3 1.3 0
v 0.4 1.3 0
v 0.5 1.3 0
v -0.3 1.4 0.2
v -0.2 1.4 0.2
v 0.3 1.4 0.2
v 0.4 1.4 0.2
v -0.3 1.4 -0.3
v -0.2 1.4 -0.3
v -0.1 1.4 -0.3
v 0.2 1.4 -0.3
v 0.3 1.4 -0.3
v 0.4 1.4 -0.3
v -0.2 1.4 -0.4
v -0.1 1.4 -0.4
v 0.2 1.4 -0.4
v 0.3 1.4 -0.4
v -0.3 1.5 0.3
v -0.2 1.5 0.3
v 0 1.5 0.3
v 0.1 1.5 0.3
v 0.3 1.5 0.3
v 0.4 1.5 0.3
v -0.3 1.5 0.2
v -0.2 1.5 0.2
v -0.1 1.5 0.2
v 0 1.5 0.2
v 0.1 1.5 0.2
v 0.2 1.5 0.2
v 0.3 1.5 0.2
v 0.4 1.5 0.2
v -0.2 1.5 -0.3
v -0.1 1.5 -0.3
v 0.2 1.5 -0.3
v 0.3 1.5 -0.3
v -0.1 1.5 -0.4
v 0.2 1.5 -0.4
v -0.2 1.6 0.3
v 0 1.6 0.3
v 0.1 1.6 0.3
v 0.3 1.6 0.3
v -0.2 1.6 0.2
v -0.1 1.6 0.2
v 0 1.6 0.2
v 0.1 1.6 0.2
v 0.2 1.6 0.2
v 0.3 1.6 0.2
v -0.1 1.6 -0.3
v 0.2 1.6 -0.3

# faces
f 3/1/1 2/1/1 1/1/1
f 4/1/1 2/1/1 3/1/1
f 7/1/1 6/1/1 5/1/1
f 8/1/1 6/1/1 7/1/1
f 14/3/1 12/3/1 11/3/1
f 15/3/1 10/3/1 9/3/1
f 16/3/1 14/3/1 13/3/1
f 18/3/1 15/3/1 9/3/1
f 19/1/1 16/1/1 15/1/1
f 19/3/1 15/3/1 18/3/1
f 20/3/1 14/3/1 16/3/1
f 20/1/1 16/1/1 19/1/1
f 21/3/1 18/3/1 17/3/1
f 21/3/1 19/3/1 18/3/1
f 22/3/1 14/3/1 20/3/1
f 23/3/1 21/3/1 17/3/1
f 23/3/1 22/3/1 21/3/1
f 24/3/1 14/3/1 22/3/1
f 24/3/1 22/3/1 23/3/1
f 24/3/1 12/3/1 14/3/1
f 25/3/1 23/3/1 17/3/1
f 26/3/1 23/3/1 25/3/1
f 29/8/1 28/8/1 27/8/1
f 30/8/1 28/8/1 29/8/1
f 31/8/1 28/8/1 30/8/1
f 33/6/1 31/6/1 30/6/1
f 34/6/1 31/6/1 33/6/1
f 36/5/1 34/5/1 33/5/1
f 36/5/1 35/5/1 34/5/1
f 36/5/1 33/5/1 32/5/1
f 38/5/1 36/5/1 32/5/1
f 39/5/1 36/5/1 38/5/1
f 40/5/1 36/5/1 39/5/1
f 41/3/1 37/3/1 36/3/1
f 41/5/1 36/5/1 40/5/1
f 42/5/1 39/5/1 38/5/1
f 43/5/1 39/5/1 42/5/1
f 45/3/1 37/3/1 41/3/1
f 46/3/1 37/3/1 45/3/1
f 48/3/1 45/3/1 44/3/1
f 49/3/1 45/3/1 48/3/1
f 50/3/1 48/3/1 47/3/1
f 51/3/1 48/3/1 50/3/1
f 55/1/1 53/1/1 52/1/1
f 55/1/1 54/1/1 53/1/1
f 56/1/1 54/1/1 55/1/1
f 60/3/1 58/3/1 57/3/1
f 61/3/1 58/3/1 60/3/1
f 62/3/1 60/3/1 59/3/1
f 63/3/1 60/3/1 62/3/1
f 66/3/1 65/3/1 64/3/1
f 67/3/1 65/3/1 66/3/1
f 70/8/1 69/8/1 68/8/1
f 71/8/1 69/8/1 70/8/1
f 72/8/1 69/8/1 71/8/1
f 73/6/1 72/6/1 71/6/1
f 74/6/1 72/6/1 73/6/1
f 77/5/1 76/5/1 75/5/1
f 78/5/1 77/5/1 75/5/1
f 79/5/1 77/5/1 78/5/1
f 82/3/1 81/3/1 80/3/1
f 83/3/1 81/3/1 82/3/1
f 86/3/1 85/3/1 84/3/1
f 87/3/1 85/3/1 86/3/1
f 90/3/1 89/3/1 88/3/1
f 91/3/1 90/3/1 88/3/1
f 92/3/1 90/3/1 91/3/1
f 95/3/1 94/3/1 93/3/1
f 96/3/1 95/3/1 93/3/1
f 97/3/1 95/3/1 96/3/1
f 98/3/2 99/3/2 100/3/2
f 98/3/2 100/3/2 101/3/2
f 101/3/2 100/3/2 102/3/2
f 103/3/2 104/3/2 105/3/2
f 103/3/2 105/3/2 106/3/2
f 106/3/2 105/3/2 107/3/2
f 108/3/2 109/3/2 110/3/2
f 110/3/2 109/3/2 111/3/2
f 112/8/2 113/8/2 114/8/2
f 114/8/2 113/8/2 115/8/2
f 115/8/2 113/8/2 116/8/2
f 115/6/2 116/6/2 117/6/2
f 117/6/2 116/6/2 118/6/2
f 119/5/2 120/5/2 121/5/2
f 119/5/2 121/5/2 122/5/2
f 122/5/2 121/5/2 123/5/2
f 124/3/2 125/3/2 126/3/2
f 126/3/2 125/3/2 127/3/2
f 128/3/2 129/3/2 130/3/2
f 130/3/2 129/3/2 131/3/2
f 132/1/2 133/1/2 135/1/2
f 133/1/2 134/1/2 135/1/2
f 135/1/2 134/1/2 136/1/2
f 137/3/2 138/3/2 140/3/2
f 140/3/2 138/3/2 141/3/2
f 139/3/2 140/3/2 142/3/2
f 142/3/2 140/3/2 143/3/2
f 144/8/2 145/8/2 146/8/2
f 146/8/2 145/8/2 147/8/2
f 147/8/2 145/8/2 148/8/2
f 147/6/2 148/6/2 150/6/2
f 150/6/2 148/6/2 151/6/2
f 150/5/2 151/5/2 153/5/2
f 151/5/2 152/5/2 153/5/2
f 149/5/2 150/5/2 153/5/2
f 149/5/2 153/5/2 155/5/2
f 155/5/2 153/5/2 156/5/2
f 156/5/2 153/5/2 157/5/2
f 153/3/2 154/3/2 158/3/2
f 157/5/2 153/5/2 158/5/2
f 155/5/2 156/5/2 159/5/2
f 159/5/2 156/5/2 160/5/2
f 158/3/2 154/3/2 162/3/2
f 162/3/2 154/3/2 163/3/2
f 161/3/2 162/3/2 165/3/2
f 165/3/2 162/3/2 166/3/2
f 164/3/2 165/3/2 167/3/2
f 167/3/2 165/3/2 168/3/2
f 171/3/2 172/3/2 174/3/2
f 169/3/2 170/3/2 175/3/2
f 173/3/2 174/3/2 176/3/2
f 169/3/2 175/3/2 178/3/2
f 175/1/2 176/1/2 179/1/2
f 178/3/2 175/3/2 179/3/2
f 176/3/2 174/3/2 180/3/2
f 179/1/2 176/1/2 180/1/2
f 177/3/2 178/3/2 181/3/2
f 178/3/2 179/3/2 181/3/2
f 180/3/2 174/3/2 182/3/2
f 177/3/2 181/3/2 183/3/2
f 181/3/2 182/3/2 183/3/2
f 182/3/2 174/3/2 184/3/2
f 183/3/2 182/3/2 184/3/2
f 174/3/2 172/3/2 184/3/2
f 177/3/2 183/3/2 185/3/2
f 185/3/2 183/3/2 186/3/2
f 187/1/2 188/1/2 189/1/2
f 189/1/2 188/1/2 190/1/2
f 191/1/2 192/1/2 193/1/2
f 193/1/2 192/1/2 194/1/2
f 197/3/3 196/3/3 195/3/3
f 198/3/3 196/3/3 197/3/3
f 199/3/3 196/3/3 198/3/3
f 201/3/3 200/3/3 199/3/3
f 201/3/3 199/3/3 198/3/3
f 202/3/3 200/3/3 201/3/3
f 204/3/3 200/3/3 202/3/3
f 205/3/3 200/3/3 204/3/3
f 206/3/3 204/3/3 203/3/3
f 207/3/3 204/3/3 206/3/3
f 210/3/3 208/3/3 207/3/3
f 212/3/3 210/3/3 209/3/3
f 213/3/3 208/3/3 210/3/3
f 213/3/3 210/3/3 212/3/3
f 214/3/3 208/3/3 213/3/3
f 215/3/3 212/3/3 211/3/3
f 215/3/3 213/3/3 212/3/3
f 216/3/3 213/3/3 215/3/3
f 219/3/3 218/3/3 217/3/3
f 220/3/3 218/3/3 219/3/3
f 221/3/3 218/3/3 220/3/3
f 225/1/3 221/1/3 220/1/3
f 226/3/3 222/3/3 221/3/3
f 226/1/3 221/1/3 225/1/3
f 227/1/3 223/1/3 222/1/3
f 229/1/3 225/1/3 224/1/3
f 229/7/3 226/7/3 225/7/3
f 230/3/3 222/3/3 226/3/3
f 230/7/3 226/7/3 229/7/3
f 231/1/3 228/1/3 227/1/3
f 231/3/3 222/3/3 230/3/3
f 231/1/3 227/1/3 222/1/3
f 232/1/3 228/1/3 231/1/3
f 233/1/3 228/1/3 232/1/3
f 235/1/3 229/1/3 224/1/3
f 235/1/3 230/1/3 229/1/3
f 235/1/3 232/1/3 231/1/3
f 235/1/3 231/1/3 230/1/3
f 236/1/3 232/1/3 235/1/3
f 237/1/3 232/1/3 236/1/3
f 238/1/3 232/1/3 237/1/3
f 239/3/3 234/3/3 233/3/3
f 240/3/3 234/3/3 239/3/3
f 241/1/3 235/1/3 224/1/3
f 242/7/3 236/7/3 235/7/3
f 242/1/3 235/1/3 241/1/3
f 243/3/3 237/3/3 236/3/3
f 243/7/3 236/7/3 242/7/3
f 244/1/3 238/1/3 237/1/3
f 244/1/3 239/1/3 238/1/3
f 245/1/3 239/1/3 244/1/3
f 247/1/3 243/1/3 242/1/3
f 248/3/3 237/3/3 243/3/3
f 248/1/3 243/1/3 247/1/3
f 249/1/3 244/1/3 237/1/3
f 249/3/3 237/3/3 248/3/3
f 250/1/3 244/1/3 249/1/3
f 251/3/3 247/3/3 246/3/3
f 251/3/3 248/3/3 247/3/3
f 252/3/3 248/3/3 251/3/3
f 255/1/3 254/1/3 253/1/3
f 256/1/3 254/1/3 255/1/3
f 262/5/3 260/5/3 259/5/3
f 262/5/3 261/5/3 260/5/3
f 263/8/3 258/8/3 257/8/3
f 264/8/3 258/8/3 263/8/3
f 265/5/3 262/5/3 259/5/3
f 266/5/3 262/5/3 265/5/3
f 271/5/3 270/5/3 269/5/3
f 272/8/3 268/8/3 267/8/3
f 273/8/3 268/8/3 272/8/3
f 274/5/3 271/5/3 269/5/3
f 275/5/3 271/5/3 274/5/3
f 276/5/3 271/5/3 275/5/3
f 279/1/3 278/1/3 277/1/3
f 280/1/3 278/1/3 279/1/3
f 283/1/3 282/1/3 281/1/3
f 284/1/3 282/1/3 283/1/3
f 285/4/3 284/4/3 283/4/3
f 289/4/3 285/4/3 283/4/3
f 290/3/3 286/3/3 285/3/3
f 290/4/3 285/4/3 289/4/3
f 291/3/3 286/3/3 290/3/3
f 292/3/3 286/3/3 291/3/3
f 293/6/3 288/6/3 287/6/3
f 294/6/3 288/6/3 293/6/3
f 295/6/3 288/6/3 294/6/3
f 299/6/3 295/6/3 294/6/3
f 300/4/3 296/4/3 295/4/3
f 300/6/3 295/6/3 299/6/3
f 301/1/3 297/1/3 296/1/3
f 301/4/3 296/4/3 300/4/3
f 302/1/3 297/1/3 301/1/3
f 305/6/3 300/6/3 299/6/3
f 305/6/3 299/6/3 298/6/3
f 306/6/3 300/6/3 305/6/3
f 308/3/3 304/3/3 303/3/3
f 309/4/3 308/4/3 307/4/3
f 309/3/3 304/3/3 308/3/3
f 310/3/3 304/3/3 309/3/3
f 311/4/3 309/4/3 307/4/3
f 312/4/3 309/4/3 311/4/3
f 313/1/3 312/1/3 311/1/3
f 314/1/3 312/1/3 313/1/3
f 315/3/4 316/3/4 317/3/4
f 317/3/4 316/3/4 318/3/4
f 318/3/4 319/3/4 320/3/4
f 320/3/4 319/3/4 321/3/4
f 322/3/4 323/3/4 325/3/4
f 325/3/4 323/3/4 326/3/4
f 324/3/4 325/3/4 327/3/4
f 327/3/4 325/3/4 328/3/4
f 329/3/4 330/3/4 331/3/4
f 331/3/4 330/3/4 332/3/4
f 332/3/4 330/3/4 333/3/4
f 334/3/4 335/3/4 337/3/4
f 335/3/4 336/3/4 337/3/4
f 337/3/4 336/3/4 338/3/4
f 339/1/4 340/1/4 341/1/4
f 341/1/4 340/1/4 342/1/4
f 343/1/4 344/1/4 345/1/4
f 345/1/4 344/1/4 346/1/4
f 347/1/4 348/1/4 349/1/4
f 349/1/4 348/1/4 350/1/4
f 349/4/4 350/4/4 351/4/4
f 351/4/4 350/4/4 352/4/4
f 353/8/4 354/8/4 356/8/4
f 354/6/4 355/6/4 357/6/4
f 356/8/4 354/8/4 357/8/4
f 357/6/4 355/6/4 358/6/4
f 358/6/4 355/6/4 361/6/4
f 359/8/4 360/8/4 362/8/4
f 360/6/4 361/6/4 363/6/4
f 362/8/4 360/8/4 363/8/4
f 361/6/4 355/6/4 364/6/4
f 363/6/4 361/6/4 364/6/4
f 365/4/4 366/4/4 367/4/4
f 367/4/4 366/4/4 368/4/4
f 367/1/4 368/1/4 369/1/4
f 369/1/4 368/1/4 370/1/4
f 371/3/4 372/3/4 375/3/4
f 375/3/4 372/3/4 376/3/4
f 376/3/4 377/3/4 378/3/4
f 378/3/4 377/3/4 379/3/4
f 379/3/4 380/3/4 382/3/4
f 382/3/4 380/3/4 383/3/4
f 373/5/4 374/5/4 384/5/4
f 384/5/4 374/5/4 385/5/4
f 381/3/4 382/3/4 387/3/4
f 387/3/4 382/3/4 388/3/4
f 386/3/4 387/3/4 389/3/4
f 389/3/4 387/3/4 390/3/4
f 391/3/4 392/3/4 393/3/4
f 391/3/4 393/3/4 395/3/4
f 393/3/4 394/3/4 395/3/4
f 395/3/4 394/3/4 396/3/4
f 391/3/4 395/3/4 397/3/4
f 397/3/4 395/3/4 398/3/4
f 403/8/5 400/8/5 399/8/5
f 404/8/5 400/8/5 403/8/5
f 405/8/5 402/8/5 401/8/5
f 406/8/5 402/8/5 405/8/5
f 409/6/5 408/6/5 407/6/5
f 410/6/5 408/6/5 409/6/5
f 415/5/5 412/5/5 411/5/5
f 416/5/5 412/5/5 415/5/5
f 417/5/5 414/5/5 413/5/5
f 418/5/5 414/5/5 417/5/5
f 421/5/5 420/5/5 419/5/5
f 422/5/5 420/5/5 421/5/5
f 425/3/5 424/3/5 423/3/5
f 426/3/5 424/3/5 425/3/5
f 431/3/5 428/3/5 427/3/5
f 432/3/5 428/3/5 431/3/5
f 433/3/5 430/3/5 429/3/5
f 434/3/5 430/3/5 433/3/5
f 441/1/5 436/1/5 435/1/5
f 442/4/5 437/4/5 436/4/5
f 442/1/5 436/1/5 441/1/5
f 443/4/5 437/4/5 442/4/5
f 444/4/5 437/4/5 443/4/5
f 445/4/5 439/4/5 438/4/5
f 446/4/5 439/4/5 445/4/5
f 447/1/5 440/1/5 439/1/5
f 447/4/5 439/4/5 446/4/5
f 448/1/5 440/1/5 447/1/5
f 449/3/5 444/3/5 443/3/5
f 450/3/5 444/3/5 449/3/5
f 451/3/5 446/3/5 445/3/5
f 452/3/5 446/3/5 451/3/5
f 455/1/5 454/1/5 453/1/5
f 456/1/5 454/1/5 455/1/5
f 457/1/5 454/1/5 456/1/5
f 458/1/5 454/1/5 457/1/5
f 459/1/5 457/1/5 456/1/5
f 460/1/5 457/1/5 459/1/5
f 466/1/5 462/1/5 461/1/5
f 467/1/5 464/1/5 463/1/5
f 469/1/5 466/1/5 465/1/5
f 470/1/5 462/1/5 466/1/5
f 470/1/5 466/1/5 469/1/5
f 471/1/5 468/1/5 467/1/5
f 471/1/5 467/1/5 463/1/5
f 472/1/5 468/1/5 471/1/5
f 477/3/5 474/3/5 473/3/5
f 478/3/5 474/3/5 477/3/5
f 479/3/5 476/3/5 475/3/5
f 480/3/5 476/3/5 479/3/5
f 485/1/5 482/1/5 481/1/5
f 486/1/5 482/1/5 485/1/5
f 487/1/5 484/1/5 483/1/5
f 488/1/5 484/1/5 487/1/5
f 495/3/5 490/3/5 489/3/5
f 496/3/5 490/3/5 495/3/5
f 497/3/5 492/3/5 491/3/5
f 498/3/5 492/3/5 497/3/5
f 499/3/5 494/3/5 493/3/5
f 500/3/5 494/3/5 499/3/5
f 505/3/5 502/3/5 501/3/5
f 506/3/5 502/3/5 505/3/5
f 507/3/5 504/3/5 503/3/5
f 508/3/5 504/3/5 507/3/5
f 509/8/6 510/8/6 513/8/6
f 513/8/6 510/8/6 514/8/6
f 511/8/6 512/8/6 515/8/6
f 515/8/6 512/8/6 516/8/6
f 517/5/6 518/5/6 524/5/6
f 524/5/6 518/5/6 525/5/6
f 519/5/6 520/5/6 526/5/6
f 526/5/6 520/5/6 527/5/6
f 521/1/6 522/1/6 531/1/6
f 522/4/6 523/4/6 532/4/6
f 531/1/6 522/1/6 532/1/6
f 532/4/6 523/4/6 533/4/6
f 528/4/6 529/4/6 534/4/6
f 529/1/6 530/1/6 535/1/6
f 534/4/6 529/4/6 535/4/6
f 535/1/6 530/1/6 536/1/6
f 537/1/6 538/1/6 541/1/6
f 541/1/6 538/1/6 542/1/6
f 539/1/6 540/1/6 543/1/6
f 543/1/6 540/1/6 544/1/6
f 545/3/6 546/3/6 549/3/6
f 549/3/6 546/3/6 550/3/6
f 547/3/6 548/3/6 553/3/6
f 553/3/6 548/3/6 554/3/6
f 550/3/6 551/3/6 555/3/6
f 555/3/6 551/3/6 556/3/6
f 552/3/6 553/3/6 557/3/6
f 557/3/6 553/3/6 558/3/6
f 559/3/6 560/3/6 565/3/6
f 565/3/6 560/3/6 566/3/6
f 561/3/6 562/3/6 568/3/6
f 568/3/6 562/3/6 569/3/6
f 563/3/6 564/3/6 571/3/6
f 571/3/6 564/3/6 572/3/6
f 566/3/6 567/3/6 573/3/6
f 573/3/6 567/3/6 574/3/6
f 570/3/6 571/3/6 575/3/6
f 575/3/6 571/3/6 576/3/6
f 574/3/6 575/3/6 577/3/6
f 577/3/6 575/3/6 578/3/6
f 579/3/6 580/3/6 583/3/6
f 583/3/6 580/3/6 584/3/6
f 584/3/6 580/3/6 585/3/6
f 581/3/6 582/3/6 586/3/6
f 586/3/6 582/3/6 587/3/6
f 587/3/6 582/3/6 588/3/6
f 584/3/6 585/3/6 589/3/6
f 586/3/6 587/3/6 589/3/6
f 585/3/6 586/3/6 589/3/6
f 589/3/6 587/3/6 590/3/6
