# MagicaVoxel @ Ephtracy

# group
o 

# material
mtllib persona3_t.vox.mtl
usemtl palette

# normals
vn -1 0 0
vn 1 0 0
vn 0 0 1
vn 0 0 -1
vn 0 -1 0
vn 0 1 0

# texcoords
vt 0.130859 0.5
vt 0.142578 0.5
vt 0.267578 0.5
vt 0.541016 0.5
vt 0.544922 0.5
vt 0.970703 0.5
vt 0.986328 0.5
vt 0.990234 0.5

# verts
v -0.7 0.9 0
v -0.7 0.9 -0.2
v -0.7 1 0
v -0.7 1 -0.2
v -0.4 1.2 0.1
v -0.4 1.2 0
v -0.4 1.3 0.1
v -0.4 1.3 0
v -0.3 1.1 0
v -0.3 1.1 -0.3
v -0.3 1.2 0.2
v -0.3 1.2 0.1
v -0.3 1.2 0
v -0.3 1.3 0.3
v -0.3 1.3 0.2
v -0.3 1.3 0.1
v -0.3 1.3 0
v -0.3 1.4 0.3
v -0.3 1.4 -0.3
v -0.2 0 0.1
v -0.2 0 -0.2
v -0.2 0.1 0.1
v -0.2 0.1 0
v -0.2 0.1 -0.2
v -0.2 0.4 0.1
v -0.2 0.4 0
v -0.2 0.4 -0.2
v -0.2 0.4 -0.3
v -0.2 0.9 0
v -0.2 0.9 -0.2
v -0.2 1 0.1
v -0.2 1 0
v -0.2 1 -0.2
v -0.2 1 -0.3
v -0.2 1.1 0.2
v -0.2 1.1 0
v -0.2 1.1 -0.3
v -0.2 1.1 -0.4
v -0.2 1.2 0.2
v -0.2 1.2 0.1
v -0.2 1.2 0
v -0.2 1.4 0.3
v -0.2 1.4 -0.3
v -0.2 1.4 -0.4
v -0.2 1.5 0.3
v -0.2 1.5 -0.3
v -0.1 1 0.2
v -0.1 1 0.1
v -0.1 1 0
v -0.1 1.1 0.2
v -0.1 1.1 0
v -0.1 1.4 -0.3
v -0.1 1.4 -0.4
v -0.1 1.5 0.3
v -0.1 1.5 -0.3
v -0.1 1.5 -0.4
v -0.1 1.6 0.3
v -0.1 1.6 -0.3
v 0 1.4 0.3
v 0 1.4 0.2
v 0 1.5 0.3
v 0 1.5 0.2
v 0.1 0 0.1
v 0.1 0 -0.2
v 0.1 0.1 0.1
v 0.1 0.1 0
v 0.1 0.1 -0.2
v 0.1 0.4 0.1
v 0.1 0.4 0
v 0.1 0.4 -0.1
v 0.1 0.4 -0.2
v 0.1 0.9 0
v 0.1 1 0.1
v 0.1 1 0
v 0.3 1.3 0.3
v 0.3 1.3 0.2
v 0.3 1.4 0.3
v 0.3 1.4 0.2
v -0.2 1.3 0.3
v -0.2 1.3 0.2
v -0.2 1.4 0.3
v -0.2 1.4 0.2
v -0.1 1.4 0.3
v -0.1 1.4 0.2
v -0.1 1.5 0.3
v -0.1 1.5 0.2
v 0 0 0.1
v 0 0 -0.2
v 0 0.1 0.1
v 0 0.1 0
v 0 0.1 -0.2
v 0 0.4 0.1
v 0 0.4 0
v 0 0.4 -0.1
v 0 0.4 -0.2
v 0 0.9 0
v 0 1 0.1
v 0 1 0
v 0 1.5 0.3
v 0 1.5 0.2
v 0 1.6 0.3
v 0 1.6 0.2
v 0.2 1 0.2
v 0.2 1 0.1
v 0.2 1 0
v 0.2 1.1 0.2
v 0.2 1.1 0
v 0.2 1.4 -0.3
v 0.2 1.4 -0.4
v 0.2 1.5 0.2
v 0.2 1.5 -0.3
v 0.2 1.5 -0.4
v 0.2 1.6 0.2
v 0.2 1.6 -0.3
v 0.3 0 0.1
v 0.3 0 -0.2
v 0.3 0.1 0.1
v 0.3 0.1 0
v 0.3 0.1 -0.2
v 0.3 0.4 0.1
v 0.3 0.4 0
v 0.3 0.4 -0.2
v 0.3 0.4 -0.3
v 0.3 0.9 0
v 0.3 0.9 -0.2
v 0.3 1 0.1
v 0.3 1 0
v 0.3 1 -0.2
v 0.3 1 -0.3
v 0.3 1.1 0.2
v 0.3 1.1 0
v 0.3 1.1 -0.3
v 0.3 1.1 -0.4
v 0.3 1.2 0.2
v 0.3 1.2 0.1
v 0.3 1.2 0
v 0.3 1.4 0.3
v 0.3 1.4 -0.3
v 0.3 1.4 -0.4
v 0.3 1.5 0.3
v 0.3 1.5 -0.3
v 0.4 1.1 0
v 0.4 1.1 -0.3
v 0.4 1.2 0.2
v 0.4 1.2 0.1
v 0.4 1.2 0
v 0.4 1.3 0.3
v 0.4 1.3 0.2
v 0.4 1.3 0.1
v 0.4 1.3 0
v 0.4 1.4 0.3
v 0.4 1.4 -0.3
v 0.5 1.2 0.1
v 0.5 1.2 0
v 0.5 1.3 0.1
v 0.5 1.3 0
v 0.8 0.9 0
v 0.8 0.9 -0.2
v 0.8 1 0
v 0.8 1 -0.2
v -0.3 1.3 0.3
v -0.3 1.4 0.3
v -0.2 1.3 0.3
v -0.2 1.4 0.3
v -0.2 1.5 0.3
v -0.1 1.4 0.3
v -0.1 1.5 0.3
v -0.1 1.6 0.3
v 0 1.4 0.3
v 0 1.5 0.3
v 0 1.6 0.3
v 0.3 1.3 0.3
v 0.3 1.4 0.3
v 0.3 1.5 0.3
v 0.4 1.3 0.3
v 0.4 1.4 0.3
v -0.3 1.2 0.2
v -0.3 1.3 0.2
v -0.2 1.1 0.2
v -0.2 1.2 0.2
v -0.2 1.3 0.2
v -0.2 1.4 0.2
v -0.1 1 0.2
v -0.1 1.1 0.2
v -0.1 1.2 0.2
v -0.1 1.4 0.2
v -0.1 1.5 0.2
v 0 1.1 0.2
v 0 1.2 0.2
v 0 1.3 0.2
v 0 1.4 0.2
v 0 1.5 0.2
v 0 1.6 0.2
v 0.1 1.1 0.2
v 0.1 1.2 0.2
v 0.1 1.3 0.2
v 0.2 1 0.2
v 0.2 1.1 0.2
v 0.2 1.2 0.2
v 0.2 1.5 0.2
v 0.2 1.6 0.2
v 0.3 1.1 0.2
v 0.3 1.2 0.2
v 0.3 1.3 0.2
v 0.3 1.4 0.2
v 0.4 1.2 0.2
v 0.4 1.3 0.2
v -0.4 1.2 0.1
v -0.4 1.3 0.1
v -0.3 1.2 0.1
v -0.3 1.3 0.1
v -0.2 0 0.1
v -0.2 0.1 0.1
v -0.2 0.4 0.1
v -0.2 1 0.1
v -0.1 1 0.1
v 0 0 0.1
v 0 0.1 0.1
v 0 0.4 0.1
v 0 1 0.1
v 0.1 0 0.1
v 0.1 0.1 0.1
v 0.1 0.4 0.1
v 0.1 1 0.1
v 0.2 1 0.1
v 0.3 0 0.1
v 0.3 0.1 0.1
v 0.3 0.4 0.1
v 0.3 1 0.1
v 0.4 1.2 0.1
v 0.4 1.3 0.1
v 0.5 1.2 0.1
v 0.5 1.3 0.1
v -0.7 0.9 0
v -0.7 1 0
v -0.6 0.9 0
v -0.6 1 0
v -0.3 1.1 0
v -0.3 1.2 0
v -0.2 0.1 0
v -0.2 0.4 0
v -0.2 0.9 0
v -0.2 1 0
v -0.2 1.1 0
v -0.2 1.2 0
v -0.1 1 0
v -0.1 1.1 0
v 0 0.1 0
v 0 0.4 0
v 0 0.9 0
v 0 1 0
v 0.1 0.1 0
v 0.1 0.4 0
v 0.1 0.9 0
v 0.1 1 0
v 0.2 1 0
v 0.2 1.1 0
v 0.3 0.1 0
v 0.3 0.4 0
v 0.3 0.9 0
v 0.3 1 0
v 0.3 1.1 0
v 0.3 1.2 0
v 0.4 1.1 0
v 0.4 1.2 0
v 0.7 0.9 0
v 0.7 1 0
v 0.8 0.9 0
v 0.8 1 0
v -0.4 1.2 0
v -0.4 1.3 0
v -0.3 1.2 0
v -0.3 1.3 0
v 0.4 1.2 0
v 0.4 1.3 0
v 0.5 1.2 0
v 0.5 1.3 0
v -0.7 0.9 -0.2
v -0.7 1 -0.2
v -0.6 0.9 -0.2
v -0.6 1 -0.2
v -0.2 0 -0.2
v -0.2 0.1 -0.2
v -0.2 0.4 -0.2
v -0.2 0.9 -0.2
v -0.2 1 -0.2
v 0 0 -0.2
v 0 0.1 -0.2
v 0 0.4 -0.2
v 0.1 0 -0.2
v 0.1 0.1 -0.2
v 0.1 0.4 -0.2
v 0.3 0 -0.2
v 0.3 0.1 -0.2
v 0.3 0.4 -0.2
v 0.3 0.9 -0.2
v 0.3 1 -0.2
v 0.7 0.9 -0.2
v 0.7 1 -0.2
v 0.8 0.9 -0.2
v 0.8 1 -0.2
v -0.3 1.1 -0.3
v -0.3 1.4 -0.3
v -0.2 0.4 -0.3
v -0.2 1 -0.3
v -0.2 1.1 -0.3
v -0.2 1.4 -0.3
v -0.2 1.5 -0.3
v -0.1 1.4 -0.3
v -0.1 1.5 -0.3
v -0.1 1.6 -0.3
v 0.2 1.4 -0.3
v 0.2 1.5 -0.3
v 0.2 1.6 -0.3
v 0.3 0.4 -0.3
v 0.3 1 -0.3
v 0.3 1.1 -0.3
v 0.3 1.4 -0.3
v 0.3 1.5 -0.3
v 0.4 1.1 -0.3
v 0.4 1.4 -0.3
v -0.2 1.1 -0.4
v -0.2 1.4 -0.4
v -0.1 1.4 -0.4
v -0.1 1.5 -0.4
v 0.2 1.4 -0.4
v 0.2 1.5 -0.4
v 0.3 1.1 -0.4
v 0.3 1.4 -0.4
v -0.2 0 0.1
v 0 0 0.1
v 0.1 0 0.1
v 0.3 0 0.1
v -0.2 0 -0.2
v 0 0 -0.2
v 0.1 0 -0.2
v 0.3 0 -0.2
v -0.2 0.4 0.1
v 0 0.4 0.1
v 0.1 0.4 0.1
v 0.3 0.4 0.1
v -0.2 0.4 0
v 0 0.4 0
v 0.1 0.4 0
v 0.3 0.4 0
v 0 0.4 -0.1
v 0.1 0.4 -0.1
v -0.2 0.4 -0.2
v 0 0.4 -0.2
v 0.1 0.4 -0.2
v 0.3 0.4 -0.2
v -0.2 0.4 -0.3
v 0.3 0.4 -0.3
v -0.7 0.9 0
v -0.6 0.9 0
v -0.2 0.9 0
v 0.3 0.9 0
v 0.7 0.9 0
v 0.8 0.9 0
v -0.7 0.9 -0.2
v -0.6 0.9 -0.2
v -0.2 0.9 -0.2
v 0.3 0.9 -0.2
v 0.7 0.9 -0.2
v 0.8 0.9 -0.2
v -0.1 1 0.2
v 0.2 1 0.2
v -0.1 1 0.1
v 0 1 0.1
v 0.1 1 0.1
v 0.2 1 0.1
v 0 1 0
v 0.1 1 0
v -0.2 1.1 0.2
v -0.1 1.1 0.2
v 0.2 1.1 0.2
v 0.3 1.1 0.2
v -0.3 1.1 0
v -0.2 1.1 0
v -0.1 1.1 0
v 0.2 1.1 0
v 0.3 1.1 0
v 0.4 1.1 0
v -0.3 1.1 -0.3
v -0.2 1.1 -0.3
v 0.3 1.1 -0.3
v 0.4 1.1 -0.3
v -0.2 1.1 -0.4
v 0.3 1.1 -0.4
v -0.3 1.2 0.2
v -0.2 1.2 0.2
v 0.3 1.2 0.2
v 0.4 1.2 0.2
v -0.4 1.2 0.1
v -0.3 1.2 0.1
v -0.2 1.2 0.1
v 0.3 1.2 0.1
v 0.4 1.2 0.1
v 0.5 1.2 0.1
v -0.4 1.2 0
v -0.3 1.2 0
v -0.2 1.2 0
v 0.3 1.2 0
v 0.4 1.2 0
v 0.5 1.2 0
v -0.3 1.3 0.3
v -0.2 1.3 0.3
v 0.3 1.3 0.3
v 0.4 1.3 0.3
v -0.3 1.3 0.2
v -0.2 1.3 0.2
v 0.3 1.3 0.2
v 0.4 1.3 0.2
v -0.2 1.4 0.3
v -0.1 1.4 0.3
v 0 1.4 0.3
v 0.3 1.4 0.3
v -0.2 1.4 0.2
v -0.1 1.4 0.2
v 0 1.4 0.2
v 0.3 1.4 0.2
v -0.1 1.5 0.3
v 0 1.5 0.3
v -0.1 1.5 0.2
v 0 1.5 0.2
v -0.2 0.1 0.1
v 0 0.1 0.1
v 0.1 0.1 0.1
v 0.3 0.1 0.1
v -0.2 0.1 0
v 0 0.1 0
v 0.1 0.1 0
v 0.3 0.1 0
v -0.2 1 0.1
v -0.1 1 0.1
v 0.2 1 0.1
v 0.3 1 0.1
v -0.7 1 0
v -0.6 1 0
v -0.2 1 0
v -0.1 1 0
v 0.2 1 0
v 0.3 1 0
v 0.7 1 0
v 0.8 1 0
v -0.7 1 -0.2
v -0.6 1 -0.2
v -0.2 1 -0.2
v 0.3 1 -0.2
v 0.7 1 -0.2
v 0.8 1 -0.2
v -0.4 1.3 0.1
v -0.3 1.3 0.1
v 0.4 1.3 0.1
v 0.5 1.3 0.1
v -0.4 1.3 0
v -0.3 1.3 0
v 0.4 1.3 0
v 0.5 1.3 0
v -0.3 1.4 0.3
v -0.2 1.4 0.3
v 0.3 1.4 0.3
v 0.4 1.4 0.3
v -0.3 1.4 -0.3
v -0.2 1.4 -0.3
v -0.1 1.4 -0.3
v 0.2 1.4 -0.3
v 0.3 1.4 -0.3
v 0.4 1.4 -0.3
v -0.2 1.4 -0.4
v -0.1 1.4 -0.4
v 0.2 1.4 -0.4
v 0.3 1.4 -0.4
v -0.2 1.5 0.3
v -0.1 1.5 0.3
v 0 1.5 0.3
v 0.3 1.5 0.3
v 0 1.5 0.2
v 0.2 1.5 0.2
v -0.2 1.5 -0.3
v -0.1 1.5 -0.3
v 0.2 1.5 -0.3
v 0.3 1.5 -0.3
v -0.1 1.5 -0.4
v 0.2 1.5 -0.4
v -0.1 1.6 0.3
v 0 1.6 0.3
v 0 1.6 0.2
v 0.2 1.6 0.2
v -0.1 1.6 -0.3
v 0.2 1.6 -0.3

# faces
f 3/1/1 2/1/1 1/1/1
f 4/1/1 2/1/1 3/1/1
f 7/1/1 6/1/1 5/1/1
f 8/1/1 6/1/1 7/1/1
f 13/3/1 10/3/1 9/3/1
f 15/3/1 12/3/1 11/3/1
f 16/3/1 12/3/1 15/3/1
f 17/3/1 10/3/1 13/3/1
f 18/3/1 16/3/1 15/3/1
f 18/3/1 17/3/1 16/3/1
f 18/3/1 15/3/1 14/3/1
f 19/3/1 10/3/1 17/3/1
f 19/3/1 17/3/1 18/3/1
f 22/8/1 21/8/1 20/8/1
f 23/8/1 21/8/1 22/8/1
f 24/8/1 21/8/1 23/8/1
f 26/6/1 24/6/1 23/6/1
f 27/6/1 24/6/1 26/6/1
f 29/5/1 27/5/1 26/5/1
f 29/5/1 28/5/1 27/5/1
f 29/5/1 26/5/1 25/5/1
f 30/5/1 28/5/1 29/5/1
f 31/5/1 29/5/1 25/5/1
f 32/5/1 29/5/1 31/5/1
f 33/5/1 28/5/1 30/5/1
f 34/5/1 28/5/1 33/5/1
f 36/3/1 33/3/1 32/3/1
f 36/3/1 34/3/1 33/3/1
f 37/3/1 34/3/1 36/3/1
f 39/1/1 36/1/1 35/1/1
f 40/1/1 36/1/1 39/1/1
f 41/1/1 36/1/1 40/1/1
f 43/3/1 38/3/1 37/3/1
f 44/3/1 38/3/1 43/3/1
f 45/3/1 43/3/1 42/3/1
f 46/3/1 43/3/1 45/3/1
f 50/1/1 48/1/1 47/1/1
f 50/1/1 49/1/1 48/1/1
f 51/1/1 49/1/1 50/1/1
f 55/3/1 53/3/1 52/3/1
f 56/3/1 53/3/1 55/3/1
f 57/3/1 55/3/1 54/3/1
f 58/3/1 55/3/1 57/3/1
f 61/3/1 60/3/1 59/3/1
f 62/3/1 60/3/1 61/3/1
f 65/8/1 64/8/1 63/8/1
f 66/8/1 64/8/1 65/8/1
f 67/8/1 64/8/1 66/8/1
f 69/6/1 67/6/1 66/6/1
f 70/6/1 67/6/1 69/6/1
f 71/6/1 67/6/1 70/6/1
f 72/5/1 69/5/1 68/5/1
f 73/5/1 72/5/1 68/5/1
f 74/5/1 72/5/1 73/5/1
f 77/3/1 76/3/1 75/3/1
f 78/3/1 76/3/1 77/3/1
f 79/3/2 80/3/2 81/3/2
f 81/3/2 80/3/2 82/3/2
f 83/3/2 84/3/2 85/3/2
f 85/3/2 84/3/2 86/3/2
f 87/8/2 88/8/2 89/8/2
f 89/8/2 88/8/2 90/8/2
f 90/8/2 88/8/2 91/8/2
f 90/6/2 91/6/2 93/6/2
f 93/6/2 91/6/2 94/6/2
f 94/6/2 91/6/2 95/6/2
f 92/5/2 93/5/2 96/5/2
f 92/5/2 96/5/2 97/5/2
f 97/5/2 96/5/2 98/5/2
f 99/3/2 100/3/2 101/3/2
f 101/3/2 100/3/2 102/3/2
f 103/1/2 104/1/2 106/1/2
f 104/1/2 105/1/2 106/1/2
f 106/1/2 105/1/2 107/1/2
f 108/3/2 109/3/2 111/3/2
f 111/3/2 109/3/2 112/3/2
f 110/3/2 111/3/2 113/3/2
f 113/3/2 111/3/2 114/3/2
f 115/8/2 116/8/2 117/8/2
f 117/8/2 116/8/2 118/8/2
f 118/8/2 116/8/2 119/8/2
f 118/6/2 119/6/2 121/6/2
f 121/6/2 119/6/2 122/6/2
f 121/5/2 122/5/2 124/5/2
f 122/5/2 123/5/2 124/5/2
f 120/5/2 121/5/2 124/5/2
f 124/5/2 123/5/2 125/5/2
f 120/5/2 124/5/2 126/5/2
f 126/5/2 124/5/2 127/5/2
f 125/5/2 123/5/2 128/5/2
f 128/5/2 123/5/2 129/5/2
f 127/3/2 128/3/2 131/3/2
f 128/3/2 129/3/2 131/3/2
f 131/3/2 129/3/2 132/3/2
f 130/1/2 131/1/2 134/1/2
f 134/1/2 131/1/2 135/1/2
f 135/1/2 131/1/2 136/1/2
f 132/3/2 133/3/2 138/3/2
f 138/3/2 133/3/2 139/3/2
f 137/3/2 138/3/2 140/3/2
f 140/3/2 138/3/2 141/3/2
f 142/3/2 143/3/2 146/3/2
f 144/3/2 145/3/2 148/3/2
f 148/3/2 145/3/2 149/3/2
f 146/3/2 143/3/2 150/3/2
f 148/3/2 149/3/2 151/3/2
f 149/3/2 150/3/2 151/3/2
f 147/3/2 148/3/2 151/3/2
f 150/3/2 143/3/2 152/3/2
f 151/3/2 150/3/2 152/3/2
f 153/1/2 154/1/2 155/1/2
f 155/1/2 154/1/2 156/1/2
f 157/1/2 158/1/2 159/1/2
f 159/1/2 158/1/2 160/1/2
f 163/3/3 162/3/3 161/3/3
f 164/3/3 162/3/3 163/3/3
f 166/3/3 165/3/3 164/3/3
f 167/3/3 165/3/3 166/3/3
f 170/3/3 168/3/3 167/3/3
f 171/3/3 168/3/3 170/3/3
f 173/3/3 170/3/3 169/3/3
f 174/3/3 170/3/3 173/3/3
f 175/3/3 173/3/3 172/3/3
f 176/3/3 173/3/3 175/3/3
f 180/3/3 178/3/3 177/3/3
f 181/3/3 178/3/3 180/3/3
f 184/1/3 180/1/3 179/1/3
f 185/3/3 181/3/3 180/3/3
f 185/1/3 180/1/3 184/1/3
f 186/1/3 182/1/3 181/1/3
f 188/1/3 184/1/3 183/1/3
f 188/7/3 185/7/3 184/7/3
f 189/3/3 181/3/3 185/3/3
f 189/7/3 185/7/3 188/7/3
f 190/1/3 187/1/3 186/1/3
f 190/3/3 181/3/3 189/3/3
f 190/1/3 186/1/3 181/1/3
f 191/1/3 187/1/3 190/1/3
f 192/1/3 187/1/3 191/1/3
f 194/1/3 188/1/3 183/1/3
f 194/1/3 189/1/3 188/1/3
f 194/1/3 191/1/3 190/1/3
f 194/1/3 190/1/3 189/1/3
f 195/1/3 191/1/3 194/1/3
f 196/1/3 191/1/3 195/1/3
f 197/1/3 194/1/3 183/1/3
f 198/7/3 195/7/3 194/7/3
f 198/1/3 194/1/3 197/1/3
f 199/3/3 196/3/3 195/3/3
f 199/7/3 195/7/3 198/7/3
f 200/3/3 193/3/3 192/3/3
f 201/3/3 193/3/3 200/3/3
f 202/1/3 199/1/3 198/1/3
f 203/3/3 196/3/3 199/3/3
f 203/1/3 199/1/3 202/1/3
f 204/1/3 191/1/3 196/1/3
f 204/3/3 196/3/3 203/3/3
f 205/1/3 191/1/3 204/1/3
f 206/3/3 204/3/3 203/3/3
f 207/3/3 204/3/3 206/3/3
f 210/1/3 209/1/3 208/1/3
f 211/1/3 209/1/3 210/1/3
f 216/5/3 215/5/3 214/5/3
f 217/8/3 213/8/3 212/8/3
f 218/8/3 213/8/3 217/8/3
f 219/5/3 216/5/3 214/5/3
f 220/5/3 216/5/3 219/5/3
f 225/5/3 224/5/3 223/5/3
f 226/8/3 222/8/3 221/8/3
f 227/8/3 222/8/3 226/8/3
f 228/5/3 225/5/3 223/5/3
f 229/5/3 225/5/3 228/5/3
f 232/1/3 231/1/3 230/1/3
f 233/1/3 231/1/3 232/1/3
f 236/1/3 235/1/3 234/1/3
f 237/1/3 235/1/3 236/1/3
f 242/4/3 237/4/3 236/4/3
f 243/4/3 237/4/3 242/4/3
f 244/3/3 239/3/3 238/3/3
f 245/3/3 239/3/3 244/3/3
f 246/3/3 244/3/3 243/3/3
f 247/3/3 244/3/3 246/3/3
f 248/6/3 241/6/3 240/6/3
f 249/6/3 241/6/3 248/6/3
f 253/4/3 250/4/3 249/4/3
f 254/1/3 251/1/3 250/1/3
f 254/4/3 250/4/3 253/4/3
f 255/1/3 251/1/3 254/1/3
f 258/6/3 253/6/3 252/6/3
f 259/6/3 253/6/3 258/6/3
f 261/3/3 257/3/3 256/3/3
f 262/3/3 257/3/3 261/3/3
f 264/3/3 263/3/3 262/3/3
f 265/3/3 263/3/3 264/3/3
f 266/4/3 261/4/3 260/4/3
f 267/4/3 261/4/3 266/4/3
f 268/1/3 267/1/3 266/1/3
f 269/1/3 267/1/3 268/1/3
f 270/1/4 271/1/4 272/1/4
f 272/1/4 271/1/4 273/1/4
f 274/1/4 275/1/4 276/1/4
f 276/1/4 275/1/4 277/1/4
f 278/1/4 279/1/4 280/1/4
f 280/1/4 279/1/4 281/1/4
f 280/4/4 281/4/4 285/4/4
f 285/4/4 281/4/4 286/4/4
f 282/8/4 283/8/4 287/8/4
f 283/6/4 284/6/4 288/6/4
f 287/8/4 283/8/4 288/8/4
f 288/6/4 284/6/4 289/6/4
f 290/8/4 291/8/4 293/8/4
f 291/6/4 292/6/4 294/6/4
f 293/8/4 291/8/4 294/8/4
f 294/6/4 292/6/4 295/6/4
f 296/4/4 297/4/4 298/4/4
f 298/4/4 297/4/4 299/4/4
f 298/1/4 299/1/4 300/1/4
f 300/1/4 299/1/4 301/1/4
f 302/3/4 303/3/4 306/3/4
f 306/3/4 303/3/4 307/3/4
f 307/3/4 308/3/4 309/3/4
f 309/3/4 308/3/4 310/3/4
f 310/3/4 311/3/4 313/3/4
f 313/3/4 311/3/4 314/3/4
f 304/5/4 305/5/4 315/5/4
f 305/3/4 306/3/4 316/3/4
f 315/5/4 305/5/4 316/5/4
f 316/3/4 306/3/4 317/3/4
f 312/3/4 313/3/4 318/3/4
f 318/3/4 313/3/4 319/3/4
f 317/3/4 318/3/4 320/3/4
f 320/3/4 318/3/4 321/3/4
f 322/3/4 323/3/4 324/3/4
f 322/3/4 324/3/4 326/3/4
f 324/3/4 325/3/4 326/3/4
f 326/3/4 325/3/4 327/3/4
f 322/3/4 326/3/4 328/3/4
f 328/3/4 326/3/4 329/3/4
f 334/8/5 331/8/5 330/8/5
f 335/8/5 331/8/5 334/8/5
f 336/8/5 333/8/5 332/8/5
f 337/8/5 333/8/5 336/8/5
f 342/5/5 339/5/5 338/5/5
f 343/5/5 339/5/5 342/5/5
f 344/5/5 341/5/5 340/5/5
f 345/5/5 341/5/5 344/5/5
f 346/4/5 344/4/5 343/4/5
f 347/4/5 344/4/5 346/4/5
f 349/5/5 347/5/5 346/5/5
f 350/5/5 347/5/5 349/5/5
f 352/5/5 350/5/5 349/5/5
f 352/5/5 351/5/5 350/5/5
f 352/5/5 349/5/5 348/5/5
f 353/5/5 351/5/5 352/5/5
f 360/1/5 355/1/5 354/1/5
f 361/4/5 356/4/5 355/4/5
f 361/1/5 355/1/5 360/1/5
f 362/4/5 356/4/5 361/4/5
f 363/4/5 358/4/5 357/4/5
f 364/1/5 359/1/5 358/1/5
f 364/4/5 358/4/5 363/4/5
f 365/1/5 359/1/5 364/1/5
f 368/1/5 367/1/5 366/1/5
f 369/1/5 367/1/5 368/1/5
f 370/1/5 367/1/5 369/1/5
f 371/1/5 367/1/5 370/1/5
f 372/1/5 370/1/5 369/1/5
f 373/1/5 370/1/5 372/1/5
f 379/1/5 375/1/5 374/1/5
f 380/1/5 375/1/5 379/1/5
f 381/1/5 377/1/5 376/1/5
f 382/1/5 377/1/5 381/1/5
f 384/3/5 379/3/5 378/3/5
f 385/3/5 379/3/5 384/3/5
f 386/3/5 383/3/5 382/3/5
f 387/3/5 383/3/5 386/3/5
f 388/3/5 386/3/5 385/3/5
f 389/3/5 386/3/5 388/3/5
f 395/3/5 391/3/5 390/3/5
f 396/3/5 391/3/5 395/3/5
f 397/3/5 393/3/5 392/3/5
f 398/3/5 393/3/5 397/3/5
f 400/1/5 396/1/5 395/1/5
f 400/1/5 395/1/5 394/1/5
f 401/1/5 396/1/5 400/1/5
f 402/1/5 396/1/5 401/1/5
f 403/1/5 399/1/5 398/1/5
f 403/1/5 398/1/5 397/1/5
f 404/1/5 399/1/5 403/1/5
f 405/1/5 399/1/5 404/1/5
f 410/3/5 407/3/5 406/3/5
f 411/3/5 407/3/5 410/3/5
f 412/3/5 409/3/5 408/3/5
f 413/3/5 409/3/5 412/3/5
f 418/3/5 415/3/5 414/3/5
f 419/3/5 415/3/5 418/3/5
f 420/3/5 417/3/5 416/3/5
f 421/3/5 417/3/5 420/3/5
f 424/3/5 423/3/5 422/3/5
f 425/3/5 423/3/5 424/3/5
f 426/8/6 427/8/6 430/8/6
f 430/8/6 427/8/6 431/8/6
f 428/8/6 429/8/6 432/8/6
f 432/8/6 429/8/6 433/8/6
f 434/5/6 435/5/6 440/5/6
f 440/5/6 435/5/6 441/5/6
f 436/5/6 437/5/6 442/5/6
f 442/5/6 437/5/6 443/5/6
f 438/1/6 439/1/6 446/1/6
f 439/4/6 440/4/6 447/4/6
f 446/1/6 439/1/6 447/1/6
f 447/4/6 440/4/6 448/4/6
f 443/4/6 444/4/6 449/4/6
f 444/1/6 445/1/6 450/1/6
f 449/4/6 444/4/6 450/4/6
f 450/1/6 445/1/6 451/1/6
f 452/1/6 453/1/6 456/1/6
f 456/1/6 453/1/6 457/1/6
f 454/1/6 455/1/6 458/1/6
f 458/1/6 455/1/6 459/1/6
f 460/3/6 461/3/6 464/3/6
f 464/3/6 461/3/6 465/3/6
f 462/3/6 463/3/6 468/3/6
f 468/3/6 463/3/6 469/3/6
f 465/3/6 466/3/6 470/3/6
f 470/3/6 466/3/6 471/3/6
f 467/3/6 468/3/6 472/3/6
f 472/3/6 468/3/6 473/3/6
f 476/3/6 477/3/6 478/3/6
f 478/3/6 477/3/6 479/3/6
f 474/3/6 475/3/6 480/3/6
f 480/3/6 475/3/6 481/3/6
f 479/3/6 477/3/6 482/3/6
f 482/3/6 477/3/6 483/3/6
f 481/3/6 482/3/6 484/3/6
f 484/3/6 482/3/6 485/3/6
f 486/3/6 487/3/6 488/3/6
f 486/3/6 488/3/6 490/3/6
f 488/3/6 489/3/6 490/3/6
f 490/3/6 489/3/6 491/3/6
