# MagicaVoxel @ Ephtracy

# group
o 

# material
mtllib persona1_t.vox.mtl
usemtl palette

# normals
vn -1 0 0
vn 1 0 0
vn 0 0 1
vn 0 0 -1
vn 0 -1 0
vn 0 1 0

# texcoords
vt 0.130859 0.5
vt 0.142578 0.5
vt 0.365234 0.5
vt 0.369141 0.5
vt 0.779297 0.5
vt 0.845703 0.5
vt 0.853516 0.5
vt 0.986328 0.5

# verts
v -0.7 0.9 0
v -0.7 0.9 -0.2
v -0.7 1 0
v -0.7 1 -0.2
v -0.4 1.2 0.1
v -0.4 1.2 0
v -0.4 1.3 0.1
v -0.4 1.3 0
v -0.3 0.9 0.2
v -0.3 0.9 0.1
v -0.3 0.9 -0.2
v -0.3 0.9 -0.3
v -0.3 1 0
v -0.3 1 -0.2
v -0.3 1.1 0.1
v -0.3 1.1 0
v -0.3 1.2 0.3
v -0.3 1.2 0.2
v -0.3 1.2 0.1
v -0.3 1.2 0
v -0.3 1.3 0.1
v -0.3 1.3 0
v -0.3 1.4 0.2
v -0.3 1.4 -0.3
v -0.3 1.5 0.3
v -0.3 1.5 0.2
v -0.2 0 0.1
v -0.2 0 -0.2
v -0.2 0.1 0.1
v -0.2 0.1 0
v -0.2 0.1 -0.2
v -0.2 0.5 0.1
v -0.2 0.5 0
v -0.2 0.5 -0.2
v -0.2 0.5 -0.3
v -0.2 0.8 -0.3
v -0.2 0.8 -0.4
v -0.2 0.9 0.1
v -0.2 0.9 0
v -0.2 0.9 -0.2
v -0.2 0.9 -0.3
v -0.2 1 0.1
v -0.2 1 0
v -0.2 1.4 0.2
v -0.2 1.4 -0.3
v -0.2 1.4 -0.4
v -0.2 1.5 0.3
v -0.2 1.5 0.2
v -0.2 1.5 -0.3
v -0.2 1.6 0.3
v -0.2 1.6 0.2
v -0.1 1 0.2
v -0.1 1 0.1
v -0.1 1 0
v -0.1 1.1 0.2
v -0.1 1.1 0
v -0.1 1.4 -0.3
v -0.1 1.4 -0.4
v -0.1 1.5 0.2
v -0.1 1.5 -0.3
v -0.1 1.5 -0.4
v -0.1 1.6 0.2
v -0.1 1.6 -0.3
v 0 1.4 0.3
v 0 1.4 0.2
v 0 1.5 0.3
v 0 1.5 0.2
v 0.1 0 0.1
v 0.1 0 -0.2
v 0.1 0.1 0.1
v 0.1 0.1 0
v 0.1 0.1 -0.2
v 0.1 0.4 0
v 0.1 0.4 -0.2
v 0.1 0.5 0.1
v 0.1 0.5 0
v 0.1 0.9 0
v 0.1 1 0.1
v 0.1 1 0
v 0.1 1.5 0.3
v 0.1 1.5 0.2
v 0.1 1.6 0.3
v 0.1 1.6 0.2
v 0.2 1.4 0.3
v 0.2 1.4 0.2
v 0.2 1.5 0.3
v 0.2 1.5 0.2
v 0.3 0.9 0.2
v 0.3 0.9 0.1
v 0.3 1 0.1
v 0.3 1.1 0.2
v 0.3 1.1 0.1
v 0.3 1.2 0.3
v 0.3 1.2 0.2
v 0.3 1.3 0.2
v 0.3 1.4 0.3
v 0.3 1.4 0.2
v -0.2 0.9 0.2
v -0.2 0.9 0.1
v -0.2 1 0.1
v -0.2 1.1 0.2
v -0.2 1.1 0.1
v -0.2 1.2 0.3
v -0.2 1.2 0.2
v -0.2 1.3 0.2
v -0.2 1.4 0.3
v -0.2 1.4 0.2
v -0.1 1.4 0.3
v -0.1 1.4 0.2
v -0.1 1.5 0.3
v -0.1 1.5 0.2
v 0 0 0.1
v 0 0 -0.2
v 0 0.1 0.1
v 0 0.1 0
v 0 0.1 -0.2
v 0 0.4 0
v 0 0.4 -0.2
v 0 0.5 0.1
v 0 0.5 0
v 0 0.9 0
v 0 1 0.1
v 0 1 0
v 0 1.5 0.3
v 0 1.5 0.2
v 0 1.6 0.3
v 0 1.6 0.2
v 0.1 1.4 0.3
v 0.1 1.4 0.2
v 0.1 1.5 0.3
v 0.1 1.5 0.2
v 0.2 1 0.2
v 0.2 1 0.1
v 0.2 1 0
v 0.2 1.1 0.2
v 0.2 1.1 0
v 0.2 1.4 -0.3
v 0.2 1.4 -0.4
v 0.2 1.5 0.2
v 0.2 1.5 -0.3
v 0.2 1.5 -0.4
v 0.2 1.6 0.2
v 0.2 1.6 -0.3
v 0.3 0 0.1
v 0.3 0 -0.2
v 0.3 0.1 0.1
v 0.3 0.1 0
v 0.3 0.1 -0.2
v 0.3 0.5 0.1
v 0.3 0.5 0
v 0.3 0.5 -0.2
v 0.3 0.5 -0.3
v 0.3 0.8 -0.3
v 0.3 0.8 -0.4
v 0.3 0.9 0.1
v 0.3 0.9 0
v 0.3 0.9 -0.2
v 0.3 0.9 -0.3
v 0.3 1 0.1
v 0.3 1 0
v 0.3 1.4 0.2
v 0.3 1.4 -0.3
v 0.3 1.4 -0.4
v 0.3 1.5 0.3
v 0.3 1.5 0.2
v 0.3 1.5 -0.3
v 0.3 1.6 0.3
v 0.3 1.6 0.2
v 0.4 0.9 0.2
v 0.4 0.9 0.1
v 0.4 0.9 -0.2
v 0.4 0.9 -0.3
v 0.4 1 0
v 0.4 1 -0.2
v 0.4 1.1 0.1
v 0.4 1.1 0
v 0.4 1.2 0.3
v 0.4 1.2 0.2
v 0.4 1.2 0.1
v 0.4 1.2 0
v 0.4 1.3 0.1
v 0.4 1.3 0
v 0.4 1.4 0.2
v 0.4 1.4 -0.3
v 0.4 1.5 0.3
v 0.4 1.5 0.2
v 0.5 1.2 0.1
v 0.5 1.2 0
v 0.5 1.3 0.1
v 0.5 1.3 0
v 0.8 0.9 0
v 0.8 0.9 -0.2
v 0.8 1 0
v 0.8 1 -0.2
v -0.3 1.2 0.3
v -0.3 1.5 0.3
v -0.2 1.2 0.3
v -0.2 1.4 0.3
v -0.2 1.5 0.3
v -0.2 1.6 0.3
v -0.1 1.4 0.3
v -0.1 1.5 0.3
v 0 1.4 0.3
v 0 1.5 0.3
v 0 1.6 0.3
v 0.1 1.4 0.3
v 0.1 1.5 0.3
v 0.1 1.6 0.3
v 0.2 1.4 0.3
v 0.2 1.5 0.3
v 0.3 1.2 0.3
v 0.3 1.4 0.3
v 0.3 1.5 0.3
v 0.3 1.6 0.3
v 0.4 1.2 0.3
v 0.4 1.5 0.3
v -0.3 0.9 0.2
v -0.3 1.2 0.2
v -0.2 0.9 0.2
v -0.2 1.1 0.2
v -0.2 1.2 0.2
v -0.2 1.3 0.2
v -0.2 1.4 0.2
v -0.1 1 0.2
v -0.1 1.1 0.2
v -0.1 1.2 0.2
v -0.1 1.4 0.2
v -0.1 1.5 0.2
v 0 1.1 0.2
v 0 1.2 0.2
v 0 1.3 0.2
v 0 1.4 0.2
v 0 1.5 0.2
v 0 1.6 0.2
v 0.1 1.1 0.2
v 0.1 1.2 0.2
v 0.1 1.3 0.2
v 0.1 1.4 0.2
v 0.1 1.5 0.2
v 0.1 1.6 0.2
v 0.2 1 0.2
v 0.2 1.1 0.2
v 0.2 1.2 0.2
v 0.2 1.4 0.2
v 0.2 1.5 0.2
v 0.3 0.9 0.2
v 0.3 1.1 0.2
v 0.3 1.2 0.2
v 0.3 1.3 0.2
v 0.3 1.4 0.2
v 0.4 0.9 0.2
v 0.4 1.2 0.2
v -0.4 1.2 0.1
v -0.4 1.3 0.1
v -0.3 1.2 0.1
v -0.3 1.3 0.1
v -0.2 0 0.1
v -0.2 0.1 0.1
v -0.2 0.5 0.1
v -0.2 0.9 0.1
v -0.2 1 0.1
v -0.1 1 0.1
v 0 0 0.1
v 0 0.1 0.1
v 0 0.5 0.1
v 0 1 0.1
v 0.1 0 0.1
v 0.1 0.1 0.1
v 0.1 0.5 0.1
v 0.1 1 0.1
v 0.2 1 0.1
v 0.3 0 0.1
v 0.3 0.1 0.1
v 0.3 0.5 0.1
v 0.3 0.9 0.1
v 0.3 1 0.1
v 0.4 1.2 0.1
v 0.4 1.3 0.1
v 0.5 1.2 0.1
v 0.5 1.3 0.1
v -0.7 0.9 0
v -0.7 1 0
v -0.6 0.9 0
v -0.6 1 0
v -0.3 1 0
v -0.3 1.1 0
v -0.2 0.1 0
v -0.2 0.5 0
v -0.2 0.9 0
v -0.2 1 0
v -0.1 1 0
v -0.1 1.1 0
v 0 0.1 0
v 0 0.4 0
v 0 0.5 0
v 0 0.9 0
v 0 1 0
v 0.1 0.1 0
v 0.1 0.4 0
v 0.1 0.5 0
v 0.1 0.9 0
v 0.1 1 0
v 0.2 1 0
v 0.2 1.1 0
v 0.3 0.1 0
v 0.3 0.5 0
v 0.3 0.9 0
v 0.3 1 0
v 0.4 1 0
v 0.4 1.1 0
v 0.7 0.9 0
v 0.7 1 0
v 0.8 0.9 0
v 0.8 1 0
v -0.3 1.4 0.2
v -0.3 1.5 0.2
v -0.2 1.4 0.2
v -0.2 1.5 0.2
v -0.2 1.6 0.2
v -0.1 1.5 0.2
v -0.1 1.6 0.2
v 0.2 1.5 0.2
v 0.2 1.6 0.2
v 0.3 1.4 0.2
v 0.3 1.5 0.2
v 0.3 1.6 0.2
v 0.4 1.4 0.2
v 0.4 1.5 0.2
v -0.3 0.9 0.1
v -0.3 1.1 0.1
v -0.2 0.9 0.1
v -0.2 1 0.1
v -0.2 1.1 0.1
v 0.3 0.9 0.1
v 0.3 1 0.1
v 0.3 1.1 0.1
v 0.4 0.9 0.1
v 0.4 1.1 0.1
v -0.4 1.2 0
v -0.4 1.3 0
v -0.3 1.2 0
v -0.3 1.3 0
v 0.4 1.2 0
v 0.4 1.3 0
v 0.5 1.2 0
v 0.5 1.3 0
v -0.7 0.9 -0.2
v -0.7 1 -0.2
v -0.6 0.9 -0.2
v -0.6 1 -0.2
v -0.3 0.9 -0.2
v -0.3 1 -0.2
v -0.2 0 -0.2
v -0.2 0.1 -0.2
v -0.2 0.5 -0.2
v 0 0 -0.2
v 0 0.1 -0.2
v 0 0.4 -0.2
v 0.1 0 -0.2
v 0.1 0.1 -0.2
v 0.1 0.4 -0.2
v 0.3 0 -0.2
v 0.3 0.1 -0.2
v 0.3 0.5 -0.2
v 0.4 0.9 -0.2
v 0.4 1 -0.2
v 0.7 0.9 -0.2
v 0.7 1 -0.2
v 0.8 0.9 -0.2
v 0.8 1 -0.2
v -0.3 0.9 -0.3
v -0.3 1.4 -0.3
v -0.2 0.5 -0.3
v -0.2 0.8 -0.3
v -0.2 0.9 -0.3
v -0.2 1.4 -0.3
v -0.2 1.5 -0.3
v -0.1 1.4 -0.3
v -0.1 1.5 -0.3
v -0.1 1.6 -0.3
v 0.2 1.4 -0.3
v 0.2 1.5 -0.3
v 0.2 1.6 -0.3
v 0.3 0.5 -0.3
v 0.3 0.8 -0.3
v 0.3 0.9 -0.3
v 0.3 1.4 -0.3
v 0.3 1.5 -0.3
v 0.4 0.9 -0.3
v 0.4 1.4 -0.3
v -0.2 0.8 -0.4
v -0.2 1.4 -0.4
v -0.1 1.4 -0.4
v -0.1 1.5 -0.4
v 0.2 1.4 -0.4
v 0.2 1.5 -0.4
v 0.3 0.8 -0.4
v 0.3 1.4 -0.4
v -0.2 0 0.1
v 0 0 0.1
v 0.1 0 0.1
v 0.3 0 0.1
v -0.2 0 -0.2
v 0 0 -0.2
v 0.1 0 -0.2
v 0.3 0 -0.2
v 0 0.4 0
v 0.1 0.4 0
v 0 0.4 -0.2
v 0.1 0.4 -0.2
v -0.2 0.5 0.1
v 0 0.5 0.1
v 0.1 0.5 0.1
v 0.3 0.5 0.1
v -0.2 0.5 0
v 0 0.5 0
v 0.1 0.5 0
v 0.3 0.5 0
v -0.2 0.5 -0.2
v 0.3 0.5 -0.2
v -0.2 0.5 -0.3
v 0.3 0.5 -0.3
v -0.2 0.8 -0.3
v 0.3 0.8 -0.3
v -0.2 0.8 -0.4
v 0.3 0.8 -0.4
v -0.3 0.9 0.2
v -0.2 0.9 0.2
v 0.3 0.9 0.2
v 0.4 0.9 0.2
v -0.3 0.9 0.1
v -0.2 0.9 0.1
v 0.3 0.9 0.1
v 0.4 0.9 0.1
v -0.7 0.9 0
v -0.6 0.9 0
v -0.2 0.9 0
v 0.3 0.9 0
v 0.7 0.9 0
v 0.8 0.9 0
v -0.7 0.9 -0.2
v -0.6 0.9 -0.2
v -0.3 0.9 -0.2
v -0.2 0.9 -0.2
v 0.3 0.9 -0.2
v 0.4 0.9 -0.2
v 0.7 0.9 -0.2
v 0.8 0.9 -0.2
v -0.3 0.9 -0.3
v -0.2 0.9 -0.3
v 0.3 0.9 -0.3
v 0.4 0.9 -0.3
v -0.1 1 0.2
v 0.2 1 0.2
v -0.1 1 0.1
v 0 1 0.1
v 0.1 1 0.1
v 0.2 1 0.1
v 0 1 0
v 0.1 1 0
v -0.2 1.1 0.2
v -0.1 1.1 0.2
v 0.2 1.1 0.2
v 0.3 1.1 0.2
v -0.3 1.1 0.1
v -0.2 1.1 0.1
v 0.3 1.1 0.1
v 0.4 1.1 0.1
v -0.3 1.1 0
v -0.1 1.1 0
v 0.2 1.1 0
v 0.4 1.1 0
v -0.3 1.2 0.3
v -0.2 1.2 0.3
v 0.3 1.2 0.3
v 0.4 1.2 0.3
v -0.3 1.2 0.2
v -0.2 1.2 0.2
v 0.3 1.2 0.2
v 0.4 1.2 0.2
v -0.4 1.2 0.1
v -0.3 1.2 0.1
v 0.4 1.2 0.1
v 0.5 1.2 0.1
v -0.4 1.2 0
v -0.3 1.2 0
v 0.4 1.2 0
v 0.5 1.2 0
v -0.2 1.4 0.3
v -0.1 1.4 0.3
v 0 1.4 0.3
v 0.1 1.4 0.3
v 0.2 1.4 0.3
v 0.3 1.4 0.3
v -0.2 1.4 0.2
v -0.1 1.4 0.2
v 0 1.4 0.2
v 0.1 1.4 0.2
v 0.2 1.4 0.2
v 0.3 1.4 0.2
v -0.1 1.5 0.3
v 0 1.5 0.3
v 0.1 1.5 0.3
v 0.2 1.5 0.3
v -0.1 1.5 0.2
v 0 1.5 0.2
v 0.1 1.5 0.2
v 0.2 1.5 0.2
v -0.2 0.1 0.1
v 0 0.1 0.1
v 0.1 0.1 0.1
v 0.3 0.1 0.1
v -0.2 0.1 0
v 0 0.1 0
v 0.1 0.1 0
v 0.3 0.1 0
v -0.2 1 0.1
v -0.1 1 0.1
v 0.2 1 0.1
v 0.3 1 0.1
v -0.7 1 0
v -0.6 1 0
v -0.3 1 0
v -0.2 1 0
v -0.1 1 0
v 0.2 1 0
v 0.3 1 0
v 0.4 1 0
v 0.7 1 0
v 0.8 1 0
v -0.7 1 -0.2
v -0.6 1 -0.2
v -0.3 1 -0.2
v 0.4 1 -0.2
v 0.7 1 -0.2
v 0.8 1 -0.2
v -0.4 1.3 0.1
v -0.3 1.3 0.1
v 0.4 1.3 0.1
v 0.5 1.3 0.1
v -0.4 1.3 0
v -0.3 1.3 0
v 0.4 1.3 0
v 0.5 1.3 0
v -0.3 1.4 0.2
v -0.2 1.4 0.2
v 0.3 1.4 0.2
v 0.4 1.4 0.2
v -0.3 1.4 -0.3
v -0.2 1.4 -0.3
v -0.1 1.4 -0.3
v 0.2 1.4 -0.3
v 0.3 1.4 -0.3
v 0.4 1.4 -0.3
v -0.2 1.4 -0.4
v -0.1 1.4 -0.4
v 0.2 1.4 -0.4
v 0.3 1.4 -0.4
v -0.3 1.5 0.3
v -0.2 1.5 0.3
v 0 1.5 0.3
v 0.1 1.5 0.3
v 0.3 1.5 0.3
v 0.4 1.5 0.3
v -0.3 1.5 0.2
v -0.2 1.5 0.2
v -0.1 1.5 0.2
v 0 1.5 0.2
v 0.1 1.5 0.2
v 0.2 1.5 0.2
v 0.3 1.5 0.2
v 0.4 1.5 0.2
v -0.2 1.5 -0.3
v -0.1 1.5 -0.3
v 0.2 1.5 -0.3
v 0.3 1.5 -0.3
v -0.1 1.5 -0.4
v 0.2 1.5 -0.4
v -0.2 1.6 0.3
v 0 1.6 0.3
v 0.1 1.6 0.3
v 0.3 1.6 0.3
v -0.2 1.6 0.2
v -0.1 1.6 0.2
v 0 1.6 0.2
v 0.1 1.6 0.2
v 0.2 1.6 0.2
v 0.3 1.6 0.2
v -0.1 1.6 -0.3
v 0.2 1.6 -0.3

# faces
f 3/1/1 2/1/1 1/1/1
f 4/1/1 2/1/1 3/1/1
f 7/1/1 6/1/1 5/1/1
f 8/1/1 6/1/1 7/1/1
f 14/4/1 12/4/1 11/4/1
f 15/4/1 10/4/1 9/4/1
f 16/4/1 14/4/1 13/4/1
f 18/4/1 15/4/1 9/4/1
f 19/1/1 16/1/1 15/1/1
f 19/4/1 15/4/1 18/4/1
f 20/4/1 14/4/1 16/4/1
f 20/1/1 16/1/1 19/1/1
f 21/4/1 18/4/1 17/4/1
f 21/4/1 19/4/1 18/4/1
f 22/4/1 14/4/1 20/4/1
f 23/4/1 21/4/1 17/4/1
f 23/4/1 22/4/1 21/4/1
f 24/4/1 14/4/1 22/4/1
f 24/4/1 22/4/1 23/4/1
f 24/4/1 12/4/1 14/4/1
f 25/4/1 23/4/1 17/4/1
f 26/4/1 23/4/1 25/4/1
f 29/3/1 28/3/1 27/3/1
f 30/3/1 28/3/1 29/3/1
f 31/3/1 28/3/1 30/3/1
f 33/5/1 31/5/1 30/5/1
f 34/5/1 31/5/1 33/5/1
f 36/6/1 34/6/1 33/6/1
f 36/6/1 35/6/1 34/6/1
f 36/6/1 33/6/1 32/6/1
f 38/6/1 36/6/1 32/6/1
f 39/6/1 36/6/1 38/6/1
f 40/6/1 36/6/1 39/6/1
f 41/4/1 37/4/1 36/4/1
f 41/6/1 36/6/1 40/6/1
f 42/6/1 39/6/1 38/6/1
f 43/6/1 39/6/1 42/6/1
f 45/4/1 37/4/1 41/4/1
f 46/4/1 37/4/1 45/4/1
f 48/4/1 45/4/1 44/4/1
f 49/4/1 45/4/1 48/4/1
f 50/4/1 48/4/1 47/4/1
f 51/4/1 48/4/1 50/4/1
f 55/1/1 53/1/1 52/1/1
f 55/1/1 54/1/1 53/1/1
f 56/1/1 54/1/1 55/1/1
f 60/4/1 58/4/1 57/4/1
f 61/4/1 58/4/1 60/4/1
f 62/4/1 60/4/1 59/4/1
f 63/4/1 60/4/1 62/4/1
f 66/4/1 65/4/1 64/4/1
f 67/4/1 65/4/1 66/4/1
f 70/3/1 69/3/1 68/3/1
f 71/3/1 69/3/1 70/3/1
f 72/3/1 69/3/1 71/3/1
f 73/5/1 72/5/1 71/5/1
f 74/5/1 72/5/1 73/5/1
f 77/6/1 76/6/1 75/6/1
f 78/6/1 77/6/1 75/6/1
f 79/6/1 77/6/1 78/6/1
f 82/4/1 81/4/1 80/4/1
f 83/4/1 81/4/1 82/4/1
f 86/4/1 85/4/1 84/4/1
f 87/4/1 85/4/1 86/4/1
f 90/4/1 89/4/1 88/4/1
f 91/4/1 90/4/1 88/4/1
f 92/4/1 90/4/1 91/4/1
f 95/4/1 94/4/1 93/4/1
f 96/4/1 95/4/1 93/4/1
f 97/4/1 95/4/1 96/4/1
f 98/4/2 99/4/2 100/4/2
f 98/4/2 100/4/2 101/4/2
f 101/4/2 100/4/2 102/4/2
f 103/4/2 104/4/2 105/4/2
f 103/4/2 105/4/2 106/4/2
f 106/4/2 105/4/2 107/4/2
f 108/4/2 109/4/2 110/4/2
f 110/4/2 109/4/2 111/4/2
f 112/3/2 113/3/2 114/3/2
f 114/3/2 113/3/2 115/3/2
f 115/3/2 113/3/2 116/3/2
f 115/5/2 116/5/2 117/5/2
f 117/5/2 116/5/2 118/5/2
f 119/6/2 120/6/2 121/6/2
f 119/6/2 121/6/2 122/6/2
f 122/6/2 121/6/2 123/6/2
f 124/4/2 125/4/2 126/4/2
f 126/4/2 125/4/2 127/4/2
f 128/4/2 129/4/2 130/4/2
f 130/4/2 129/4/2 131/4/2
f 132/1/2 133/1/2 135/1/2
f 133/1/2 134/1/2 135/1/2
f 135/1/2 134/1/2 136/1/2
f 137/4/2 138/4/2 140/4/2
f 140/4/2 138/4/2 141/4/2
f 139/4/2 140/4/2 142/4/2
f 142/4/2 140/4/2 143/4/2
f 144/3/2 145/3/2 146/3/2
f 146/3/2 145/3/2 147/3/2
f 147/3/2 145/3/2 148/3/2
f 147/5/2 148/5/2 150/5/2
f 150/5/2 148/5/2 151/5/2
f 150/6/2 151/6/2 153/6/2
f 151/6/2 152/6/2 153/6/2
f 149/6/2 150/6/2 153/6/2
f 149/6/2 153/6/2 155/6/2
f 155/6/2 153/6/2 156/6/2
f 156/6/2 153/6/2 157/6/2
f 153/4/2 154/4/2 158/4/2
f 157/6/2 153/6/2 158/6/2
f 155/6/2 156/6/2 159/6/2
f 159/6/2 156/6/2 160/6/2
f 158/4/2 154/4/2 162/4/2
f 162/4/2 154/4/2 163/4/2
f 161/4/2 162/4/2 165/4/2
f 165/4/2 162/4/2 166/4/2
f 164/4/2 165/4/2 167/4/2
f 167/4/2 165/4/2 168/4/2
f 171/4/2 172/4/2 174/4/2
f 169/4/2 170/4/2 175/4/2
f 173/4/2 174/4/2 176/4/2
f 169/4/2 175/4/2 178/4/2
f 175/1/2 176/1/2 179/1/2
f 178/4/2 175/4/2 179/4/2
f 176/4/2 174/4/2 180/4/2
f 179/1/2 176/1/2 180/1/2
f 177/4/2 178/4/2 181/4/2
f 178/4/2 179/4/2 181/4/2
f 180/4/2 174/4/2 182/4/2
f 177/4/2 181/4/2 183/4/2
f 181/4/2 182/4/2 183/4/2
f 182/4/2 174/4/2 184/4/2
f 183/4/2 182/4/2 184/4/2
f 174/4/2 172/4/2 184/4/2
f 177/4/2 183/4/2 185/4/2
f 185/4/2 183/4/2 186/4/2
f 187/1/2 188/1/2 189/1/2
f 189/1/2 188/1/2 190/1/2
f 191/1/2 192/1/2 193/1/2
f 193/1/2 192/1/2 194/1/2
f 197/4/3 196/4/3 195/4/3
f 198/4/3 196/4/3 197/4/3
f 199/4/3 196/4/3 198/4/3
f 201/4/3 200/4/3 199/4/3
f 201/4/3 199/4/3 198/4/3
f 202/4/3 200/4/3 201/4/3
f 204/4/3 200/4/3 202/4/3
f 205/4/3 200/4/3 204/4/3
f 206/4/3 204/4/3 203/4/3
f 207/4/3 204/4/3 206/4/3
f 210/4/3 208/4/3 207/4/3
f 212/4/3 210/4/3 209/4/3
f 213/4/3 208/4/3 210/4/3
f 213/4/3 210/4/3 212/4/3
f 214/4/3 208/4/3 213/4/3
f 215/4/3 212/4/3 211/4/3
f 215/4/3 213/4/3 212/4/3
f 216/4/3 213/4/3 215/4/3
f 219/4/3 218/4/3 217/4/3
f 220/4/3 218/4/3 219/4/3
f 221/4/3 218/4/3 220/4/3
f 225/1/3 221/1/3 220/1/3
f 226/4/3 222/4/3 221/4/3
f 226/1/3 221/1/3 225/1/3
f 227/1/3 223/1/3 222/1/3
f 229/1/3 225/1/3 224/1/3
f 229/8/3 226/8/3 225/8/3
f 230/4/3 222/4/3 226/4/3
f 230/8/3 226/8/3 229/8/3
f 231/1/3 228/1/3 227/1/3
f 231/4/3 222/4/3 230/4/3
f 231/1/3 227/1/3 222/1/3
f 232/1/3 228/1/3 231/1/3
f 233/1/3 228/1/3 232/1/3
f 235/1/3 229/1/3 224/1/3
f 235/1/3 230/1/3 229/1/3
f 235/1/3 232/1/3 231/1/3
f 235/1/3 231/1/3 230/1/3
f 236/1/3 232/1/3 235/1/3
f 237/1/3 232/1/3 236/1/3
f 238/1/3 232/1/3 237/1/3
f 239/4/3 234/4/3 233/4/3
f 240/4/3 234/4/3 239/4/3
f 241/1/3 235/1/3 224/1/3
f 242/8/3 236/8/3 235/8/3
f 242/1/3 235/1/3 241/1/3
f 243/4/3 237/4/3 236/4/3
f 243/8/3 236/8/3 242/8/3
f 244/1/3 238/1/3 237/1/3
f 244/1/3 239/1/3 238/1/3
f 245/1/3 239/1/3 244/1/3
f 247/1/3 243/1/3 242/1/3
f 248/4/3 237/4/3 243/4/3
f 248/1/3 243/1/3 247/1/3
f 249/1/3 244/1/3 237/1/3
f 249/4/3 237/4/3 248/4/3
f 250/1/3 244/1/3 249/1/3
f 251/4/3 247/4/3 246/4/3
f 251/4/3 248/4/3 247/4/3
f 252/4/3 248/4/3 251/4/3
f 255/1/3 254/1/3 253/1/3
f 256/1/3 254/1/3 255/1/3
f 262/6/3 260/6/3 259/6/3
f 262/6/3 261/6/3 260/6/3
f 263/3/3 258/3/3 257/3/3
f 264/3/3 258/3/3 263/3/3
f 265/6/3 262/6/3 259/6/3
f 266/6/3 262/6/3 265/6/3
f 271/6/3 270/6/3 269/6/3
f 272/3/3 268/3/3 267/3/3
f 273/3/3 268/3/3 272/3/3
f 274/6/3 271/6/3 269/6/3
f 275/6/3 271/6/3 274/6/3
f 276/6/3 271/6/3 275/6/3
f 279/1/3 278/1/3 277/1/3
f 280/1/3 278/1/3 279/1/3
f 283/1/3 282/1/3 281/1/3
f 284/1/3 282/1/3 283/1/3
f 285/7/3 284/7/3 283/7/3
f 289/7/3 285/7/3 283/7/3
f 290/4/3 286/4/3 285/4/3
f 290/7/3 285/7/3 289/7/3
f 291/4/3 286/4/3 290/4/3
f 292/4/3 286/4/3 291/4/3
f 293/5/3 288/5/3 287/5/3
f 294/5/3 288/5/3 293/5/3
f 295/5/3 288/5/3 294/5/3
f 299/5/3 295/5/3 294/5/3
f 300/7/3 296/7/3 295/7/3
f 300/5/3 295/5/3 299/5/3
f 301/1/3 297/1/3 296/1/3
f 301/7/3 296/7/3 300/7/3
f 302/1/3 297/1/3 301/1/3
f 305/5/3 300/5/3 299/5/3
f 305/5/3 299/5/3 298/5/3
f 306/5/3 300/5/3 305/5/3
f 308/4/3 304/4/3 303/4/3
f 309/7/3 308/7/3 307/7/3
f 309/4/3 304/4/3 308/4/3
f 310/4/3 304/4/3 309/4/3
f 311/7/3 309/7/3 307/7/3
f 312/7/3 309/7/3 311/7/3
f 313/1/3 312/1/3 311/1/3
f 314/1/3 312/1/3 313/1/3
f 315/4/4 316/4/4 317/4/4
f 317/4/4 316/4/4 318/4/4
f 318/4/4 319/4/4 320/4/4
f 320/4/4 319/4/4 321/4/4
f 322/4/4 323/4/4 325/4/4
f 325/4/4 323/4/4 326/4/4
f 324/4/4 325/4/4 327/4/4
f 327/4/4 325/4/4 328/4/4
f 329/4/4 330/4/4 331/4/4
f 331/4/4 330/4/4 332/4/4
f 332/4/4 330/4/4 333/4/4
f 334/4/4 335/4/4 337/4/4
f 335/4/4 336/4/4 337/4/4
f 337/4/4 336/4/4 338/4/4
f 339/1/4 340/1/4 341/1/4
f 341/1/4 340/1/4 342/1/4
f 343/1/4 344/1/4 345/1/4
f 345/1/4 344/1/4 346/1/4
f 347/1/4 348/1/4 349/1/4
f 349/1/4 348/1/4 350/1/4
f 349/7/4 350/7/4 351/7/4
f 351/7/4 350/7/4 352/7/4
f 353/3/4 354/3/4 356/3/4
f 354/5/4 355/5/4 357/5/4
f 356/3/4 354/3/4 357/3/4
f 357/5/4 355/5/4 358/5/4
f 358/5/4 355/5/4 361/5/4
f 359/3/4 360/3/4 362/3/4
f 360/5/4 361/5/4 363/5/4
f 362/3/4 360/3/4 363/3/4
f 361/5/4 355/5/4 364/5/4
f 363/5/4 361/5/4 364/5/4
f 365/7/4 366/7/4 367/7/4
f 367/7/4 366/7/4 368/7/4
f 367/1/4 368/1/4 369/1/4
f 369/1/4 368/1/4 370/1/4
f 371/4/4 372/4/4 375/4/4
f 375/4/4 372/4/4 376/4/4
f 376/4/4 377/4/4 378/4/4
f 378/4/4 377/4/4 379/4/4
f 379/4/4 380/4/4 382/4/4
f 382/4/4 380/4/4 383/4/4
f 373/6/4 374/6/4 384/6/4
f 384/6/4 374/6/4 385/6/4
f 381/4/4 382/4/4 387/4/4
f 387/4/4 382/4/4 388/4/4
f 386/4/4 387/4/4 389/4/4
f 389/4/4 387/4/4 390/4/4
f 391/4/4 392/4/4 393/4/4
f 391/4/4 393/4/4 395/4/4
f 393/4/4 394/4/4 395/4/4
f 395/4/4 394/4/4 396/4/4
f 391/4/4 395/4/4 397/4/4
f 397/4/4 395/4/4 398/4/4
f 403/3/5 400/3/5 399/3/5
f 404/3/5 400/3/5 403/3/5
f 405/3/5 402/3/5 401/3/5
f 406/3/5 402/3/5 405/3/5
f 409/5/5 408/5/5 407/5/5
f 410/5/5 408/5/5 409/5/5
f 415/6/5 412/6/5 411/6/5
f 416/6/5 412/6/5 415/6/5
f 417/6/5 414/6/5 413/6/5
f 418/6/5 414/6/5 417/6/5
f 421/6/5 420/6/5 419/6/5
f 422/6/5 420/6/5 421/6/5
f 425/4/5 424/4/5 423/4/5
f 426/4/5 424/4/5 425/4/5
f 431/4/5 428/4/5 427/4/5
f 432/4/5 428/4/5 431/4/5
f 433/4/5 430/4/5 429/4/5
f 434/4/5 430/4/5 433/4/5
f 441/1/5 436/1/5 435/1/5
f 442/7/5 437/7/5 436/7/5
f 442/1/5 436/1/5 441/1/5
f 443/7/5 437/7/5 442/7/5
f 444/7/5 437/7/5 443/7/5
f 445/7/5 439/7/5 438/7/5
f 446/7/5 439/7/5 445/7/5
f 447/1/5 440/1/5 439/1/5
f 447/7/5 439/7/5 446/7/5
f 448/1/5 440/1/5 447/1/5
f 449/4/5 444/4/5 443/4/5
f 450/4/5 444/4/5 449/4/5
f 451/4/5 446/4/5 445/4/5
f 452/4/5 446/4/5 451/4/5
f 455/1/5 454/1/5 453/1/5
f 456/1/5 454/1/5 455/1/5
f 457/1/5 454/1/5 456/1/5
f 458/1/5 454/1/5 457/1/5
f 459/1/5 457/1/5 456/1/5
f 460/1/5 457/1/5 459/1/5
f 466/1/5 462/1/5 461/1/5
f 467/1/5 464/1/5 463/1/5
f 469/1/5 466/1/5 465/1/5
f 470/1/5 462/1/5 466/1/5
f 470/1/5 466/1/5 469/1/5
f 471/1/5 468/1/5 467/1/5
f 471/1/5 467/1/5 463/1/5
f 472/1/5 468/1/5 471/1/5
f 477/4/5 474/4/5 473/4/5
f 478/4/5 474/4/5 477/4/5
f 479/4/5 476/4/5 475/4/5
f 480/4/5 476/4/5 479/4/5
f 485/1/5 482/1/5 481/1/5
f 486/1/5 482/1/5 485/1/5
f 487/1/5 484/1/5 483/1/5
f 488/1/5 484/1/5 487/1/5
f 495/4/5 490/4/5 489/4/5
f 496/4/5 490/4/5 495/4/5
f 497/4/5 492/4/5 491/4/5
f 498/4/5 492/4/5 497/4/5
f 499/4/5 494/4/5 493/4/5
f 500/4/5 494/4/5 499/4/5
f 505/4/5 502/4/5 501/4/5
f 506/4/5 502/4/5 505/4/5
f 507/4/5 504/4/5 503/4/5
f 508/4/5 504/4/5 507/4/5
f 509/3/6 510/3/6 513/3/6
f 513/3/6 510/3/6 514/3/6
f 511/3/6 512/3/6 515/3/6
f 515/3/6 512/3/6 516/3/6
f 517/6/6 518/6/6 524/6/6
f 524/6/6 518/6/6 525/6/6
f 519/6/6 520/6/6 526/6/6
f 526/6/6 520/6/6 527/6/6
f 521/1/6 522/1/6 531/1/6
f 522/7/6 523/7/6 532/7/6
f 531/1/6 522/1/6 532/1/6
f 532/7/6 523/7/6 533/7/6
f 528/7/6 529/7/6 534/7/6
f 529/1/6 530/1/6 535/1/6
f 534/7/6 529/7/6 535/7/6
f 535/1/6 530/1/6 536/1/6
f 537/1/6 538/1/6 541/1/6
f 541/1/6 538/1/6 542/1/6
f 539/1/6 540/1/6 543/1/6
f 543/1/6 540/1/6 544/1/6
f 545/4/6 546/4/6 549/4/6
f 549/4/6 546/4/6 550/4/6
f 547/4/6 548/4/6 553/4/6
f 553/4/6 548/4/6 554/4/6
f 550/4/6 551/4/6 555/4/6
f 555/4/6 551/4/6 556/4/6
f 552/4/6 553/4/6 557/4/6
f 557/4/6 553/4/6 558/4/6
f 559/4/6 560/4/6 565/4/6
f 565/4/6 560/4/6 566/4/6
f 561/4/6 562/4/6 568/4/6
f 568/4/6 562/4/6 569/4/6
f 563/4/6 564/4/6 571/4/6
f 571/4/6 564/4/6 572/4/6
f 566/4/6 567/4/6 573/4/6
f 573/4/6 567/4/6 574/4/6
f 570/4/6 571/4/6 575/4/6
f 575/4/6 571/4/6 576/4/6
f 574/4/6 575/4/6 577/4/6
f 577/4/6 575/4/6 578/4/6
f 579/4/6 580/4/6 583/4/6
f 583/4/6 580/4/6 584/4/6
f 584/4/6 580/4/6 585/4/6
f 581/4/6 582/4/6 586/4/6
f 586/4/6 582/4/6 587/4/6
f 587/4/6 582/4/6 588/4/6
f 584/4/6 585/4/6 589/4/6
f 586/4/6 587/4/6 589/4/6
f 585/4/6 586/4/6 589/4/6
f 589/4/6 587/4/6 590/4/6
