# MagicaVoxel @ Ephtracy

# group
o 

# material
mtllib persona3.vox.mtl
usemtl palette

# normals
vn -1 0 0
vn 1 0 0
vn 0 0 1
vn 0 0 -1
vn 0 -1 0
vn 0 1 0

# texcoords
vt 0.130859 0.5
vt 0.142578 0.5
vt 0.267578 0.5
vt 0.541016 0.5
vt 0.544922 0.5
vt 0.970703 0.5
vt 0.986328 0.5
vt 0.990234 0.5

# verts
v -0.4 1.2 0.1
v -0.4 1.2 0
v -0.4 1.3 0.1
v -0.4 1.3 0
v -0.3 0.4 0
v -0.3 0.4 -0.2
v -0.3 0.5 0
v -0.3 0.5 -0.2
v -0.3 0.8 -0.2
v -0.3 0.8 -0.3
v -0.3 0.9 0.2
v -0.3 0.9 0.1
v -0.3 0.9 0
v -0.3 0.9 -0.2
v -0.3 1.1 0.1
v -0.3 1.1 0
v -0.3 1.2 0.3
v -0.3 1.2 0.2
v -0.3 1.2 0.1
v -0.3 1.2 0
v -0.3 1.3 0.1
v -0.3 1.3 0
v -0.3 1.4 0.2
v -0.3 1.4 -0.3
v -0.3 1.5 0.3
v -0.3 1.5 0.2
v -0.2 0 0.1
v -0.2 0 -0.2
v -0.2 0.1 0.1
v -0.2 0.1 0
v -0.2 0.1 -0.2
v -0.2 0.4 0
v -0.2 0.4 -0.2
v -0.2 0.5 0.1
v -0.2 0.5 0
v -0.2 0.5 -0.2
v -0.2 0.5 -0.3
v -0.2 0.8 -0.2
v -0.2 0.8 -0.3
v -0.2 0.8 -0.4
v -0.2 0.9 0.1
v -0.2 0.9 0
v -0.2 1 0.1
v -0.2 1 0
v -0.2 1.4 0.2
v -0.2 1.4 -0.3
v -0.2 1.4 -0.4
v -0.2 1.5 0.3
v -0.2 1.5 0.2
v -0.2 1.5 -0.3
v -0.2 1.6 0.3
v -0.2 1.6 0.2
v -0.1 1 0.2
v -0.1 1 0.1
v -0.1 1 0
v -0.1 1.1 0.2
v -0.1 1.1 0
v -0.1 1.4 -0.3
v -0.1 1.4 -0.4
v -0.1 1.5 0.2
v -0.1 1.5 -0.3
v -0.1 1.5 -0.4
v -0.1 1.6 0.2
v -0.1 1.6 -0.3
v 0 1.4 0.3
v 0 1.4 0.2
v 0 1.5 0.3
v 0 1.5 0.2
v 0.1 0 0.1
v 0.1 0 -0.2
v 0.1 0.1 0.1
v 0.1 0.1 0
v 0.1 0.1 -0.2
v 0.1 0.4 0
v 0.1 0.4 -0.2
v 0.1 0.5 0.1
v 0.1 0.5 0
v 0.1 0.9 0
v 0.1 1 0.1
v 0.1 1 0
v 0.1 1.5 0.3
v 0.1 1.5 0.2
v 0.1 1.6 0.3
v 0.1 1.6 0.2
v 0.2 1.4 0.3
v 0.2 1.4 0.2
v 0.2 1.5 0.3
v 0.2 1.5 0.2
v 0.3 0.9 0.2
v 0.3 0.9 0.1
v 0.3 1 0.1
v 0.3 1.1 0.2
v 0.3 1.1 0.1
v 0.3 1.2 0.3
v 0.3 1.2 0.2
v 0.3 1.3 0.2
v 0.3 1.4 0.3
v 0.3 1.4 0.2
v -0.2 0.9 0.2
v -0.2 0.9 0.1
v -0.2 1 0.1
v -0.2 1.1 0.2
v -0.2 1.1 0.1
v -0.2 1.2 0.3
v -0.2 1.2 0.2
v -0.2 1.3 0.2
v -0.2 1.4 0.3
v -0.2 1.4 0.2
v -0.1 1.4 0.3
v -0.1 1.4 0.2
v -0.1 1.5 0.3
v -0.1 1.5 0.2
v 0 0 0.1
v 0 0 -0.2
v 0 0.1 0.1
v 0 0.1 0
v 0 0.1 -0.2
v 0 0.4 0
v 0 0.4 -0.2
v 0 0.5 0.1
v 0 0.5 0
v 0 0.9 0
v 0 1 0.1
v 0 1 0
v 0 1.5 0.3
v 0 1.5 0.2
v 0 1.6 0.3
v 0 1.6 0.2
v 0.1 1.4 0.3
v 0.1 1.4 0.2
v 0.1 1.5 0.3
v 0.1 1.5 0.2
v 0.2 1 0.2
v 0.2 1 0.1
v 0.2 1 0
v 0.2 1.1 0.2
v 0.2 1.1 0
v 0.2 1.4 -0.3
v 0.2 1.4 -0.4
v 0.2 1.5 0.2
v 0.2 1.5 -0.3
v 0.2 1.5 -0.4
v 0.2 1.6 0.2
v 0.2 1.6 -0.3
v 0.3 0 0.1
v 0.3 0 -0.2
v 0.3 0.1 0.1
v 0.3 0.1 0
v 0.3 0.1 -0.2
v 0.3 0.4 0
v 0.3 0.4 -0.2
v 0.3 0.5 0.1
v 0.3 0.5 0
v 0.3 0.5 -0.2
v 0.3 0.5 -0.3
v 0.3 0.8 -0.2
v 0.3 0.8 -0.3
v 0.3 0.8 -0.4
v 0.3 0.9 0.1
v 0.3 0.9 0
v 0.3 1 0.1
v 0.3 1 0
v 0.3 1.4 0.2
v 0.3 1.4 -0.3
v 0.3 1.4 -0.4
v 0.3 1.5 0.3
v 0.3 1.5 0.2
v 0.3 1.5 -0.3
v 0.3 1.6 0.3
v 0.3 1.6 0.2
v 0.4 0.4 0
v 0.4 0.4 -0.2
v 0.4 0.5 0
v 0.4 0.5 -0.2
v 0.4 0.8 -0.2
v 0.4 0.8 -0.3
v 0.4 0.9 0.2
v 0.4 0.9 0.1
v 0.4 0.9 0
v 0.4 0.9 -0.2
v 0.4 1.1 0.1
v 0.4 1.1 0
v 0.4 1.2 0.3
v 0.4 1.2 0.2
v 0.4 1.2 0.1
v 0.4 1.2 0
v 0.4 1.3 0.1
v 0.4 1.3 0
v 0.4 1.4 0.2
v 0.4 1.4 -0.3
v 0.4 1.5 0.3
v 0.4 1.5 0.2
v 0.5 1.2 0.1
v 0.5 1.2 0
v 0.5 1.3 0.1
v 0.5 1.3 0
v -0.3 1.2 0.3
v -0.3 1.5 0.3
v -0.2 1.2 0.3
v -0.2 1.4 0.3
v -0.2 1.5 0.3
v -0.2 1.6 0.3
v -0.1 1.4 0.3
v -0.1 1.5 0.3
v 0 1.4 0.3
v 0 1.5 0.3
v 0 1.6 0.3
v 0.1 1.4 0.3
v 0.1 1.5 0.3
v 0.1 1.6 0.3
v 0.2 1.4 0.3
v 0.2 1.5 0.3
v 0.3 1.2 0.3
v 0.3 1.4 0.3
v 0.3 1.5 0.3
v 0.3 1.6 0.3
v 0.4 1.2 0.3
v 0.4 1.5 0.3
v -0.3 0.9 0.2
v -0.3 1.2 0.2
v -0.2 0.9 0.2
v -0.2 1.1 0.2
v -0.2 1.2 0.2
v -0.2 1.3 0.2
v -0.2 1.4 0.2
v -0.1 1 0.2
v -0.1 1.1 0.2
v -0.1 1.2 0.2
v -0.1 1.4 0.2
v -0.1 1.5 0.2
v 0 1.1 0.2
v 0 1.2 0.2
v 0 1.3 0.2
v 0 1.4 0.2
v 0 1.5 0.2
v 0 1.6 0.2
v 0.1 1.1 0.2
v 0.1 1.2 0.2
v 0.1 1.3 0.2
v 0.1 1.4 0.2
v 0.1 1.5 0.2
v 0.1 1.6 0.2
v 0.2 1 0.2
v 0.2 1.1 0.2
v 0.2 1.2 0.2
v 0.2 1.4 0.2
v 0.2 1.5 0.2
v 0.3 0.9 0.2
v 0.3 1.1 0.2
v 0.3 1.2 0.2
v 0.3 1.3 0.2
v 0.3 1.4 0.2
v 0.4 0.9 0.2
v 0.4 1.2 0.2
v -0.4 1.2 0.1
v -0.4 1.3 0.1
v -0.3 1.2 0.1
v -0.3 1.3 0.1
v -0.2 0 0.1
v -0.2 0.1 0.1
v -0.2 0.5 0.1
v -0.2 0.9 0.1
v -0.2 1 0.1
v -0.1 1 0.1
v 0 0 0.1
v 0 0.1 0.1
v 0 0.5 0.1
v 0 1 0.1
v 0.1 0 0.1
v 0.1 0.1 0.1
v 0.1 0.5 0.1
v 0.1 1 0.1
v 0.2 1 0.1
v 0.3 0 0.1
v 0.3 0.1 0.1
v 0.3 0.5 0.1
v 0.3 0.9 0.1
v 0.3 1 0.1
v 0.4 1.2 0.1
v 0.4 1.3 0.1
v 0.5 1.2 0.1
v 0.5 1.3 0.1
v -0.3 0.4 0
v -0.3 0.5 0
v -0.3 0.9 0
v -0.3 1.1 0
v -0.2 0.1 0
v -0.2 0.4 0
v -0.2 0.5 0
v -0.2 0.9 0
v -0.2 1 0
v -0.1 1 0
v -0.1 1.1 0
v 0 0.1 0
v 0 0.4 0
v 0 0.5 0
v 0 0.9 0
v 0 1 0
v 0.1 0.1 0
v 0.1 0.4 0
v 0.1 0.5 0
v 0.1 0.9 0
v 0.1 1 0
v 0.2 1 0
v 0.2 1.1 0
v 0.3 0.1 0
v 0.3 0.4 0
v 0.3 0.5 0
v 0.3 0.9 0
v 0.3 1 0
v 0.4 0.4 0
v 0.4 0.5 0
v 0.4 0.9 0
v 0.4 1.1 0
v -0.3 1.4 0.2
v -0.3 1.5 0.2
v -0.2 1.4 0.2
v -0.2 1.5 0.2
v -0.2 1.6 0.2
v -0.1 1.5 0.2
v -0.1 1.6 0.2
v 0.2 1.5 0.2
v 0.2 1.6 0.2
v 0.3 1.4 0.2
v 0.3 1.5 0.2
v 0.3 1.6 0.2
v 0.4 1.4 0.2
v 0.4 1.5 0.2
v -0.3 0.9 0.1
v -0.3 1.1 0.1
v -0.2 0.9 0.1
v -0.2 1 0.1
v -0.2 1.1 0.1
v 0.3 0.9 0.1
v 0.3 1 0.1
v 0.3 1.1 0.1
v 0.4 0.9 0.1
v 0.4 1.1 0.1
v -0.4 1.2 0
v -0.4 1.3 0
v -0.3 1.2 0
v -0.3 1.3 0
v 0.4 1.2 0
v 0.4 1.3 0
v 0.5 1.2 0
v 0.5 1.3 0
v -0.3 0.4 -0.2
v -0.3 0.5 -0.2
v -0.3 0.8 -0.2
v -0.2 0 -0.2
v -0.2 0.1 -0.2
v -0.2 0.4 -0.2
v -0.2 0.5 -0.2
v -0.2 0.8 -0.2
v 0 0 -0.2
v 0 0.1 -0.2
v 0 0.4 -0.2
v 0.1 0 -0.2
v 0.1 0.1 -0.2
v 0.1 0.4 -0.2
v 0.3 0 -0.2
v 0.3 0.1 -0.2
v 0.3 0.4 -0.2
v 0.3 0.5 -0.2
v 0.3 0.8 -0.2
v 0.4 0.4 -0.2
v 0.4 0.5 -0.2
v 0.4 0.8 -0.2
v -0.3 0.8 -0.3
v -0.3 1.4 -0.3
v -0.2 0.5 -0.3
v -0.2 0.8 -0.3
v -0.2 1.4 -0.3
v -0.2 1.5 -0.3
v -0.1 1.4 -0.3
v -0.1 1.5 -0.3
v -0.1 1.6 -0.3
v 0.2 1.4 -0.3
v 0.2 1.5 -0.3
v 0.2 1.6 -0.3
v 0.3 0.5 -0.3
v 0.3 0.8 -0.3
v 0.3 1.4 -0.3
v 0.3 1.5 -0.3
v 0.4 0.8 -0.3
v 0.4 1.4 -0.3
v -0.2 0.8 -0.4
v -0.2 1.4 -0.4
v -0.1 1.4 -0.4
v -0.1 1.5 -0.4
v 0.2 1.4 -0.4
v 0.2 1.5 -0.4
v 0.3 0.8 -0.4
v 0.3 1.4 -0.4
v -0.2 0 0.1
v 0 0 0.1
v 0.1 0 0.1
v 0.3 0 0.1
v -0.2 0 -0.2
v 0 0 -0.2
v 0.1 0 -0.2
v 0.3 0 -0.2
v -0.3 0.4 0
v -0.2 0.4 0
v 0 0.4 0
v 0.1 0.4 0
v 0.3 0.4 0
v 0.4 0.4 0
v -0.3 0.4 -0.2
v -0.2 0.4 -0.2
v 0 0.4 -0.2
v 0.1 0.4 -0.2
v 0.3 0.4 -0.2
v 0.4 0.4 -0.2
v -0.2 0.5 0.1
v 0 0.5 0.1
v 0.1 0.5 0.1
v 0.3 0.5 0.1
v -0.2 0.5 0
v 0 0.5 0
v 0.1 0.5 0
v 0.3 0.5 0
v -0.2 0.5 -0.2
v 0.3 0.5 -0.2
v -0.2 0.5 -0.3
v 0.3 0.5 -0.3
v -0.3 0.8 -0.2
v -0.2 0.8 -0.2
v 0.3 0.8 -0.2
v 0.4 0.8 -0.2
v -0.3 0.8 -0.3
v -0.2 0.8 -0.3
v 0.3 0.8 -0.3
v 0.4 0.8 -0.3
v -0.2 0.8 -0.4
v 0.3 0.8 -0.4
v -0.3 0.9 0.2
v -0.2 0.9 0.2
v 0.3 0.9 0.2
v 0.4 0.9 0.2
v -0.3 0.9 0.1
v -0.2 0.9 0.1
v 0.3 0.9 0.1
v 0.4 0.9 0.1
v -0.1 1 0.2
v 0.2 1 0.2
v -0.1 1 0.1
v 0 1 0.1
v 0.1 1 0.1
v 0.2 1 0.1
v 0 1 0
v 0.1 1 0
v -0.2 1.1 0.2
v -0.1 1.1 0.2
v 0.2 1.1 0.2
v 0.3 1.1 0.2
v -0.3 1.1 0.1
v -0.2 1.1 0.1
v 0.3 1.1 0.1
v 0.4 1.1 0.1
v -0.3 1.1 0
v -0.1 1.1 0
v 0.2 1.1 0
v 0.4 1.1 0
v -0.3 1.2 0.3
v -0.2 1.2 0.3
v 0.3 1.2 0.3
v 0.4 1.2 0.3
v -0.3 1.2 0.2
v -0.2 1.2 0.2
v 0.3 1.2 0.2
v 0.4 1.2 0.2
v -0.4 1.2 0.1
v -0.3 1.2 0.1
v 0.4 1.2 0.1
v 0.5 1.2 0.1
v -0.4 1.2 0
v -0.3 1.2 0
v 0.4 1.2 0
v 0.5 1.2 0
v -0.2 1.4 0.3
v -0.1 1.4 0.3
v 0 1.4 0.3
v 0.1 1.4 0.3
v 0.2 1.4 0.3
v 0.3 1.4 0.3
v -0.2 1.4 0.2
v -0.1 1.4 0.2
v 0 1.4 0.2
v 0.1 1.4 0.2
v 0.2 1.4 0.2
v 0.3 1.4 0.2
v -0.1 1.5 0.3
v 0 1.5 0.3
v 0.1 1.5 0.3
v 0.2 1.5 0.3
v -0.1 1.5 0.2
v 0 1.5 0.2
v 0.1 1.5 0.2
v 0.2 1.5 0.2
v -0.2 0.1 0.1
v 0 0.1 0.1
v 0.1 0.1 0.1
v 0.3 0.1 0.1
v -0.2 0.1 0
v 0 0.1 0
v 0.1 0.1 0
v 0.3 0.1 0
v -0.2 1 0.1
v -0.1 1 0.1
v 0.2 1 0.1
v 0.3 1 0.1
v -0.2 1 0
v -0.1 1 0
v 0.2 1 0
v 0.3 1 0
v -0.4 1.3 0.1
v -0.3 1.3 0.1
v 0.4 1.3 0.1
v 0.5 1.3 0.1
v -0.4 1.3 0
v -0.3 1.3 0
v 0.4 1.3 0
v 0.5 1.3 0
v -0.3 1.4 0.2
v -0.2 1.4 0.2
v 0.3 1.4 0.2
v 0.4 1.4 0.2
v -0.3 1.4 -0.3
v -0.2 1.4 -0.3
v -0.1 1.4 -0.3
v 0.2 1.4 -0.3
v 0.3 1.4 -0.3
v 0.4 1.4 -0.3
v -0.2 1.4 -0.4
v -0.1 1.4 -0.4
v 0.2 1.4 -0.4
v 0.3 1.4 -0.4
v -0.3 1.5 0.3
v -0.2 1.5 0.3
v 0 1.5 0.3
v 0.1 1.5 0.3
v 0.3 1.5 0.3
v 0.4 1.5 0.3
v -0.3 1.5 0.2
v -0.2 1.5 0.2
v -0.1 1.5 0.2
v 0 1.5 0.2
v 0.1 1.5 0.2
v 0.2 1.5 0.2
v 0.3 1.5 0.2
v 0.4 1.5 0.2
v -0.2 1.5 -0.3
v -0.1 1.5 -0.3
v 0.2 1.5 -0.3
v 0.3 1.5 -0.3
v -0.1 1.5 -0.4
v 0.2 1.5 -0.4
v -0.2 1.6 0.3
v 0 1.6 0.3
v 0.1 1.6 0.3
v 0.3 1.6 0.3
v -0.2 1.6 0.2
v -0.1 1.6 0.2
v 0 1.6 0.2
v 0.1 1.6 0.2
v 0.2 1.6 0.2
v 0.3 1.6 0.2
v -0.1 1.6 -0.3
v 0.2 1.6 -0.3

# faces
f 3/1/1 2/1/1 1/1/1
f 4/1/1 2/1/1 3/1/1
f 7/1/1 6/1/1 5/1/1
f 8/1/1 6/1/1 7/1/1
f 9/4/1 8/4/1 7/4/1
f 13/4/1 9/4/1 7/4/1
f 14/3/1 10/3/1 9/3/1
f 14/4/1 9/4/1 13/4/1
f 15/3/1 12/3/1 11/3/1
f 16/3/1 14/3/1 13/3/1
f 18/3/1 15/3/1 11/3/1
f 19/1/1 16/1/1 15/1/1
f 19/3/1 15/3/1 18/3/1
f 20/3/1 14/3/1 16/3/1
f 20/1/1 16/1/1 19/1/1
f 21/3/1 18/3/1 17/3/1
f 21/3/1 19/3/1 18/3/1
f 22/3/1 14/3/1 20/3/1
f 23/3/1 21/3/1 17/3/1
f 23/3/1 22/3/1 21/3/1
f 24/3/1 10/3/1 14/3/1
f 24/3/1 22/3/1 23/3/1
f 24/3/1 14/3/1 22/3/1
f 25/3/1 23/3/1 17/3/1
f 26/3/1 23/3/1 25/3/1
f 29/8/1 28/8/1 27/8/1
f 30/8/1 28/8/1 29/8/1
f 31/8/1 28/8/1 30/8/1
f 32/6/1 31/6/1 30/6/1
f 33/6/1 31/6/1 32/6/1
f 38/5/1 37/5/1 36/5/1
f 39/5/1 37/5/1 38/5/1
f 41/5/1 35/5/1 34/5/1
f 42/5/1 35/5/1 41/5/1
f 43/5/1 42/5/1 41/5/1
f 44/5/1 42/5/1 43/5/1
f 46/3/1 40/3/1 39/3/1
f 47/3/1 40/3/1 46/3/1
f 49/3/1 46/3/1 45/3/1
f 50/3/1 46/3/1 49/3/1
f 51/3/1 49/3/1 48/3/1
f 52/3/1 49/3/1 51/3/1
f 56/1/1 54/1/1 53/1/1
f 56/1/1 55/1/1 54/1/1
f 57/1/1 55/1/1 56/1/1
f 61/3/1 59/3/1 58/3/1
f 62/3/1 59/3/1 61/3/1
f 63/3/1 61/3/1 60/3/1
f 64/3/1 61/3/1 63/3/1
f 67/3/1 66/3/1 65/3/1
f 68/3/1 66/3/1 67/3/1
f 71/8/1 70/8/1 69/8/1
f 72/8/1 70/8/1 71/8/1
f 73/8/1 70/8/1 72/8/1
f 74/6/1 73/6/1 72/6/1
f 75/6/1 73/6/1 74/6/1
f 78/5/1 77/5/1 76/5/1
f 79/5/1 78/5/1 76/5/1
f 80/5/1 78/5/1 79/5/1
f 83/3/1 82/3/1 81/3/1
f 84/3/1 82/3/1 83/3/1
f 87/3/1 86/3/1 85/3/1
f 88/3/1 86/3/1 87/3/1
f 91/3/1 90/3/1 89/3/1
f 92/3/1 91/3/1 89/3/1
f 93/3/1 91/3/1 92/3/1
f 96/3/1 95/3/1 94/3/1
f 97/3/1 96/3/1 94/3/1
f 98/3/1 96/3/1 97/3/1
f 99/3/2 100/3/2 101/3/2
f 99/3/2 101/3/2 102/3/2
f 102/3/2 101/3/2 103/3/2
f 104/3/2 105/3/2 106/3/2
f 104/3/2 106/3/2 107/3/2
f 107/3/2 106/3/2 108/3/2
f 109/3/2 110/3/2 111/3/2
f 111/3/2 110/3/2 112/3/2
f 113/8/2 114/8/2 115/8/2
f 115/8/2 114/8/2 116/8/2
f 116/8/2 114/8/2 117/8/2
f 116/6/2 117/6/2 118/6/2
f 118/6/2 117/6/2 119/6/2
f 120/5/2 121/5/2 122/5/2
f 120/5/2 122/5/2 123/5/2
f 123/5/2 122/5/2 124/5/2
f 125/3/2 126/3/2 127/3/2
f 127/3/2 126/3/2 128/3/2
f 129/3/2 130/3/2 131/3/2
f 131/3/2 130/3/2 132/3/2
f 133/1/2 134/1/2 136/1/2
f 134/1/2 135/1/2 136/1/2
f 136/1/2 135/1/2 137/1/2
f 138/3/2 139/3/2 141/3/2
f 141/3/2 139/3/2 142/3/2
f 140/3/2 141/3/2 143/3/2
f 143/3/2 141/3/2 144/3/2
f 145/8/2 146/8/2 147/8/2
f 147/8/2 146/8/2 148/8/2
f 148/8/2 146/8/2 149/8/2
f 148/6/2 149/6/2 150/6/2
f 150/6/2 149/6/2 151/6/2
f 154/5/2 155/5/2 156/5/2
f 156/5/2 155/5/2 157/5/2
f 152/5/2 153/5/2 159/5/2
f 159/5/2 153/5/2 160/5/2
f 159/5/2 160/5/2 161/5/2
f 161/5/2 160/5/2 162/5/2
f 157/3/2 158/3/2 164/3/2
f 164/3/2 158/3/2 165/3/2
f 163/3/2 164/3/2 167/3/2
f 167/3/2 164/3/2 168/3/2
f 166/3/2 167/3/2 169/3/2
f 169/3/2 167/3/2 170/3/2
f 171/1/2 172/1/2 173/1/2
f 173/1/2 172/1/2 174/1/2
f 173/4/2 174/4/2 175/4/2
f 173/4/2 175/4/2 179/4/2
f 175/3/2 176/3/2 180/3/2
f 179/4/2 175/4/2 180/4/2
f 177/3/2 178/3/2 181/3/2
f 179/3/2 180/3/2 182/3/2
f 177/3/2 181/3/2 184/3/2
f 181/1/2 182/1/2 185/1/2
f 184/3/2 181/3/2 185/3/2
f 182/3/2 180/3/2 186/3/2
f 185/1/2 182/1/2 186/1/2
f 183/3/2 184/3/2 187/3/2
f 184/3/2 185/3/2 187/3/2
f 186/3/2 180/3/2 188/3/2
f 183/3/2 187/3/2 189/3/2
f 187/3/2 188/3/2 189/3/2
f 180/3/2 176/3/2 190/3/2
f 189/3/2 188/3/2 190/3/2
f 188/3/2 180/3/2 190/3/2
f 183/3/2 189/3/2 191/3/2
f 191/3/2 189/3/2 192/3/2
f 193/1/2 194/1/2 195/1/2
f 195/1/2 194/1/2 196/1/2
f 199/3/3 198/3/3 197/3/3
f 200/3/3 198/3/3 199/3/3
f 201/3/3 198/3/3 200/3/3
f 203/3/3 202/3/3 201/3/3
f 203/3/3 201/3/3 200/3/3
f 204/3/3 202/3/3 203/3/3
f 206/3/3 202/3/3 204/3/3
f 207/3/3 202/3/3 206/3/3
f 208/3/3 206/3/3 205/3/3
f 209/3/3 206/3/3 208/3/3
f 212/3/3 210/3/3 209/3/3
f 214/3/3 212/3/3 211/3/3
f 215/3/3 210/3/3 212/3/3
f 215/3/3 212/3/3 214/3/3
f 216/3/3 210/3/3 215/3/3
f 217/3/3 214/3/3 213/3/3
f 217/3/3 215/3/3 214/3/3
f 218/3/3 215/3/3 217/3/3
f 221/3/3 220/3/3 219/3/3
f 222/3/3 220/3/3 221/3/3
f 223/3/3 220/3/3 222/3/3
f 227/1/3 223/1/3 222/1/3
f 228/3/3 224/3/3 223/3/3
f 228/1/3 223/1/3 227/1/3
f 229/1/3 225/1/3 224/1/3
f 231/1/3 227/1/3 226/1/3
f 231/7/3 228/7/3 227/7/3
f 232/3/3 224/3/3 228/3/3
f 232/7/3 228/7/3 231/7/3
f 233/1/3 230/1/3 229/1/3
f 233/3/3 224/3/3 232/3/3
f 233/1/3 229/1/3 224/1/3
f 234/1/3 230/1/3 233/1/3
f 235/1/3 230/1/3 234/1/3
f 237/1/3 231/1/3 226/1/3
f 237/1/3 232/1/3 231/1/3
f 237/1/3 234/1/3 233/1/3
f 237/1/3 233/1/3 232/1/3
f 238/1/3 234/1/3 237/1/3
f 239/1/3 234/1/3 238/1/3
f 240/1/3 234/1/3 239/1/3
f 241/3/3 236/3/3 235/3/3
f 242/3/3 236/3/3 241/3/3
f 243/1/3 237/1/3 226/1/3
f 244/7/3 238/7/3 237/7/3
f 244/1/3 237/1/3 243/1/3
f 245/3/3 239/3/3 238/3/3
f 245/7/3 238/7/3 244/7/3
f 246/1/3 240/1/3 239/1/3
f 246/1/3 241/1/3 240/1/3
f 247/1/3 241/1/3 246/1/3
f 249/1/3 245/1/3 244/1/3
f 250/3/3 239/3/3 245/3/3
f 250/1/3 245/1/3 249/1/3
f 251/1/3 246/1/3 239/1/3
f 251/3/3 239/3/3 250/3/3
f 252/1/3 246/1/3 251/1/3
f 253/3/3 249/3/3 248/3/3
f 253/3/3 250/3/3 249/3/3
f 254/3/3 250/3/3 253/3/3
f 257/1/3 256/1/3 255/1/3
f 258/1/3 256/1/3 257/1/3
f 264/5/3 262/5/3 261/5/3
f 264/5/3 263/5/3 262/5/3
f 265/8/3 260/8/3 259/8/3
f 266/8/3 260/8/3 265/8/3
f 267/5/3 264/5/3 261/5/3
f 268/5/3 264/5/3 267/5/3
f 273/5/3 272/5/3 271/5/3
f 274/8/3 270/8/3 269/8/3
f 275/8/3 270/8/3 274/8/3
f 276/5/3 273/5/3 271/5/3
f 277/5/3 273/5/3 276/5/3
f 278/5/3 273/5/3 277/5/3
f 281/1/3 280/1/3 279/1/3
f 282/1/3 280/1/3 281/1/3
f 288/1/3 284/1/3 283/1/3
f 289/4/3 285/4/3 284/4/3
f 289/1/3 284/1/3 288/1/3
f 290/3/3 286/3/3 285/3/3
f 290/4/3 285/4/3 289/4/3
f 291/3/3 286/3/3 290/3/3
f 292/3/3 286/3/3 291/3/3
f 293/3/3 286/3/3 292/3/3
f 294/6/3 289/6/3 288/6/3
f 294/6/3 288/6/3 287/6/3
f 295/6/3 289/6/3 294/6/3
f 296/6/3 289/6/3 295/6/3
f 300/6/3 296/6/3 295/6/3
f 301/4/3 297/4/3 296/4/3
f 301/6/3 296/6/3 300/6/3
f 302/1/3 298/1/3 297/1/3
f 302/4/3 297/4/3 301/4/3
f 303/1/3 298/1/3 302/1/3
f 306/6/3 301/6/3 300/6/3
f 306/6/3 300/6/3 299/6/3
f 307/6/3 301/6/3 306/6/3
f 308/6/3 301/6/3 307/6/3
f 310/3/3 305/3/3 304/3/3
f 311/1/3 308/1/3 307/1/3
f 312/4/3 309/4/3 308/4/3
f 312/1/3 308/1/3 311/1/3
f 313/3/3 310/3/3 309/3/3
f 313/4/3 309/4/3 312/4/3
f 314/3/3 305/3/3 310/3/3
f 314/3/3 310/3/3 313/3/3
f 315/3/4 316/3/4 317/3/4
f 317/3/4 316/3/4 318/3/4
f 318/3/4 319/3/4 320/3/4
f 320/3/4 319/3/4 321/3/4
f 322/3/4 323/3/4 325/3/4
f 325/3/4 323/3/4 326/3/4
f 324/3/4 325/3/4 327/3/4
f 327/3/4 325/3/4 328/3/4
f 329/3/4 330/3/4 331/3/4
f 331/3/4 330/3/4 332/3/4
f 332/3/4 330/3/4 333/3/4
f 334/3/4 335/3/4 337/3/4
f 335/3/4 336/3/4 337/3/4
f 337/3/4 336/3/4 338/3/4
f 339/1/4 340/1/4 341/1/4
f 341/1/4 340/1/4 342/1/4
f 343/1/4 344/1/4 345/1/4
f 345/1/4 344/1/4 346/1/4
f 347/1/4 348/1/4 352/1/4
f 348/4/4 349/4/4 353/4/4
f 352/1/4 348/1/4 353/1/4
f 353/4/4 349/4/4 354/4/4
f 350/8/4 351/8/4 355/8/4
f 351/6/4 352/6/4 356/6/4
f 355/8/4 351/8/4 356/8/4
f 352/6/4 353/6/4 356/6/4
f 356/6/4 353/6/4 357/6/4
f 357/6/4 353/6/4 360/6/4
f 358/8/4 359/8/4 361/8/4
f 359/6/4 360/6/4 362/6/4
f 361/8/4 359/8/4 362/8/4
f 360/6/4 353/6/4 363/6/4
f 362/6/4 360/6/4 363/6/4
f 363/6/4 353/6/4 364/6/4
f 363/1/4 364/1/4 366/1/4
f 364/4/4 365/4/4 367/4/4
f 366/1/4 364/1/4 367/1/4
f 367/4/4 365/4/4 368/4/4
f 369/3/4 370/3/4 372/3/4
f 372/3/4 370/3/4 373/3/4
f 373/3/4 374/3/4 375/3/4
f 375/3/4 374/3/4 376/3/4
f 376/3/4 377/3/4 379/3/4
f 379/3/4 377/3/4 380/3/4
f 371/5/4 372/5/4 381/5/4
f 381/5/4 372/5/4 382/5/4
f 378/3/4 379/3/4 383/3/4
f 383/3/4 379/3/4 384/3/4
f 382/3/4 383/3/4 385/3/4
f 385/3/4 383/3/4 386/3/4
f 387/3/4 388/3/4 389/3/4
f 387/3/4 389/3/4 391/3/4
f 389/3/4 390/3/4 391/3/4
f 391/3/4 390/3/4 392/3/4
f 387/3/4 391/3/4 393/3/4
f 393/3/4 391/3/4 394/3/4
f 399/8/5 396/8/5 395/8/5
f 400/8/5 396/8/5 399/8/5
f 401/8/5 398/8/5 397/8/5
f 402/8/5 398/8/5 401/8/5
f 409/1/5 404/1/5 403/1/5
f 410/1/5 404/1/5 409/1/5
f 411/6/5 406/6/5 405/6/5
f 412/6/5 406/6/5 411/6/5
f 413/1/5 408/1/5 407/1/5
f 414/1/5 408/1/5 413/1/5
f 419/5/5 416/5/5 415/5/5
f 420/5/5 416/5/5 419/5/5
f 421/5/5 418/5/5 417/5/5
f 422/5/5 418/5/5 421/5/5
f 425/5/5 424/5/5 423/5/5
f 426/5/5 424/5/5 425/5/5
f 431/3/5 428/3/5 427/3/5
f 432/3/5 428/3/5 431/3/5
f 433/3/5 430/3/5 429/3/5
f 434/3/5 430/3/5 433/3/5
f 435/3/5 433/3/5 432/3/5
f 436/3/5 433/3/5 435/3/5
f 441/3/5 438/3/5 437/3/5
f 442/3/5 438/3/5 441/3/5
f 443/3/5 440/3/5 439/3/5
f 444/3/5 440/3/5 443/3/5
f 447/1/5 446/1/5 445/1/5
f 448/1/5 446/1/5 447/1/5
f 449/1/5 446/1/5 448/1/5
f 450/1/5 446/1/5 449/1/5
f 451/1/5 449/1/5 448/1/5
f 452/1/5 449/1/5 451/1/5
f 458/1/5 454/1/5 453/1/5
f 459/1/5 456/1/5 455/1/5
f 461/1/5 458/1/5 457/1/5
f 462/1/5 454/1/5 458/1/5
f 462/1/5 458/1/5 461/1/5
f 463/1/5 460/1/5 459/1/5
f 463/1/5 459/1/5 455/1/5
f 464/1/5 460/1/5 463/1/5
f 469/3/5 466/3/5 465/3/5
f 470/3/5 466/3/5 469/3/5
f 471/3/5 468/3/5 467/3/5
f 472/3/5 468/3/5 471/3/5
f 477/1/5 474/1/5 473/1/5
f 478/1/5 474/1/5 477/1/5
f 479/1/5 476/1/5 475/1/5
f 480/1/5 476/1/5 479/1/5
f 487/3/5 482/3/5 481/3/5
f 488/3/5 482/3/5 487/3/5
f 489/3/5 484/3/5 483/3/5
f 490/3/5 484/3/5 489/3/5
f 491/3/5 486/3/5 485/3/5
f 492/3/5 486/3/5 491/3/5
f 497/3/5 494/3/5 493/3/5
f 498/3/5 494/3/5 497/3/5
f 499/3/5 496/3/5 495/3/5
f 500/3/5 496/3/5 499/3/5
f 501/8/6 502/8/6 505/8/6
f 505/8/6 502/8/6 506/8/6
f 503/8/6 504/8/6 507/8/6
f 507/8/6 504/8/6 508/8/6
f 509/5/6 510/5/6 513/5/6
f 513/5/6 510/5/6 514/5/6
f 511/5/6 512/5/6 515/5/6
f 515/5/6 512/5/6 516/5/6
f 517/1/6 518/1/6 521/1/6
f 521/1/6 518/1/6 522/1/6
f 519/1/6 520/1/6 523/1/6
f 523/1/6 520/1/6 524/1/6
f 525/3/6 526/3/6 529/3/6
f 529/3/6 526/3/6 530/3/6
f 527/3/6 528/3/6 533/3/6
f 533/3/6 528/3/6 534/3/6
f 530/3/6 531/3/6 535/3/6
f 535/3/6 531/3/6 536/3/6
f 532/3/6 533/3/6 537/3/6
f 537/3/6 533/3/6 538/3/6
f 539/3/6 540/3/6 545/3/6
f 545/3/6 540/3/6 546/3/6
f 541/3/6 542/3/6 548/3/6
f 548/3/6 542/3/6 549/3/6
f 543/3/6 544/3/6 551/3/6
f 551/3/6 544/3/6 552/3/6
f 546/3/6 547/3/6 553/3/6
f 553/3/6 547/3/6 554/3/6
f 550/3/6 551/3/6 555/3/6
f 555/3/6 551/3/6 556/3/6
f 554/3/6 555/3/6 557/3/6
f 557/3/6 555/3/6 558/3/6
f 559/3/6 560/3/6 563/3/6
f 563/3/6 560/3/6 564/3/6
f 564/3/6 560/3/6 565/3/6
f 561/3/6 562/3/6 566/3/6
f 566/3/6 562/3/6 567/3/6
f 567/3/6 562/3/6 568/3/6
f 564/3/6 565/3/6 569/3/6
f 566/3/6 567/3/6 569/3/6
f 565/3/6 566/3/6 569/3/6
f 569/3/6 567/3/6 570/3/6
