# MagicaVoxel @ Ephtracy

# group
o 

# material
mtllib persona2.vox.mtl
usemtl palette

# normals
vn -1 0 0
vn 1 0 0
vn 0 0 1
vn 0 0 -1
vn 0 -1 0
vn 0 1 0

# texcoords
vt 0.0410156 0.5
vt 0.130859 0.5
vt 0.142578 0.5
vt 0.404297 0.5
vt 0.638672 0.5
vt 0.728516 0.5
vt 0.982422 0.5
vt 0.986328 0.5

# verts
v -0.4 1.2 0.1
v -0.4 1.2 0
v -0.4 1.3 0.1
v -0.4 1.3 0
v -0.3 0.4 0
v -0.3 0.4 -0.2
v -0.3 0.5 0
v -0.3 0.5 -0.2
v -0.3 0.9 0
v -0.3 0.9 -0.2
v -0.3 1.1 0
v -0.3 1.1 -0.3
v -0.3 1.2 0.2
v -0.3 1.2 0.1
v -0.3 1.2 0
v -0.3 1.3 0.3
v -0.3 1.3 0.2
v -0.3 1.3 0.1
v -0.3 1.3 0
v -0.3 1.4 0.3
v -0.3 1.4 -0.3
v -0.2 0 0.1
v -0.2 0 -0.2
v -0.2 0.1 0.1
v -0.2 0.1 0
v -0.2 0.1 -0.2
v -0.2 0.4 0.1
v -0.2 0.4 0
v -0.2 0.4 -0.2
v -0.2 0.4 -0.3
v -0.2 0.5 0
v -0.2 0.5 -0.2
v -0.2 0.9 0
v -0.2 0.9 -0.2
v -0.2 1 0.1
v -0.2 1 0
v -0.2 1 -0.3
v -0.2 1.1 0.2
v -0.2 1.1 0
v -0.2 1.1 -0.3
v -0.2 1.1 -0.4
v -0.2 1.2 0.2
v -0.2 1.2 0.1
v -0.2 1.2 0
v -0.2 1.4 0.3
v -0.2 1.4 -0.3
v -0.2 1.4 -0.4
v -0.2 1.5 0.3
v -0.2 1.5 -0.3
v -0.1 1 0.2
v -0.1 1 0.1
v -0.1 1 0
v -0.1 1.1 0.2
v -0.1 1.1 0
v -0.1 1.4 -0.3
v -0.1 1.4 -0.4
v -0.1 1.5 0.3
v -0.1 1.5 -0.3
v -0.1 1.5 -0.4
v -0.1 1.6 0.3
v -0.1 1.6 -0.3
v 0 1.4 0.3
v 0 1.4 0.2
v 0 1.5 0.3
v 0 1.5 0.2
v 0.1 0 0.1
v 0.1 0 -0.2
v 0.1 0.1 0.1
v 0.1 0.1 0
v 0.1 0.1 -0.2
v 0.1 0.4 0.1
v 0.1 0.4 0
v 0.1 0.4 -0.1
v 0.1 0.4 -0.2
v 0.1 0.9 0
v 0.1 1 0.1
v 0.1 1 0
v 0.3 1.3 0.3
v 0.3 1.3 0.2
v 0.3 1.4 0.3
v 0.3 1.4 0.2
v -0.2 1.3 0.3
v -0.2 1.3 0.2
v -0.2 1.4 0.3
v -0.2 1.4 0.2
v -0.1 1.4 0.3
v -0.1 1.4 0.2
v -0.1 1.5 0.3
v -0.1 1.5 0.2
v 0 0 0.1
v 0 0 -0.2
v 0 0.1 0.1
v 0 0.1 0
v 0 0.1 -0.2
v 0 0.4 0.1
v 0 0.4 0
v 0 0.4 -0.1
v 0 0.4 -0.2
v 0 0.9 0
v 0 1 0.1
v 0 1 0
v 0 1.5 0.3
v 0 1.5 0.2
v 0 1.6 0.3
v 0 1.6 0.2
v 0.2 1 0.2
v 0.2 1 0.1
v 0.2 1 0
v 0.2 1.1 0.2
v 0.2 1.1 0
v 0.2 1.4 -0.3
v 0.2 1.4 -0.4
v 0.2 1.5 0.2
v 0.2 1.5 -0.3
v 0.2 1.5 -0.4
v 0.2 1.6 0.2
v 0.2 1.6 -0.3
v 0.3 0 0.1
v 0.3 0 -0.2
v 0.3 0.1 0.1
v 0.3 0.1 0
v 0.3 0.1 -0.2
v 0.3 0.4 0.1
v 0.3 0.4 0
v 0.3 0.4 -0.2
v 0.3 0.4 -0.3
v 0.3 0.5 0
v 0.3 0.5 -0.2
v 0.3 0.9 0
v 0.3 0.9 -0.2
v 0.3 1 0.1
v 0.3 1 0
v 0.3 1 -0.3
v 0.3 1.1 0.2
v 0.3 1.1 0
v 0.3 1.1 -0.3
v 0.3 1.1 -0.4
v 0.3 1.2 0.2
v 0.3 1.2 0.1
v 0.3 1.2 0
v 0.3 1.4 0.3
v 0.3 1.4 -0.3
v 0.3 1.4 -0.4
v 0.3 1.5 0.3
v 0.3 1.5 -0.3
v 0.4 0.4 0
v 0.4 0.4 -0.2
v 0.4 0.5 0
v 0.4 0.5 -0.2
v 0.4 0.9 0
v 0.4 0.9 -0.2
v 0.4 1.1 0
v 0.4 1.1 -0.3
v 0.4 1.2 0.2
v 0.4 1.2 0.1
v 0.4 1.2 0
v 0.4 1.3 0.3
v 0.4 1.3 0.2
v 0.4 1.3 0.1
v 0.4 1.3 0
v 0.4 1.4 0.3
v 0.4 1.4 -0.3
v 0.5 1.2 0.1
v 0.5 1.2 0
v 0.5 1.3 0.1
v 0.5 1.3 0
v -0.3 1.3 0.3
v -0.3 1.4 0.3
v -0.2 1.3 0.3
v -0.2 1.4 0.3
v -0.2 1.5 0.3
v -0.1 1.4 0.3
v -0.1 1.5 0.3
v -0.1 1.6 0.3
v 0 1.4 0.3
v 0 1.5 0.3
v 0 1.6 0.3
v 0.3 1.3 0.3
v 0.3 1.4 0.3
v 0.3 1.5 0.3
v 0.4 1.3 0.3
v 0.4 1.4 0.3
v -0.3 1.2 0.2
v -0.3 1.3 0.2
v -0.2 1.1 0.2
v -0.2 1.2 0.2
v -0.2 1.3 0.2
v -0.2 1.4 0.2
v -0.1 1 0.2
v -0.1 1.1 0.2
v -0.1 1.2 0.2
v -0.1 1.4 0.2
v -0.1 1.5 0.2
v 0 1.1 0.2
v 0 1.2 0.2
v 0 1.3 0.2
v 0 1.4 0.2
v 0 1.5 0.2
v 0 1.6 0.2
v 0.1 1.1 0.2
v 0.1 1.2 0.2
v 0.1 1.3 0.2
v 0.2 1 0.2
v 0.2 1.1 0.2
v 0.2 1.2 0.2
v 0.2 1.5 0.2
v 0.2 1.6 0.2
v 0.3 1.1 0.2
v 0.3 1.2 0.2
v 0.3 1.3 0.2
v 0.3 1.4 0.2
v 0.4 1.2 0.2
v 0.4 1.3 0.2
v -0.4 1.2 0.1
v -0.4 1.3 0.1
v -0.3 1.2 0.1
v -0.3 1.3 0.1
v -0.2 0 0.1
v -0.2 0.1 0.1
v -0.2 0.4 0.1
v -0.2 1 0.1
v -0.1 1 0.1
v 0 0 0.1
v 0 0.1 0.1
v 0 0.4 0.1
v 0 1 0.1
v 0.1 0 0.1
v 0.1 0.1 0.1
v 0.1 0.4 0.1
v 0.1 1 0.1
v 0.2 1 0.1
v 0.3 0 0.1
v 0.3 0.1 0.1
v 0.3 0.4 0.1
v 0.3 1 0.1
v 0.4 1.2 0.1
v 0.4 1.3 0.1
v 0.5 1.2 0.1
v 0.5 1.3 0.1
v -0.3 0.4 0
v -0.3 0.5 0
v -0.3 0.9 0
v -0.3 1.1 0
v -0.3 1.2 0
v -0.2 0.1 0
v -0.2 0.4 0
v -0.2 0.5 0
v -0.2 0.9 0
v -0.2 1 0
v -0.2 1.1 0
v -0.2 1.2 0
v -0.1 1 0
v -0.1 1.1 0
v 0 0.1 0
v 0 0.4 0
v 0 0.9 0
v 0 1 0
v 0.1 0.1 0
v 0.1 0.4 0
v 0.1 0.9 0
v 0.1 1 0
v 0.2 1 0
v 0.2 1.1 0
v 0.3 0.1 0
v 0.3 0.4 0
v 0.3 0.5 0
v 0.3 0.9 0
v 0.3 1 0
v 0.3 1.1 0
v 0.3 1.2 0
v 0.4 0.4 0
v 0.4 0.5 0
v 0.4 0.9 0
v 0.4 1.1 0
v 0.4 1.2 0
v -0.4 1.2 0
v -0.4 1.3 0
v -0.3 1.2 0
v -0.3 1.3 0
v 0.4 1.2 0
v 0.4 1.3 0
v 0.5 1.2 0
v 0.5 1.3 0
v -0.3 0.4 -0.2
v -0.3 0.5 -0.2
v -0.3 0.9 -0.2
v -0.2 0 -0.2
v -0.2 0.1 -0.2
v -0.2 0.4 -0.2
v -0.2 0.5 -0.2
v -0.2 0.9 -0.2
v 0 0 -0.2
v 0 0.1 -0.2
v 0 0.4 -0.2
v 0.1 0 -0.2
v 0.1 0.1 -0.2
v 0.1 0.4 -0.2
v 0.3 0 -0.2
v 0.3 0.1 -0.2
v 0.3 0.4 -0.2
v 0.3 0.5 -0.2
v 0.3 0.9 -0.2
v 0.4 0.4 -0.2
v 0.4 0.5 -0.2
v 0.4 0.9 -0.2
v -0.3 1.1 -0.3
v -0.3 1.4 -0.3
v -0.2 0.4 -0.3
v -0.2 1 -0.3
v -0.2 1.1 -0.3
v -0.2 1.4 -0.3
v -0.2 1.5 -0.3
v -0.1 1.4 -0.3
v -0.1 1.5 -0.3
v -0.1 1.6 -0.3
v 0.2 1.4 -0.3
v 0.2 1.5 -0.3
v 0.2 1.6 -0.3
v 0.3 0.4 -0.3
v 0.3 1 -0.3
v 0.3 1.1 -0.3
v 0.3 1.4 -0.3
v 0.3 1.5 -0.3
v 0.4 1.1 -0.3
v 0.4 1.4 -0.3
v -0.2 1.1 -0.4
v -0.2 1.4 -0.4
v -0.1 1.4 -0.4
v -0.1 1.5 -0.4
v 0.2 1.4 -0.4
v 0.2 1.5 -0.4
v 0.3 1.1 -0.4
v 0.3 1.4 -0.4
v -0.2 0 0.1
v 0 0 0.1
v 0.1 0 0.1
v 0.3 0 0.1
v -0.2 0 -0.2
v 0 0 -0.2
v 0.1 0 -0.2
v 0.3 0 -0.2
v -0.2 0.4 0.1
v 0 0.4 0.1
v 0.1 0.4 0.1
v 0.3 0.4 0.1
v -0.3 0.4 0
v -0.2 0.4 0
v 0 0.4 0
v 0.1 0.4 0
v 0.3 0.4 0
v 0.4 0.4 0
v 0 0.4 -0.1
v 0.1 0.4 -0.1
v -0.3 0.4 -0.2
v -0.2 0.4 -0.2
v 0 0.4 -0.2
v 0.1 0.4 -0.2
v 0.3 0.4 -0.2
v 0.4 0.4 -0.2
v -0.2 0.4 -0.3
v 0.3 0.4 -0.3
v -0.1 1 0.2
v 0.2 1 0.2
v -0.1 1 0.1
v 0 1 0.1
v 0.1 1 0.1
v 0.2 1 0.1
v 0 1 0
v 0.1 1 0
v -0.2 1.1 0.2
v -0.1 1.1 0.2
v 0.2 1.1 0.2
v 0.3 1.1 0.2
v -0.3 1.1 0
v -0.2 1.1 0
v -0.1 1.1 0
v 0.2 1.1 0
v 0.3 1.1 0
v 0.4 1.1 0
v -0.3 1.1 -0.3
v -0.2 1.1 -0.3
v 0.3 1.1 -0.3
v 0.4 1.1 -0.3
v -0.2 1.1 -0.4
v 0.3 1.1 -0.4
v -0.3 1.2 0.2
v -0.2 1.2 0.2
v 0.3 1.2 0.2
v 0.4 1.2 0.2
v -0.4 1.2 0.1
v -0.3 1.2 0.1
v -0.2 1.2 0.1
v 0.3 1.2 0.1
v 0.4 1.2 0.1
v 0.5 1.2 0.1
v -0.4 1.2 0
v -0.3 1.2 0
v -0.2 1.2 0
v 0.3 1.2 0
v 0.4 1.2 0
v 0.5 1.2 0
v -0.3 1.3 0.3
v -0.2 1.3 0.3
v 0.3 1.3 0.3
v 0.4 1.3 0.3
v -0.3 1.3 0.2
v -0.2 1.3 0.2
v 0.3 1.3 0.2
v 0.4 1.3 0.2
v -0.2 1.4 0.3
v -0.1 1.4 0.3
v 0 1.4 0.3
v 0.3 1.4 0.3
v -0.2 1.4 0.2
v -0.1 1.4 0.2
v 0 1.4 0.2
v 0.3 1.4 0.2
v -0.1 1.5 0.3
v 0 1.5 0.3
v -0.1 1.5 0.2
v 0 1.5 0.2
v -0.2 0.1 0.1
v 0 0.1 0.1
v 0.1 0.1 0.1
v 0.3 0.1 0.1
v -0.2 0.1 0
v 0 0.1 0
v 0.1 0.1 0
v 0.3 0.1 0
v -0.3 0.9 0
v -0.2 0.9 0
v 0.3 0.9 0
v 0.4 0.9 0
v -0.3 0.9 -0.2
v -0.2 0.9 -0.2
v 0.3 0.9 -0.2
v 0.4 0.9 -0.2
v -0.2 1 0.1
v -0.1 1 0.1
v 0.2 1 0.1
v 0.3 1 0.1
v -0.2 1 0
v -0.1 1 0
v 0.2 1 0
v 0.3 1 0
v -0.4 1.3 0.1
v -0.3 1.3 0.1
v 0.4 1.3 0.1
v 0.5 1.3 0.1
v -0.4 1.3 0
v -0.3 1.3 0
v 0.4 1.3 0
v 0.5 1.3 0
v -0.3 1.4 0.3
v -0.2 1.4 0.3
v 0.3 1.4 0.3
v 0.4 1.4 0.3
v -0.3 1.4 -0.3
v -0.2 1.4 -0.3
v -0.1 1.4 -0.3
v 0.2 1.4 -0.3
v 0.3 1.4 -0.3
v 0.4 1.4 -0.3
v -0.2 1.4 -0.4
v -0.1 1.4 -0.4
v 0.2 1.4 -0.4
v 0.3 1.4 -0.4
v -0.2 1.5 0.3
v -0.1 1.5 0.3
v 0 1.5 0.3
v 0.3 1.5 0.3
v 0 1.5 0.2
v 0.2 1.5 0.2
v -0.2 1.5 -0.3
v -0.1 1.5 -0.3
v 0.2 1.5 -0.3
v 0.3 1.5 -0.3
v -0.1 1.5 -0.4
v 0.2 1.5 -0.4
v -0.1 1.6 0.3
v 0 1.6 0.3
v 0 1.6 0.2
v 0.2 1.6 0.2
v -0.1 1.6 -0.3
v 0.2 1.6 -0.3

# faces
f 3/2/1 2/2/1 1/2/1
f 4/2/1 2/2/1 3/2/1
f 7/2/1 6/2/1 5/2/1
f 8/2/1 6/2/1 7/2/1
f 9/6/1 8/6/1 7/6/1
f 10/6/1 8/6/1 9/6/1
f 15/1/1 12/1/1 11/1/1
f 17/1/1 14/1/1 13/1/1
f 18/1/1 14/1/1 17/1/1
f 19/1/1 12/1/1 15/1/1
f 20/1/1 18/1/1 17/1/1
f 20/1/1 19/1/1 18/1/1
f 20/1/1 17/1/1 16/1/1
f 21/1/1 12/1/1 19/1/1
f 21/1/1 19/1/1 20/1/1
f 24/4/1 23/4/1 22/4/1
f 25/4/1 23/4/1 24/4/1
f 26/4/1 23/4/1 25/4/1
f 28/7/1 26/7/1 25/7/1
f 29/7/1 26/7/1 28/7/1
f 31/5/1 28/5/1 27/5/1
f 32/5/1 30/5/1 29/5/1
f 33/5/1 31/5/1 27/5/1
f 34/5/1 30/5/1 32/5/1
f 35/5/1 33/5/1 27/5/1
f 35/5/1 34/5/1 33/5/1
f 36/5/1 34/5/1 35/5/1
f 37/5/1 30/5/1 34/5/1
f 37/5/1 34/5/1 36/5/1
f 39/1/1 37/1/1 36/1/1
f 40/1/1 37/1/1 39/1/1
f 42/2/1 39/2/1 38/2/1
f 43/2/1 39/2/1 42/2/1
f 44/2/1 39/2/1 43/2/1
f 46/1/1 41/1/1 40/1/1
f 47/1/1 41/1/1 46/1/1
f 48/1/1 46/1/1 45/1/1
f 49/1/1 46/1/1 48/1/1
f 53/2/1 51/2/1 50/2/1
f 53/2/1 52/2/1 51/2/1
f 54/2/1 52/2/1 53/2/1
f 58/1/1 56/1/1 55/1/1
f 59/1/1 56/1/1 58/1/1
f 60/1/1 58/1/1 57/1/1
f 61/1/1 58/1/1 60/1/1
f 64/1/1 63/1/1 62/1/1
f 65/1/1 63/1/1 64/1/1
f 68/4/1 67/4/1 66/4/1
f 69/4/1 67/4/1 68/4/1
f 70/4/1 67/4/1 69/4/1
f 72/7/1 70/7/1 69/7/1
f 73/7/1 70/7/1 72/7/1
f 74/7/1 70/7/1 73/7/1
f 75/5/1 72/5/1 71/5/1
f 76/5/1 75/5/1 71/5/1
f 77/5/1 75/5/1 76/5/1
f 80/1/1 79/1/1 78/1/1
f 81/1/1 79/1/1 80/1/1
f 82/1/2 83/1/2 84/1/2
f 84/1/2 83/1/2 85/1/2
f 86/1/2 87/1/2 88/1/2
f 88/1/2 87/1/2 89/1/2
f 90/4/2 91/4/2 92/4/2
f 92/4/2 91/4/2 93/4/2
f 93/4/2 91/4/2 94/4/2
f 93/7/2 94/7/2 96/7/2
f 96/7/2 94/7/2 97/7/2
f 97/7/2 94/7/2 98/7/2
f 95/5/2 96/5/2 99/5/2
f 95/5/2 99/5/2 100/5/2
f 100/5/2 99/5/2 101/5/2
f 102/1/2 103/1/2 104/1/2
f 104/1/2 103/1/2 105/1/2
f 106/2/2 107/2/2 109/2/2
f 107/2/2 108/2/2 109/2/2
f 109/2/2 108/2/2 110/2/2
f 111/1/2 112/1/2 114/1/2
f 114/1/2 112/1/2 115/1/2
f 113/1/2 114/1/2 116/1/2
f 116/1/2 114/1/2 117/1/2
f 118/4/2 119/4/2 120/4/2
f 120/4/2 119/4/2 121/4/2
f 121/4/2 119/4/2 122/4/2
f 121/7/2 122/7/2 124/7/2
f 124/7/2 122/7/2 125/7/2
f 123/5/2 124/5/2 127/5/2
f 125/5/2 126/5/2 128/5/2
f 123/5/2 127/5/2 129/5/2
f 128/5/2 126/5/2 130/5/2
f 123/5/2 129/5/2 131/5/2
f 129/5/2 130/5/2 131/5/2
f 131/5/2 130/5/2 132/5/2
f 130/5/2 126/5/2 133/5/2
f 132/5/2 130/5/2 133/5/2
f 132/1/2 133/1/2 135/1/2
f 135/1/2 133/1/2 136/1/2
f 134/2/2 135/2/2 138/2/2
f 138/2/2 135/2/2 139/2/2
f 139/2/2 135/2/2 140/2/2
f 136/1/2 137/1/2 142/1/2
f 142/1/2 137/1/2 143/1/2
f 141/1/2 142/1/2 144/1/2
f 144/1/2 142/1/2 145/1/2
f 146/2/2 147/2/2 148/2/2
f 148/2/2 147/2/2 149/2/2
f 148/6/2 149/6/2 150/6/2
f 150/6/2 149/6/2 151/6/2
f 152/1/2 153/1/2 156/1/2
f 154/1/2 155/1/2 158/1/2
f 158/1/2 155/1/2 159/1/2
f 156/1/2 153/1/2 160/1/2
f 158/1/2 159/1/2 161/1/2
f 159/1/2 160/1/2 161/1/2
f 157/1/2 158/1/2 161/1/2
f 160/1/2 153/1/2 162/1/2
f 161/1/2 160/1/2 162/1/2
f 163/2/2 164/2/2 165/2/2
f 165/2/2 164/2/2 166/2/2
f 169/1/3 168/1/3 167/1/3
f 170/1/3 168/1/3 169/1/3
f 172/1/3 171/1/3 170/1/3
f 173/1/3 171/1/3 172/1/3
f 176/1/3 174/1/3 173/1/3
f 177/1/3 174/1/3 176/1/3
f 179/1/3 176/1/3 175/1/3
f 180/1/3 176/1/3 179/1/3
f 181/1/3 179/1/3 178/1/3
f 182/1/3 179/1/3 181/1/3
f 186/1/3 184/1/3 183/1/3
f 187/1/3 184/1/3 186/1/3
f 190/2/3 186/2/3 185/2/3
f 191/1/3 187/1/3 186/1/3
f 191/2/3 186/2/3 190/2/3
f 192/2/3 188/2/3 187/2/3
f 194/2/3 190/2/3 189/2/3
f 194/8/3 191/8/3 190/8/3
f 195/1/3 187/1/3 191/1/3
f 195/8/3 191/8/3 194/8/3
f 196/2/3 193/2/3 192/2/3
f 196/1/3 187/1/3 195/1/3
f 196/2/3 192/2/3 187/2/3
f 197/2/3 193/2/3 196/2/3
f 198/2/3 193/2/3 197/2/3
f 200/2/3 194/2/3 189/2/3
f 200/2/3 195/2/3 194/2/3
f 200/2/3 197/2/3 196/2/3
f 200/2/3 196/2/3 195/2/3
f 201/2/3 197/2/3 200/2/3
f 202/2/3 197/2/3 201/2/3
f 203/2/3 200/2/3 189/2/3
f 204/8/3 201/8/3 200/8/3
f 204/2/3 200/2/3 203/2/3
f 205/1/3 202/1/3 201/1/3
f 205/8/3 201/8/3 204/8/3
f 206/1/3 199/1/3 198/1/3
f 207/1/3 199/1/3 206/1/3
f 208/2/3 205/2/3 204/2/3
f 209/1/3 202/1/3 205/1/3
f 209/2/3 205/2/3 208/2/3
f 210/2/3 197/2/3 202/2/3
f 210/1/3 202/1/3 209/1/3
f 211/2/3 197/2/3 210/2/3
f 212/1/3 210/1/3 209/1/3
f 213/1/3 210/1/3 212/1/3
f 216/2/3 215/2/3 214/2/3
f 217/2/3 215/2/3 216/2/3
f 222/5/3 221/5/3 220/5/3
f 223/4/3 219/4/3 218/4/3
f 224/4/3 219/4/3 223/4/3
f 225/5/3 222/5/3 220/5/3
f 226/5/3 222/5/3 225/5/3
f 231/5/3 230/5/3 229/5/3
f 232/4/3 228/4/3 227/4/3
f 233/4/3 228/4/3 232/4/3
f 234/5/3 231/5/3 229/5/3
f 235/5/3 231/5/3 234/5/3
f 238/2/3 237/2/3 236/2/3
f 239/2/3 237/2/3 238/2/3
f 246/2/3 241/2/3 240/2/3
f 247/6/3 242/6/3 241/6/3
f 247/2/3 241/2/3 246/2/3
f 248/6/3 242/6/3 247/6/3
f 250/1/3 244/1/3 243/1/3
f 251/1/3 244/1/3 250/1/3
f 252/1/3 250/1/3 249/1/3
f 253/1/3 250/1/3 252/1/3
f 254/7/3 246/7/3 245/7/3
f 255/7/3 246/7/3 254/7/3
f 259/6/3 256/6/3 255/6/3
f 260/2/3 257/2/3 256/2/3
f 260/6/3 256/6/3 259/6/3
f 261/2/3 257/2/3 260/2/3
f 264/7/3 259/7/3 258/7/3
f 265/7/3 259/7/3 264/7/3
f 268/1/3 263/1/3 262/1/3
f 269/1/3 263/1/3 268/1/3
f 271/2/3 266/2/3 265/2/3
f 272/6/3 267/6/3 266/6/3
f 272/2/3 266/2/3 271/2/3
f 273/6/3 267/6/3 272/6/3
f 274/1/3 270/1/3 269/1/3
f 275/1/3 270/1/3 274/1/3
f 276/2/4 277/2/4 278/2/4
f 278/2/4 277/2/4 279/2/4
f 280/2/4 281/2/4 282/2/4
f 282/2/4 281/2/4 283/2/4
f 284/2/4 285/2/4 289/2/4
f 285/6/4 286/6/4 290/6/4
f 289/2/4 285/2/4 290/2/4
f 290/6/4 286/6/4 291/6/4
f 287/4/4 288/4/4 292/4/4
f 288/7/4 289/7/4 293/7/4
f 292/4/4 288/4/4 293/4/4
f 293/7/4 289/7/4 294/7/4
f 295/4/4 296/4/4 298/4/4
f 296/7/4 297/7/4 299/7/4
f 298/4/4 296/4/4 299/4/4
f 299/7/4 297/7/4 300/7/4
f 300/2/4 301/2/4 303/2/4
f 301/6/4 302/6/4 304/6/4
f 303/2/4 301/2/4 304/2/4
f 304/6/4 302/6/4 305/6/4
f 306/1/4 307/1/4 310/1/4
f 310/1/4 307/1/4 311/1/4
f 311/1/4 312/1/4 313/1/4
f 313/1/4 312/1/4 314/1/4
f 314/1/4 315/1/4 317/1/4
f 317/1/4 315/1/4 318/1/4
f 308/5/4 309/5/4 319/5/4
f 309/1/4 310/1/4 320/1/4
f 319/5/4 309/5/4 320/5/4
f 320/1/4 310/1/4 321/1/4
f 316/1/4 317/1/4 322/1/4
f 322/1/4 317/1/4 323/1/4
f 321/1/4 322/1/4 324/1/4
f 324/1/4 322/1/4 325/1/4
f 326/1/4 327/1/4 328/1/4
f 326/1/4 328/1/4 330/1/4
f 328/1/4 329/1/4 330/1/4
f 330/1/4 329/1/4 331/1/4
f 326/1/4 330/1/4 332/1/4
f 332/1/4 330/1/4 333/1/4
f 338/4/5 335/4/5 334/4/5
f 339/4/5 335/4/5 338/4/5
f 340/4/5 337/4/5 336/4/5
f 341/4/5 337/4/5 340/4/5
f 347/5/5 343/5/5 342/5/5
f 348/5/5 343/5/5 347/5/5
f 349/5/5 345/5/5 344/5/5
f 350/5/5 345/5/5 349/5/5
f 352/6/5 349/6/5 348/6/5
f 353/6/5 349/6/5 352/6/5
f 354/2/5 347/2/5 346/2/5
f 355/2/5 347/2/5 354/2/5
f 356/5/5 353/5/5 352/5/5
f 357/5/5 353/5/5 356/5/5
f 358/2/5 351/2/5 350/2/5
f 359/2/5 351/2/5 358/2/5
f 360/5/5 357/5/5 356/5/5
f 360/5/5 356/5/5 355/5/5
f 360/5/5 358/5/5 357/5/5
f 361/5/5 358/5/5 360/5/5
f 364/2/5 363/2/5 362/2/5
f 365/2/5 363/2/5 364/2/5
f 366/2/5 363/2/5 365/2/5
f 367/2/5 363/2/5 366/2/5
f 368/2/5 366/2/5 365/2/5
f 369/2/5 366/2/5 368/2/5
f 375/2/5 371/2/5 370/2/5
f 376/2/5 371/2/5 375/2/5
f 377/2/5 373/2/5 372/2/5
f 378/2/5 373/2/5 377/2/5
f 380/1/5 375/1/5 374/1/5
f 381/1/5 375/1/5 380/1/5
f 382/1/5 379/1/5 378/1/5
f 383/1/5 379/1/5 382/1/5
f 384/1/5 382/1/5 381/1/5
f 385/1/5 382/1/5 384/1/5
f 391/1/5 387/1/5 386/1/5
f 392/1/5 387/1/5 391/1/5
f 393/1/5 389/1/5 388/1/5
f 394/1/5 389/1/5 393/1/5
f 396/2/5 392/2/5 391/2/5
f 396/2/5 391/2/5 390/2/5
f 397/2/5 392/2/5 396/2/5
f 398/2/5 392/2/5 397/2/5
f 399/2/5 395/2/5 394/2/5
f 399/2/5 394/2/5 393/2/5
f 400/2/5 395/2/5 399/2/5
f 401/2/5 395/2/5 400/2/5
f 406/1/5 403/1/5 402/1/5
f 407/1/5 403/1/5 406/1/5
f 408/1/5 405/1/5 404/1/5
f 409/1/5 405/1/5 408/1/5
f 414/1/5 411/1/5 410/1/5
f 415/1/5 411/1/5 414/1/5
f 416/1/5 413/1/5 412/1/5
f 417/1/5 413/1/5 416/1/5
f 420/1/5 419/1/5 418/1/5
f 421/1/5 419/1/5 420/1/5
f 422/4/6 423/4/6 426/4/6
f 426/4/6 423/4/6 427/4/6
f 424/4/6 425/4/6 428/4/6
f 428/4/6 425/4/6 429/4/6
f 430/6/6 431/6/6 434/6/6
f 434/6/6 431/6/6 435/6/6
f 432/6/6 433/6/6 436/6/6
f 436/6/6 433/6/6 437/6/6
f 438/5/6 439/5/6 442/5/6
f 442/5/6 439/5/6 443/5/6
f 440/5/6 441/5/6 444/5/6
f 444/5/6 441/5/6 445/5/6
f 446/2/6 447/2/6 450/2/6
f 450/2/6 447/2/6 451/2/6
f 448/2/6 449/2/6 452/2/6
f 452/2/6 449/2/6 453/2/6
f 454/1/6 455/1/6 458/1/6
f 458/1/6 455/1/6 459/1/6
f 456/1/6 457/1/6 462/1/6
f 462/1/6 457/1/6 463/1/6
f 459/1/6 460/1/6 464/1/6
f 464/1/6 460/1/6 465/1/6
f 461/1/6 462/1/6 466/1/6
f 466/1/6 462/1/6 467/1/6
f 470/1/6 471/1/6 472/1/6
f 472/1/6 471/1/6 473/1/6
f 468/1/6 469/1/6 474/1/6
f 474/1/6 469/1/6 475/1/6
f 473/1/6 471/1/6 476/1/6
f 476/1/6 471/1/6 477/1/6
f 475/1/6 476/1/6 478/1/6
f 478/1/6 476/1/6 479/1/6
f 480/1/6 481/1/6 482/1/6
f 480/1/6 482/1/6 484/1/6
f 482/1/6 483/1/6 484/1/6
f 484/1/6 483/1/6 485/1/6
